<svg xmlns="http://www.w3.org/2000/svg" viewBox="0 0 1000 1000"><defs><style>.cls-1{isolation:isolate;}.cls-2{fill:#c4acd1;}.cls-3{fill:#876070;}.cls-4{fill:#e9eff4;}.cls-5{fill:#3a8ec1;}.cls-6{fill:#e296af;}.cls-7{fill:#b56983;}.cls-8{fill:#d17993;}.cls-9{fill:#7e508e;}.cls-10{fill:#f4af5d;}.cls-11{fill:#b55462;}.cls-12{fill:#f2785f;}.cls-13{fill:#e5bcb1;}.cls-14{fill:#d6aca1;}.cls-15{fill:#f0d3c9;}.cls-16{fill:#ce6f81;}.cls-17{fill:#d1e9f2;}.cls-18,.cls-23{fill:#d8dfe3;}.cls-19{fill:#f76374;}.cls-20,.cls-36{fill:#fff;}.cls-21{fill:#9ae1f4;}.cls-22{fill:#231f20;}.cls-22,.cls-23{opacity:0.1;mix-blend-mode:multiply;}.cls-24{fill:#447bcc;}.cls-25{fill:#4f2f5b;}.cls-26{fill:#4496d5;}.cls-27{fill:#ffcebf;}.cls-28{fill:#e5a495;}.cls-29{fill:#d86161;}.cls-30{fill:#b0cfd1;}.cls-31{fill:#96b4b5;}.cls-32{fill:#9bbbbc;}.cls-33{fill:#d7dee2;}.cls-34{fill:#f7b874;}.cls-35{fill:#fcf3f2;}.cls-36{opacity:0.5;}.cls-37{fill:#5880a6;}.cls-38{fill:#698daf;}.cls-39{fill:#030405;}.cls-40{fill:#d15656;}.cls-41{fill:#ffc4c4;}.cls-42{fill:#eff6f2;}.cls-43{fill:#7eb4c4;}.cls-44{fill:#71a1ad;}.cls-45{fill:#92c3d6;}.cls-46{fill:#7ec24e;}.cls-47{fill:#64b52a;}.cls-48{fill:#f8e8cf;}.cls-49{fill:#4e2649;}.cls-50{fill:#ffda84;}.cls-51{fill:#ffd062;}</style></defs><title>landing</title><g class="cls-1"><g id="Layer_1" data-name="Layer 1"><path class="cls-2" d="M58.11,619.33c.56.33,1.09.68,1.6,1l.75.55.73.56c.46.38.9.76,1.3,1.12s.76.73,1.12,1.06c.69.67,1.24,1.25,1.61,1.68s.57.68.57.68-.27.06-.74.13a13.84,13.84,0,0,1-2,.14,14.3,14.3,0,0,1-2.88-.29,14.92,14.92,0,0,1-1.67-.45l-.87-.33-.87-.42a16.9,16.9,0,0,1-3.19-2.27,22.13,22.13,0,0,1-2.4-2.67,17.37,17.37,0,0,1-1.47-2.23c-.33-.57-.5-.93-.5-.93s.28,0,.77,0a16.38,16.38,0,0,1,2,.27,18.19,18.19,0,0,1,2.82.8c.51.19,1.07.4,1.62.65S57.54,619,58.11,619.33Z"/><path class="cls-2" d="M63.14,634.84a22.71,22.71,0,0,1,3.76,1.71c.56.33,1.12.65,1.62,1s1,.65,1.41,1c.84.61,1.55,1.16,2,1.56s.75.66.75.66a14.27,14.27,0,0,1-3,.73,17.39,17.39,0,0,1-3.19.17,15.55,15.55,0,0,1-3.88-.68,18,18,0,0,1-2-.78,19.1,19.1,0,0,1-1.84-1c-.58-.36-1.14-.74-1.66-1.12-.26-.19-.5-.38-.74-.58l-.68-.58a28.1,28.1,0,0,1-2-2c-.46-.53-.72-.86-.72-.86a7.25,7.25,0,0,1,.83-.15,16.2,16.2,0,0,1,2.22-.17A20,20,0,0,1,63.14,634.84Z"/><path class="cls-2" d="M70.13,649.19a26.62,26.62,0,0,1,7.67,3.32A26,26,0,0,1,81,654.78a16.49,16.49,0,0,1-3.19,1,18.85,18.85,0,0,1-7.7,0,20.57,20.57,0,0,1-4.26-1.47,29.9,29.9,0,0,1-3.49-2c-1-.68-1.79-1.33-2.35-1.8s-.86-.77-.86-.77a16.21,16.21,0,0,1,3.25-.79,20.54,20.54,0,0,1,3.5-.22,18.6,18.6,0,0,1,2.06.14A20.3,20.3,0,0,1,70.13,649.19Z"/><path class="cls-2" d="M77.68,662.81a24.46,24.46,0,0,1,8.26,3.54,27.5,27.5,0,0,1,2.46,1.81c.57.48.89.79.89.79a18.62,18.62,0,0,1-3.51.87,25.36,25.36,0,0,1-3.76.31,22.3,22.3,0,0,1-4.53-.44,23.87,23.87,0,0,1-2.32-.61c-.76-.25-1.49-.53-2.18-.83s-1.34-.61-2-.94-1.2-.66-1.73-1-1-.63-1.42-.92-.79-.56-1.08-.78c-.6-.45-.93-.74-.93-.74a18.13,18.13,0,0,1,3.47-1,22.82,22.82,0,0,1,3.76-.43A20.11,20.11,0,0,1,77.68,662.81Z"/><path class="cls-2" d="M84.56,676.17A22.37,22.37,0,0,1,93,680.68c.53.43,1,.85,1.38,1.23s.74.74,1,1l.63.71c.14.16.21.26.21.26s-.38.09-1.06.19a23.42,23.42,0,0,1-2.82.24,30.53,30.53,0,0,1-4-.14,27.4,27.4,0,0,1-4.75-.93,32.33,32.33,0,0,1-8.24-3.88l-.74-.49-.66-.46c-.41-.29-.76-.56-1-.78-.59-.45-.9-.73-.9-.73a10,10,0,0,1,1-.36,19.74,19.74,0,0,1,2.73-.67A20.4,20.4,0,0,1,84.56,676.17Z"/><path class="cls-2" d="M71.7,619.2c-.29.53-.6,1-.92,1.52s-.63.93-1,1.35a20.33,20.33,0,0,1-1.91,2.15,17.86,17.86,0,0,1-1.51,1.35c-.38.3-.61.46-.61.46s0-.34-.06-.9,0-1.38,0-2.32a15.22,15.22,0,0,1,1.92-6.43,12.46,12.46,0,0,1,1-1.46,13.13,13.13,0,0,1,1.14-1.2A14.72,14.72,0,0,1,72.06,612a13.61,13.61,0,0,1,1.72-.93c.43-.2.68-.3.68-.3s0,.27-.1.73a17.78,17.78,0,0,1-.45,1.89A26.57,26.57,0,0,1,71.7,619.2Z"/><path class="cls-2" d="M77.86,632.25a19.69,19.69,0,0,1-1.48,3.5,21.12,21.12,0,0,1-1.68,2.67,16.74,16.74,0,0,1-2,2.28s-.1-.35-.22-1a19.85,19.85,0,0,1-.34-2.52c0-.52-.07-1.08-.07-1.67a14.49,14.49,0,0,1,.07-1.84,19,19,0,0,1,.27-1.93,14.07,14.07,0,0,1,.52-1.95,15.38,15.38,0,0,1,1.7-3.37,11.5,11.5,0,0,1,1-1.31c.34-.4.68-.76,1-1.07a17.34,17.34,0,0,1,1.63-1.43c.42-.32.67-.48.67-.48s0,.31,0,.85c0,.27,0,.6,0,1s0,.81,0,1.28,0,1-.09,1.51l-.09.83c0,.29-.06.58-.1.88-.08.59-.18,1.21-.32,1.84S78.05,631.6,77.86,632.25Z"/><path class="cls-2" d="M85.92,645.18a20.31,20.31,0,0,1-1.28,4,19.57,19.57,0,0,1-1.64,3,16.16,16.16,0,0,1-2,2.58,27,27,0,0,1-.82-3.76,23.08,23.08,0,0,1,.14-8.17,16.71,16.71,0,0,1,1.39-3.92A19.63,19.63,0,0,1,83.45,636a16.58,16.58,0,0,1,2.19-2.42s.09.36.19,1,.27,1.51.37,2.59a34.2,34.2,0,0,1,.16,3.7A23.42,23.42,0,0,1,85.92,645.18Z"/><path class="cls-2" d="M94.81,658.59a19.54,19.54,0,0,1-3.22,7.67,16.52,16.52,0,0,1-2.3,2.69s-.11-.42-.26-1.14-.34-1.74-.49-3a29,29,0,0,1,.08-9A20.4,20.4,0,0,1,90,651.53a22.23,22.23,0,0,1,1.75-3.27,20.77,20.77,0,0,1,1.53-2.06c.4-.47.66-.72.66-.72l.08.29c.06.19.13.47.22.83.18.71.4,1.72.59,2.94a31.5,31.5,0,0,1,.39,4.2c0,.78,0,1.58-.06,2.39,0,.4-.06.81-.11,1.22S94.88,658.18,94.81,658.59Z"/><path class="cls-2" d="M103.35,673.45A19.33,19.33,0,0,1,99,681.38a18.22,18.22,0,0,1-2,1.91c-.51.42-.83.63-.83.63l0-.33c0-.21-.06-.52-.09-.91s0-.88-.08-1.42,0-1.17-.06-1.84a39.82,39.82,0,0,1,.92-9.72,26,26,0,0,1,3.62-8.24,21.86,21.86,0,0,1,1.68-2.22c.44-.51.71-.77.71-.77l.1.34c.06.23.15.55.24,1s.21.92.31,1.5.21,1.24.31,2A27.18,27.18,0,0,1,103.35,673.45Z"/><path class="cls-2" d="M100.56,716.68l-1.24-.24.09-.45a47.44,47.44,0,0,0,.73-12.26,56.89,56.89,0,0,0-.73-6.11c-.34-2-.8-4-1.34-6A85.86,85.86,0,0,0,94,680.05c-1.46-3.44-3.22-7-5.37-11-1.88-3.47-3.9-6.84-6.15-10.58l-2-3.28c-1.42-2.35-2.9-4.78-4.32-7.18a144.83,144.83,0,0,1-11-21.74l-.16-.42,1.18-.45.16.42a143.27,143.27,0,0,0,10.85,21.55c1.42,2.4,2.9,4.82,4.32,7.17l2,3.28c2.26,3.75,4.28,7.13,6.18,10.63,2.17,4,3.94,7.65,5.42,11.12a87.38,87.38,0,0,1,4.13,11.74c.56,2.07,1,4.12,1.37,6.11a59.67,59.67,0,0,1,.75,6.24,48.71,48.71,0,0,1-.76,12.6Z"/><polygon class="cls-3" points="974.92 672.14 975 672.07 975 672.22 974.92 672.14"/><polygon class="cls-4" points="303.95 757.27 303.95 597.42 251.53 597.42 251.53 580.41 179.51 580.41 179.51 597.42 148.5 597.42 148.5 757.27 303.95 757.27"/><rect class="cls-4" x="159.3" y="528.2" width="7.2" height="73.82"/><rect class="cls-4" x="193.11" y="565.01" width="49.42" height="26.81"/><rect class="cls-4" x="564.23" y="602.22" width="67.02" height="155.05"/><rect class="cls-4" x="580.43" y="550.8" width="42.41" height="60.02"/><rect class="cls-4" x="609.84" y="509.39" width="8.4" height="44.41"/><rect class="cls-4" x="106.34" y="627.23" width="49.62" height="130.04"/><polygon class="cls-4" points="528.54 757.27 528.54 589.58 499.57 560.61 499.57 515.4 467.45 515.4 467.45 490.92 467.45 447.77 452.42 447.77 452.42 757.27 528.54 757.27"/><polygon class="cls-4" points="493.41 615.48 529.02 615.48 529.02 607.02 552.63 607.02 552.63 637.99 567.23 637.99 567.23 757.27 478.59 757.27 493.41 615.48"/><polygon class="cls-4" points="468.91 757.27 428.67 757.27 428.67 506.92 467.45 506.92 468.91 757.27"/><rect class="cls-4" x="275.39" y="587.42" width="28.61" height="10"/><rect class="cls-4" x="299.2" y="613.42" width="41.81" height="143.85"/><rect class="cls-4" x="339.61" y="530" width="62.02" height="227.27"/><rect class="cls-4" x="392.83" y="563.01" width="41.61" height="194.26"/><rect class="cls-4" x="352.82" y="518.59" width="35.81" height="13"/><rect class="cls-4" x="342.41" y="486.18" width="3" height="45.41"/><polygon class="cls-4" points="556.36 757.27 556.36 597.42 503.94 597.42 503.94 580.41 431.92 580.41 431.92 597.42 400.91 597.42 400.91 757.27 556.36 757.27"/><rect class="cls-4" x="411.71" y="528.2" width="7.2" height="73.82"/><rect class="cls-4" x="445.52" y="565.01" width="49.42" height="26.81"/><rect class="cls-4" x="816.64" y="602.22" width="67.02" height="155.05"/><rect class="cls-4" x="832.85" y="550.8" width="42.41" height="60.02"/><rect class="cls-4" x="862.26" y="509.39" width="8.4" height="44.41"/><rect class="cls-4" x="358.75" y="627.23" width="49.62" height="130.04"/><polygon class="cls-4" points="780.95 757.27 780.95 589.58 751.98 560.61 751.98 515.4 719.86 515.4 719.86 490.92 719.86 447.77 704.84 447.77 704.84 757.27 780.95 757.27"/><polygon class="cls-4" points="745.82 615.48 781.43 615.48 781.43 607.02 805.04 607.02 805.04 637.99 819.64 637.99 819.64 757.27 731.01 757.27 745.82 615.48"/><polygon class="cls-4" points="721.32 757.27 681.08 757.27 681.08 506.92 719.86 506.92 721.32 757.27"/><rect class="cls-4" x="527.8" y="587.42" width="28.61" height="10"/><rect class="cls-4" x="551.61" y="613.42" width="41.81" height="143.85"/><rect class="cls-4" x="592.02" y="530" width="62.02" height="227.27"/><rect class="cls-4" x="645.24" y="563.01" width="41.61" height="194.26"/><rect class="cls-4" x="605.23" y="518.59" width="35.81" height="13"/><rect class="cls-4" x="594.82" y="486.18" width="3" height="45.41"/><polygon class="cls-4" points="423.74 639.91 423.74 480.06 371.32 480.06 371.32 463.06 299.3 463.06 299.3 480.06 268.29 480.06 268.29 639.91 423.74 639.91"/><rect class="cls-4" x="279.09" y="410.84" width="7.2" height="73.82"/><rect class="cls-4" x="312.91" y="447.65" width="49.42" height="26.81"/><rect class="cls-4" x="684.02" y="484.87" width="67.02" height="155.05"/><rect class="cls-4" x="700.23" y="433.45" width="42.41" height="60.02"/><rect class="cls-4" x="729.64" y="392.04" width="8.4" height="44.41"/><rect class="cls-4" x="226.13" y="509.87" width="49.62" height="130.04"/><polygon class="cls-4" points="648.33 639.91 648.33 472.23 619.37 443.26 619.37 398.05 587.25 398.05 587.25 373.57 587.25 330.42 572.22 330.42 572.22 639.91 648.33 639.91"/><polygon class="cls-4" points="613.2 498.12 648.81 498.12 648.81 489.67 672.42 489.67 672.42 520.63 687.02 520.63 687.02 639.91 598.39 639.91 613.2 498.12"/><polygon class="cls-4" points="588.7 639.91 548.46 639.91 548.46 389.56 587.25 389.56 588.7 639.91"/><rect class="cls-4" x="395.18" y="470.06" width="28.61" height="10"/><rect class="cls-4" x="418.99" y="496.07" width="41.81" height="143.85"/><rect class="cls-4" x="459.41" y="412.64" width="62.02" height="227.27"/><rect class="cls-4" x="512.62" y="445.65" width="41.61" height="194.26"/><rect class="cls-4" x="472.61" y="401.24" width="35.81" height="13"/><rect class="cls-4" x="462.21" y="368.83" width="3" height="45.41"/><path class="cls-5" d="M720.21,339.87a23.3,23.3,0,0,1-4.48,8.67,27.14,27.14,0,0,1-16.53,9.58,23.38,23.38,0,0,1-9.74-.43l.63-2.39a21,21,0,0,0,8.72.38,24.8,24.8,0,0,0,15-8.69,21.17,21.17,0,0,0,4-7.75Z"/><rect class="cls-5" x="636.28" y="256.9" width="11.91" height="2.47" transform="translate(94.3 681.05) rotate(-59.56)"/><rect class="cls-5" x="226.95" y="413.51" width="2.47" height="21.95" transform="translate(-236.58 297.01) rotate(-46.4)"/><rect class="cls-5" x="131.9" y="547.34" width="2.47" height="12.82" transform="translate(-436.14 536.45) rotate(-74.74)"/><rect class="cls-5" x="788.99" y="428.85" width="9.6" height="2.47" transform="translate(-101.19 548.81) rotate(-36.01)"/><path class="cls-5" d="M390.62,271.33a6.36,6.36,0,0,0-1.79,3.14,14.06,14.06,0,0,0-.39,4.16,19,19,0,0,0,.55,4.2,3.67,3.67,0,0,0,.74,1.4,5.34,5.34,0,0,0,1.38,1.12,16.91,16.91,0,0,0,1.9,1,21.25,21.25,0,0,0,2,.83,24.17,24.17,0,0,0,8.65,1.39c.36,0,.75,0,1.06-.05a3.49,3.49,0,0,0,.79-.13.94.94,0,0,0,.35-.16.31.31,0,0,0,.09-.14,1.48,1.48,0,0,0-.11-.93,2.35,2.35,0,0,0-.87-.94,3.65,3.65,0,0,0-3-.34,2.69,2.69,0,0,0-.67.31,4.19,4.19,0,0,0-.65.48,5.05,5.05,0,0,0-1,1.37,6.64,6.64,0,0,0-.69,3.58c.2,2.57,1.66,5.18,3.49,7.48a25,25,0,0,0,6.58,5.81l-2,3.23a28.52,28.52,0,0,1-7.58-6.69,24,24,0,0,1-2.78-4.32,14.52,14.52,0,0,1-1.52-5.21,10.43,10.43,0,0,1,1.1-5.62,8,8,0,0,1,4.54-4A7.34,7.34,0,0,1,404,282a7.15,7.15,0,0,1,3,1,6.19,6.19,0,0,1,2.27,2.55,5.54,5.54,0,0,1,.47,1.75,4.68,4.68,0,0,1-.2,1.94,4,4,0,0,1-1.21,1.82,4.54,4.54,0,0,1-1.74.92,7.28,7.28,0,0,1-1.55.28c-.47,0-.87,0-1.3.06a28.28,28.28,0,0,1-10-1.6c-.8-.29-1.59-.6-2.36-1a23.37,23.37,0,0,1-2.31-1.21,9.49,9.49,0,0,1-2.26-1.88,7.12,7.12,0,0,1-.91-1.33,8.49,8.49,0,0,1-.58-1.42,15.86,15.86,0,0,1-.51-2.66c-.09-.83-.17-1.67-.2-2.53a18,18,0,0,1,.52-5.26,10,10,0,0,1,2.9-5Z"/><path class="cls-5" d="M810.55,542a6.36,6.36,0,0,0,3.52.82,14.52,14.52,0,0,0,4.09-.8,19.36,19.36,0,0,0,3.88-1.72,3.63,3.63,0,0,0,1.13-1.11,5.78,5.78,0,0,0,.69-1.64,20.56,20.56,0,0,0,.41-2.1c.11-.73.17-1.46.22-2.19a24.27,24.27,0,0,0-1.13-8.69c-.11-.34-.23-.72-.35-1a3.22,3.22,0,0,0-.35-.72.86.86,0,0,0-.25-.29.24.24,0,0,0-.16,0,1.36,1.36,0,0,0-.85.37,2.26,2.26,0,0,0-.66,1.09,3.66,3.66,0,0,0,.51,2.95,2.85,2.85,0,0,0,.49.56,4.55,4.55,0,0,0,.65.48,4.94,4.94,0,0,0,1.6.59,6.57,6.57,0,0,0,3.63-.35c2.4-.93,4.49-3.07,6.18-5.47a25.07,25.07,0,0,0,3.71-8l3.65,1a28.62,28.62,0,0,1-4.27,9.16,24.54,24.54,0,0,1-3.35,3.9,14.39,14.39,0,0,1-4.57,2.93,10.42,10.42,0,0,1-5.7.53,8,8,0,0,1-5.14-3.21,7.25,7.25,0,0,1-1.18-2.93,7.06,7.06,0,0,1,.15-3.19,6.15,6.15,0,0,1,1.8-2.89,5.51,5.51,0,0,1,1.55-1,4.9,4.9,0,0,1,1.92-.35,4.09,4.09,0,0,1,2.09.64,4.67,4.67,0,0,1,1.37,1.41,7.3,7.3,0,0,1,.7,1.4c.18.45.29.83.43,1.24a28.19,28.19,0,0,1,1.1,5,27.73,27.73,0,0,1,.2,5.07c0,.85-.12,1.7-.25,2.54a20.91,20.91,0,0,1-.51,2.55,9.55,9.55,0,0,1-1.16,2.71,7,7,0,0,1-1,1.24,8,8,0,0,1-1.2,1,15.48,15.48,0,0,1-2.41,1.25c-.77.32-1.55.63-2.36.9a18.18,18.18,0,0,1-5.19,1,10.15,10.15,0,0,1-5.58-1.37Z"/><circle class="cls-4" cx="116.83" cy="479.64" r="15.87"/><circle class="cls-4" cx="149.01" cy="468.17" r="22.05" transform="translate(-340.55 426.68) rotate(-67.5)"/><circle class="cls-4" cx="173.7" cy="484.93" r="10.58"/><path class="cls-4" d="M118.61,495.51H173.7s-18.51-25.13-19.4-25.57-35.71,20.28-35.71,20.28Z"/><circle class="cls-4" cx="806.24" cy="377.38" r="15.87"/><circle class="cls-4" cx="838.42" cy="365.91" r="22.05" transform="translate(-13.17 700.03) rotate(-45)"/><circle class="cls-4" cx="863.11" cy="382.67" r="10.58" transform="translate(246.75 1097.86) rotate(-73.15)"/><path class="cls-4" d="M808,393.25h55.09s-18.51-25.13-19.4-25.57S808,388,808,388Z"/><circle class="cls-4" cx="295.38" cy="336.99" r="11.84"/><circle class="cls-4" cx="319.4" cy="328.44" r="16.45"/><circle class="cls-4" cx="337.82" cy="340.94" r="7.89"/><path class="cls-4" d="M296.71,348.84h41.11S324,330.09,323.34,329.76s-26.64,15.13-26.64,15.13Z"/><path class="cls-6" d="M132.31,755.08H100.93A93.16,93.16,0,0,1,81.22,743.8l4.67-4.14-6.74,2.52a73,73,0,0,1-13.29-13.95l14.25-10.72L62.3,722.82a74.64,74.64,0,0,1-9.75-29l2.18-2.53-2.42.33a68.56,68.56,0,0,1,.24-16.69s-.37,7.85,18.29,12.37l-2,4.86,8-3.64c1.38.23,2.85.45,4.39.64a61.39,61.39,0,0,1,33.47,15.92l-5.58,4.08,8.23-1.47a56,56,0,0,1,15,28.88l-6.56,1.8,7,1.16A53.48,53.48,0,0,1,132.31,755.08Z"/><path class="cls-7" d="M127.08,745.54l-5.15-1.5,4.88,5.32c-.32,3.73-.68,5.72-.68,5.72H95.23a69.57,69.57,0,0,1-5.79-21.26l6.26-1.1-6.61-2.81a110.58,110.58,0,0,1,.9-21.59l8.12-1.58-7.29-4c1.39-8.47,3.28-16.49,4.78-23.74l6-1.76L96.21,676c1.58-8.12,2.46-15.13,1.25-20.49a87.46,87.46,0,0,1,18.94,24.63L112,682.24h5.49a80.11,80.11,0,0,1,7.27,22.83c1,6.59,1.69,12.64,2.08,18.08l-7.55,1.59,7.78,2.14A169.53,169.53,0,0,1,127.08,745.54Z"/><path class="cls-8" d="M163,714l-7.87-1.7,7.5,8.69a159.46,159.46,0,0,1-2.79,20.1l-5,.44,4.31,2.67q-1.23,5.43-2.92,10.9H115.37A120.12,120.12,0,0,1,112,729.77l8.59-2.18L112,725.54a76.64,76.64,0,0,1,13.69-42.64l16.6,2.1-11.85-8.51c2-2.46,4-4.81,6.1-7A99.34,99.34,0,0,0,144.3,660h6L146.26,657c6-9.48,5.26-14.16,5.26-14.16a158.64,158.64,0,0,1,7.07,24.32l-9.91,3.07,10.93,1.91A190.2,190.2,0,0,1,163,714Z"/><path class="cls-9" d="M175,719.36l-5.17,0,4.93,2.49a94.89,94.89,0,0,1-4.46,20.43l-3.51-1.95,2.32,5.23a78.91,78.91,0,0,1-4.24,9.17l-2.44-.51.66.76H141.62a59.57,59.57,0,0,1,2-12.56l4.41.21-3.8-2.22A38.18,38.18,0,0,1,157,722.09l7.61,3.4-4.42-5.77c1.3-.89,2.62-1.71,3.93-2.48a49.38,49.38,0,0,0,5.08-3.4l2.89.88-1.53-2c4.23-3.65,4.56-6,4.56-6A79.84,79.84,0,0,1,175,719.36Z"/><path class="cls-2" d="M324,642.51a15.73,15.73,0,0,1,4.84,5.18,19.51,19.51,0,0,1,1.13,2.14c.24.54.35.87.35.87s-.3,0-.82-.13-1.25-.27-2.12-.53a21.36,21.36,0,0,1-2.91-1.14,19.45,19.45,0,0,1-3.2-1.88,30.13,30.13,0,0,1-4.86-4.52c-.28-.31-.52-.61-.74-.86l-.55-.66-.44-.59s.3,0,.82,0a15.84,15.84,0,0,1,2.16.08,17.46,17.46,0,0,1,3,.57A13.6,13.6,0,0,1,324,642.51Z"/><path class="cls-2" d="M323.79,657.78a23.75,23.75,0,0,1,4.86,6.36c.53,1,.91,1.8,1.18,2.4s.39.94.39.94a16.58,16.58,0,0,1-3.26-.74,19.1,19.1,0,0,1-3.19-1.37,17.89,17.89,0,0,1-3.44-2.43,24.78,24.78,0,0,1-4.85-6.4c-.26-.47-.48-.91-.67-1.3l-.48-1c-.25-.58-.37-.9-.37-.9s.33,0,.91.14a19.57,19.57,0,0,1,2.33.61,20,20,0,0,1,3.17,1.34A17.65,17.65,0,0,1,323.79,657.78Z"/><path class="cls-2" d="M323.47,674.23c.33.26.65.53,1,.8s.63.55.93.83.58.56.86.84.56.56.83.84c.52.55,1,1.1,1.49,1.62s.89,1,1.28,1.49l1.05,1.26c.32.38.57.72.8,1,.44.55.67.87.67.87s-.36.07-1,.13a17.49,17.49,0,0,1-2.65,0,17.78,17.78,0,0,1-1.79-.22,17,17,0,0,1-2-.5,15.18,15.18,0,0,1-4.31-2.17,17.33,17.33,0,0,1-2-1.71,22.45,22.45,0,0,1-1.74-1.93,27.35,27.35,0,0,1-2.57-3.89c-.32-.6-.61-1.17-.85-1.68s-.43-1-.59-1.33-.27-.68-.34-.88l-.11-.32s.37,0,1,.16a21.41,21.41,0,0,1,2.58.7,25,25,0,0,1,3.55,1.52A25.5,25.5,0,0,1,323.47,674.23Z"/><path class="cls-2" d="M327.18,691.82c.92.34,1.79.71,2.63,1.08s1.67.72,2.44,1.08,1.54.67,2.22,1,1.36.61,1.95.9c1.21.55,2.17,1,2.86,1.38s1.06.57,1.06.57a10.58,10.58,0,0,1-.93.57,20.44,20.44,0,0,1-2.61,1.21,17.6,17.6,0,0,1-4.05,1,15.52,15.52,0,0,1-2.5.12,15.71,15.71,0,0,1-2.78-.36l-.73-.18L326,700c-.48-.16-.95-.35-1.42-.55a16.72,16.72,0,0,1-2.72-1.48,24.39,24.39,0,0,1-4.49-3.79,29,29,0,0,1-2.75-3.43c-.31-.45-.55-.82-.7-1.07l-.23-.38s.4,0,1.1-.06a22.85,22.85,0,0,1,3,.18c.61.07,1.29.17,2,.31.36.06.72.14,1.1.22l1.18.27c.8.2,1.62.44,2.47.71S326.3,691.48,327.18,691.82Z"/><path class="cls-2" d="M337.32,706.79a36,36,0,0,1,10.3,1.3,29.65,29.65,0,0,1,3.25,1.11c.39.15.69.29.89.39l.32.15s-.34.27-1,.67a30.52,30.52,0,0,1-2.7,1.53,31.34,31.34,0,0,1-4.09,1.68,22.44,22.44,0,0,1-2.48.67c-.44.1-.88.18-1.33.26s-.93.12-1.4.16-.95.07-1.42.08-1,0-1.43,0-.93-.06-1.39-.11-.93-.13-1.38-.21-.9-.17-1.34-.27-.88-.23-1.3-.36-.83-.25-1.24-.4-.8-.3-1.18-.46l-1.08-.46-1-.5-.88-.47c-.27-.15-.52-.29-.74-.44-.92-.57-1.44-1-1.44-1s.38-.22,1.07-.54a24.36,24.36,0,0,1,3-1.12A36.86,36.86,0,0,1,337.32,706.79Z"/><path class="cls-2" d="M338.67,645.18a15.5,15.5,0,0,1-5.55,4.44,14.12,14.12,0,0,1-2,.84c-.51.17-.81.24-.81.24s.09-.34.26-.91.45-1.38.82-2.34a33.47,33.47,0,0,1,3.5-6.75,19.7,19.7,0,0,1,1.26-1.67c.43-.52.84-1,1.27-1.46s.86-.86,1.26-1.24.8-.72,1.16-1a20.7,20.7,0,0,1,1.84-1.36,8.38,8.38,0,0,1,.74-.44s0,.44-.05,1.19c0,.37-.06.82-.12,1.32s-.16,1.06-.27,1.65a21.56,21.56,0,0,1-1.15,3.79c-.13.32-.27.65-.43,1s-.32.64-.5,1-.36.63-.56.93S338.89,644.89,338.67,645.18Z"/><path class="cls-2" d="M339.56,662.2a21.4,21.4,0,0,1-6.23,4.17,18.83,18.83,0,0,1-3.11,1.11,20.31,20.31,0,0,1,1.24-3.42,23,23,0,0,1,4.44-6.58,20.43,20.43,0,0,1,3.24-2.68c.53-.36,1.06-.68,1.57-1s1-.54,1.45-.75a18.3,18.3,0,0,1,3.13-1.19s-.09.4-.3,1.06a23.35,23.35,0,0,1-1,2.63A21.52,21.52,0,0,1,339.56,662.2Z"/><path class="cls-2" d="M341.08,676.59a34.13,34.13,0,0,1-3,2.93c-1,.86-2,1.64-2.8,2.27s-1.58,1.14-2.11,1.47-.85.51-.85.51,0-.4,0-1.07c0-.34.07-.75.14-1.21,0-.23.07-.47.11-.73s.12-.52.18-.79.14-.56.22-.85.19-.59.3-.89.22-.6.35-.91.28-.62.43-.93.32-.62.5-.93.38-.62.58-.93a15.2,15.2,0,0,1,1.39-1.77,16.66,16.66,0,0,1,1.62-1.54c.28-.23.56-.44.84-.65s.57-.4.85-.58a18.22,18.22,0,0,1,1.66-1c.54-.28,1.06-.52,1.55-.73a19.94,19.94,0,0,1,2.41-.86c.59-.17.95-.25.95-.25l-.08.25c-.05.15-.12.38-.22.67-.21.58-.52,1.36-1,2.28-.21.44-.46.93-.74,1.44s-.59,1-.93,1.54A26.61,26.61,0,0,1,341.08,676.59Z"/><path class="cls-2" d="M345.72,687l-.21.52c-.06.18-.13.35-.19.52-.14.35-.27.69-.42,1-.29.7-.58,1.37-.85,2s-.58,1.27-.87,1.86-.56,1.14-.84,1.65c-.53,1-1,1.83-1.4,2.4s-.6.87-.6.87-.18-.39-.45-1.07a17.65,17.65,0,0,1-.82-2.87c-.11-.59-.2-1.24-.26-1.9a18.42,18.42,0,0,1,0-2.1,16.3,16.3,0,0,1,.38-2.16q.17-.54.36-1.08c.14-.35.28-.69.46-1s.37-.68.57-1a9.36,9.36,0,0,1,.63-.92,15.64,15.64,0,0,1,1.41-1.58,17.3,17.3,0,0,1,1.51-1.29c.49-.38,1-.71,1.45-1a20.52,20.52,0,0,1,2.35-1.3c.59-.28.94-.41.94-.41a5.06,5.06,0,0,1-.16.69c-.07.23-.13.49-.23.79l-.16.5c-.06.17-.11.35-.18.54l-.45,1.25-.28.7c-.09.24-.18.5-.29.76l-.16.4-.16.42c-.1.28-.22.57-.34.87l-.19.46c0,.16-.11.32-.17.49S345.86,686.63,345.72,687Z"/><path class="cls-2" d="M355.42,696.63a21.72,21.72,0,0,1-.08,2.7,21.21,21.21,0,0,1-.32,2.51c-.14.79-.32,1.54-.51,2.25s-.41,1.34-.63,1.93a22.63,22.63,0,0,1-1.23,2.74c-.34.64-.57,1-.57,1l-.16-.29c-.11-.2-.25-.49-.44-.85-.36-.72-.85-1.77-1.36-3a23.91,23.91,0,0,1-1.93-9.58,17.08,17.08,0,0,1,.32-2.55,8.84,8.84,0,0,1,.29-1.18q.17-.57.36-1.11a17.34,17.34,0,0,1,1.82-3.66c.31-.5.63-1,.91-1.34s.57-.72.8-1c.46-.54.75-.83.75-.83s0,.07,0,.21,0,.15,0,.25.06.23.09.37.14.61.21,1,.21.88.31,1.41c0,.26.12.56.18.85s.12.62.18.94l.05.25a2.38,2.38,0,0,0,.05.26c0,.17.07.35.1.53.07.35.13.72.19,1.1.14.78.26,1.6.34,2.45A25.61,25.61,0,0,1,355.42,696.63Z"/><path class="cls-2" d="M367.75,739.77l-.22-.87a60.91,60.91,0,0,0-10.93-22.37,61.86,61.86,0,0,0-4.08-4.75c-1.26-1.34-2.66-2.75-4.41-4.46l-1-1c-1.13-1.1-2.3-2.24-3.43-3.37-1.66-1.67-3.06-3.17-4.28-4.58a47.87,47.87,0,0,1-3.77-5l-.47-.74c-.13-.2-.26-.4-.38-.63L334,690.7c-.17-.31-.31-.61-.46-.9l-.24-.5c-.16-.31-.3-.63-.43-.93l-.21-.49a43.9,43.9,0,0,1-3-12.13,103,103,0,0,1-.54-12.5c0-1.48,0-3,0-4.45,0-2.65.07-5.39,0-8.08v-.9l2.18,0v.89c.05,2.73,0,5.48,0,8.14,0,1.49,0,3,0,4.44a102.33,102.33,0,0,0,.51,12.24A41.9,41.9,0,0,0,334.66,687l.22.49c.12.29.24.57.37.84s.17.33.25.5.27.55.42.83l.72,1.28c.1.18.2.34.31.51l.47.73a43.38,43.38,0,0,0,3.59,4.74c1.19,1.38,2.56,2.84,4.17,4.47,1.12,1.12,2.29,2.26,3.42,3.36l1,1c1.77,1.72,3.19,3.16,4.47,4.52,1.54,1.62,3,3.28,4.23,4.91a63.26,63.26,0,0,1,11.31,23.18l.22.86Z"/><path class="cls-2" d="M667,682.79a19.21,19.21,0,0,0-4.55,0,25.31,25.31,0,0,0-3.89.76,24.74,24.74,0,0,0-3.72,1.34,18.59,18.59,0,0,0,3,1.87,21.55,21.55,0,0,0,12.2,2.32,29.27,29.27,0,0,0,3.79-.58c1.09-.26,2-.5,2.61-.69s1-.34,1-.34a18.39,18.39,0,0,0-2.88-2.05,20.79,20.79,0,0,0-3.3-1.59A18.32,18.32,0,0,0,667,682.79Z"/><path class="cls-2" d="M654.26,696.21a26,26,0,0,0-9.3,1.31,27.13,27.13,0,0,0-4.05,1.61,20.42,20.42,0,0,0,3.39,2,23.69,23.69,0,0,0,8.65,2.22,25.62,25.62,0,0,0,5-.28,33.71,33.71,0,0,0,4.21-.94,30.24,30.24,0,0,0,2.91-1c.69-.27,1.08-.45,1.08-.45a20.16,20.16,0,0,0-3.34-2A22.3,22.3,0,0,0,654.26,696.21Z"/><path class="cls-2" d="M641.82,710.2a31,31,0,0,0-10.23,1.47c-1.36.41-2.47.84-3.25,1.16s-1.22.54-1.22.54a21.79,21.79,0,0,0,3.68,2.21,24.26,24.26,0,0,0,9.49,2.48,25.42,25.42,0,0,0,5.58-.38,32.72,32.72,0,0,0,4.71-1.17,31,31,0,0,0,4.45-1.78A25.72,25.72,0,0,0,641.82,710.2Z"/><path class="cls-2" d="M629,724.24a32,32,0,0,0-6.08.19,43.4,43.4,0,0,0-5.17,1c-1.49.38-2.74.74-3.6,1s-1.35.49-1.35.49a22.54,22.54,0,0,0,3.81,2.67,25,25,0,0,0,10.21,3.25,26.08,26.08,0,0,0,3.18.06,29.41,29.41,0,0,0,3-.3c1-.14,1.94-.32,2.82-.53s1.71-.44,2.48-.68,1.48-.48,2.09-.71,1.15-.45,1.58-.63c.88-.38,1.38-.63,1.38-.63a24.22,24.22,0,0,0-4-2.38,30.33,30.33,0,0,0-4.53-1.74A27.94,27.94,0,0,0,629,724.24Z"/><path class="cls-2" d="M615,737.76c-1.15-.16-2.28-.26-3.38-.31l-1.64,0c-.54,0-1.08,0-1.6,0-1,0-2.06.1-3,.19l-1.39.15-1.29.16c-1.66.22-3,.5-4,.69s-1.51.35-1.51.35.33.38,1,1a27.89,27.89,0,0,0,2.8,2.35,26.05,26.05,0,0,0,4.53,2.68,24.63,24.63,0,0,0,6.16,1.93,28.6,28.6,0,0,0,6.83.27c1.08-.09,2.14-.23,3.15-.4q.76-.12,1.47-.27c.48-.1.93-.21,1.36-.32a40.25,40.25,0,0,0,4.22-1.29c1-.37,1.58-.64,1.58-.64s-.38-.33-1.1-.85a28.87,28.87,0,0,0-3.1-1.95,33.37,33.37,0,0,0-4.84-2.16c-.93-.33-1.92-.64-3-.9S616.16,737.93,615,737.76Z"/><path class="cls-2" d="M652,673.51a19,19,0,0,0,.27,4.55,21,21,0,0,0,1,3.61,17.05,17.05,0,0,0,1.51,3.23,26,26,0,0,0,1.73-3.6,28.68,28.68,0,0,0,2.13-8.48,19.11,19.11,0,0,0,.05-2.38,21.67,21.67,0,0,0-.16-2.19,25.53,25.53,0,0,0-.74-3.69,19,19,0,0,0-1.28-3.38,29,29,0,0,0-2.1,3.7A24.18,24.18,0,0,0,652,673.51Z"/><path class="cls-2" d="M637.41,686.9a23.18,23.18,0,0,0,1.73,8.76,20.41,20.41,0,0,0,1.77,3.47,31.23,31.23,0,0,0,3.57-13.24A23.67,23.67,0,0,0,644,681a26.58,26.58,0,0,0-1.1-3.93,20.89,20.89,0,0,0-1.64-3.54s-.25.39-.61,1.1a27.17,27.17,0,0,0-1.33,2.95A26.68,26.68,0,0,0,637.41,686.9Z"/><path class="cls-2" d="M623.42,700.17a26.39,26.39,0,0,0,1.86,9.42,23.43,23.43,0,0,0,1.84,3.78s.25-.42.62-1.15.84-1.81,1.33-3.11a29,29,0,0,0,1.89-10,25.33,25.33,0,0,0-1.93-9.43,21.82,21.82,0,0,0-1.9-3.76s-.24.42-.6,1.17-.82,1.82-1.29,3.13A29.68,29.68,0,0,0,623.42,700.17Z"/><path class="cls-2" d="M609.53,712.6a29.15,29.15,0,0,0,.42,5.58,32.92,32.92,0,0,0,1.1,4.54,26,26,0,0,0,1.71,4.19s.29-.43.73-1.19a29.59,29.59,0,0,0,1.63-3.23c.3-.68.59-1.43.87-2.22s.54-1.64.76-2.54a25,25,0,0,0,.8-5.74,26.19,26.19,0,0,0-1.92-10.08,27.81,27.81,0,0,0-1.39-2.95c-.38-.69-.63-1.07-.63-1.07l-.17.31c-.11.2-.26.5-.45.88a34.06,34.06,0,0,0-1.35,3.22,35.59,35.59,0,0,0-1.38,4.67,29.92,29.92,0,0,0-.73,5.63Z"/><path class="cls-2" d="M595.32,723.46c-.06.52-.1,1-.12,1.55s-.05,1-.06,1.49c0,1,0,2,.09,2.87s.17,1.81.29,2.64.25,1.59.39,2.3a34.81,34.81,0,0,0,.87,3.39c.25.81.44,1.27.44,1.27s.36-.42.93-1.17a28.64,28.64,0,0,0,2.09-3.24,27.53,27.53,0,0,0,3.52-10.84A26.13,26.13,0,0,0,602.32,713a28.86,28.86,0,0,0-1.33-3.21c-.37-.75-.62-1.17-.62-1.17s-.27.42-.68,1.18c-.2.38-.44.85-.69,1.39s-.55,1.13-.83,1.81-.58,1.41-.87,2.2-.56,1.62-.82,2.51A34.41,34.41,0,0,0,595.32,723.46Z"/><path class="cls-2" d="M561.89,755.71l.56-.12a84.92,84.92,0,0,0,14-4.41,108.88,108.88,0,0,0,13.21-6.5A129.42,129.42,0,0,0,602,736.57c3.77-2.77,7.64-5.88,11.5-9.24,3.26-2.83,6.7-6,10.83-10.06,3.07-3,6.37-6.35,10.39-10.52,1.84-1.9,3.66-3.81,5.49-5.72,4.91-5.14,10-10.45,15.14-15.55l.41-.41-1.14-1.15-.42.41c-5.16,5.1-10.24,10.42-15.16,15.56q-2.74,2.88-5.49,5.73c-4,4.16-7.3,7.49-10.36,10.49-4.11,4-7.52,7.19-10.75,10-3.84,3.33-7.67,6.42-11.41,9.16a128.77,128.77,0,0,1-12.16,8,107.76,107.76,0,0,1-13,6.4A83.24,83.24,0,0,1,562.11,754l-.57.12Z"/><path class="cls-10" d="M480.4,740.81c0,14.64,23.92,19.59,53.42,19.59s53.43-4.95,53.43-19.59c0-.49,0-1-.08-1.49-5.36,2.07-12.17,4.44-9.8,2.74,2.66-1.92,6.71-5.4,8.7-7.13a24.7,24.7,0,0,0-2.77-5.15l-5.26,6.4,3.14-9.16A39.15,39.15,0,0,0,578,723.7c-3.44,5.39-8.8,13.76-8.6,13.24s3-9.56,5-16.3q-2-1.56-4.29-3l-2.44,5.59,1.37-6.25c-.91-.55-1.85-1.08-2.81-1.6l-6.62,14.07,2.61-16a68.25,68.25,0,0,0-9-3.29l-2.06,15.31-3-16.57a71.23,71.23,0,0,0-9.85-1.34v15.14L534,707.39h-.19a70.3,70.3,0,0,0-8.4.51c.39,4.51.79,9.52.63,9.25s-1.4-4.61-2.65-9a70.47,70.47,0,0,0-7.88,1.66l4.11,22.06-7.81-20.95q-3.09,1-6,2.29l5.42,11.39-8-10.17c-1.77.87-3.47,1.81-5.08,2.8l1.7,3.84-3-3c-1.09.71-2.15,1.45-3.15,2.21,2.52,5.48,6.29,13.75,6,13.61s-6.09-6.93-9.36-10.82a41.36,41.36,0,0,0-3.49,3.53l6.9,7.29-9-4.67C482,733.1,480.4,737.09,480.4,740.81Z"/><path class="cls-11" d="M557.82,748.34c0,9,14.73,12.06,32.89,12.06s32.9-3,32.9-12.06c0-.31,0-.61-.05-.92-3.3,1.27-7.49,2.73-6,1.68,1.64-1.18,4.13-3.32,5.36-4.39a15.89,15.89,0,0,0-1.71-3.17l-3.24,3.94,1.94-5.64a24.8,24.8,0,0,0-2-2c-2.12,3.32-5.41,8.47-5.29,8.15s1.81-5.89,3.07-10c-.82-.63-1.7-1.25-2.63-1.84l-1.51,3.44.85-3.84c-.56-.34-1.14-.67-1.73-1l-4.08,8.67,1.61-9.88a42.69,42.69,0,0,0-5.54-2l-1.27,9.43-1.85-10.21a42.32,42.32,0,0,0-6.06-.82v9.32l-2.66-9.41h-.12a41.86,41.86,0,0,0-5.17.31c.24,2.78.49,5.86.39,5.69s-.87-2.83-1.63-5.52a41.82,41.82,0,0,0-4.86,1L582,742.84l-4.81-12.9c-1.26.42-2.49.9-3.66,1.41l3.33,7-4.94-6.27c-1.09.54-2.14,1.12-3.13,1.73l1,2.36L568,734.33c-.68.44-1.33.9-2,1.36,1.56,3.38,3.88,8.47,3.68,8.39s-3.75-4.27-5.77-6.67a27.23,27.23,0,0,0-2.14,2.17l4.25,4.5-5.54-2.88A12.51,12.51,0,0,0,557.82,748.34Z"/><path class="cls-11" d="M483.82,748c0,5.29,8.65,7.08,19.32,7.08s19.32-1.79,19.32-7.08a4.89,4.89,0,0,0,0-.54c-1.94.74-4.4,1.6-3.54,1s2.42-2,3.14-2.58a9,9,0,0,0-1-1.87l-1.9,2.32,1.14-3.31a14.31,14.31,0,0,0-1.15-1.2c-1.25,1.95-3.18,5-3.11,4.78s1.06-3.45,1.8-5.89c-.48-.37-1-.74-1.54-1.08l-.89,2,.5-2.26c-.33-.2-.67-.39-1-.58l-2.39,5.09.94-5.8a24.47,24.47,0,0,0-3.25-1.19l-.74,5.54-1.09-6a25.64,25.64,0,0,0-3.56-.49v5.48L503.21,736h-.07a25.33,25.33,0,0,0-3,.18c.14,1.64.29,3.44.23,3.35s-.51-1.67-1-3.25a25.67,25.67,0,0,0-2.85.6l1.49,8-2.83-7.58c-.74.25-1.46.53-2.15.83l2,4.12-2.9-3.68c-.65.32-1.26.66-1.84,1l.61,1.39-1.08-1.09c-.4.26-.78.53-1.15.8.92,2,2.28,5,2.16,4.92s-2.2-2.5-3.38-3.91a16.72,16.72,0,0,0-1.26,1.27l2.49,2.64-3.25-1.69A7.39,7.39,0,0,0,483.82,748Z"/><path class="cls-12" d="M376.08,750.1H302.67c-1.35-1.64-2.69-3.33-3.53-4.4a32.24,32.24,0,0,1,2-5.51L305,747l-2.29-9.8a41.52,41.52,0,0,1,2.31-3.56c2.51,5.77,6.42,14.73,6.28,14.17s-2.16-10.23-3.65-17.44q1.47-1.67,3.12-3.2l1.79,6-1-6.69c.67-.59,1.35-1.15,2-1.7l4.83,15.05-1.9-17.15a40.4,40.4,0,0,1,6.55-3.52l1.5,16.38,2.19-17.73a36,36,0,0,1,7.18-1.43v16.2l3.15-16.36h.14a35.44,35.44,0,0,1,6.12.54c-.29,4.83-.58,10.19-.46,9.9s1-4.93,1.93-9.61a37.56,37.56,0,0,1,5.75,1.78l-3,23.6,5.7-22.41a41,41,0,0,1,4.34,2.45l-3.95,12.18,5.85-10.89a47.16,47.16,0,0,1,3.71,3L362,730.89l2.19-3.23c.8.77,1.57,1.56,2.3,2.36-1.84,5.87-4.58,14.72-4.35,14.57s4.43-7.41,6.82-11.57a40.24,40.24,0,0,1,2.55,3.77l-5,7.8,6.56-5A29.61,29.61,0,0,1,376.08,750.1Z"/><path class="cls-13" d="M885.58,750.45c3.52-2.73,3.9-7.82,3.9-12.27a25.89,25.89,0,0,0-1.13-9.08c-2.45-6.6-9.43-10.16-14.15-15.37a26.18,26.18,0,0,1-1.63-33.25,2.31,2.31,0,0,0-2.35-3.63c-8.51,1.87-22.3,5.27-29.5,9.11-5.61,3-11.18,7.06-13.19,13.08-.79,2.35-1,4.89-1.94,7.18-3.7,8.87-16.75,10.48-20.91,19.15-3.72,7.73,1.46,16.62,2.11,25.18Z"/><path class="cls-14" d="M823.67,747.91c-2.85-10.9,21-10.12,20-25.43s10.89-23.09,10.89-23.09-8.16,10.59-3.88,22.83-7.53,18.94-4.67,25.69S823.67,747.91,823.67,747.91Z"/><path class="cls-15" d="M913,751.18c24.55-9.61,22-23.1,16.27-38.27s6.34-20.69,8.59-33.59c2.19-12.55-12.86-28.74-9-43.81,2.23-8.73,3.28-14.68,2.92-19.3a3.7,3.7,0,0,0-7.19-.94A13.57,13.57,0,0,1,919.4,622c-9.82,7-11.81,5.92-11.23,20.15s-15,9.74-23.16,26.11-1.4,21.1-4.38,31.64-21,17.09-21.41,33.47S894.67,758.34,913,751.18Z"/><path class="cls-14" d="M878.68,750.53a.56.56,0,0,1-.5-.57c.5-23.38,23.37-20.09,20.17-44.22-1.73-13.1,3-20.56,7.8-24.65a.56.56,0,0,1,.79.79c-2.5,3.06-4.38,7.63-3,14.16,3.06,14.77,7,24.31-.57,35.33-6.23,9-1.7,17.89.14,20.79a.56.56,0,0,1-.54.86Z"/><polygon class="cls-11" points="881.02 757.56 881.02 640.27 883.09 645.72 887.76 757.56 881.02 757.56"/><path class="cls-11" d="M900.91,637.15c-6.54,8.62-19.53,9.78-19.53,9.78s-2.4-12.82,4.14-21.44,19.53-9.78,19.53-9.78S907.44,628.53,900.91,637.15Z"/><path class="cls-16" d="M892.48,756.41c-1-28.74,7.87-89.44,7.87-89.44l.95,4.3s-7.76,58.28-3.77,85.88C897.71,758.41,892.53,757.68,892.48,756.41Z"/><path class="cls-16" d="M915.57,666.82c-5.84,5.73-15.68,5.17-15.68,5.17s-.39-9.85,5.45-15.59S921,651.23,921,651.23,921.4,661.08,915.57,666.82Z"/><path class="cls-16" d="M878,756.26c1.14-31.68-8.67-98.62-8.67-98.62l-1.06,4.75s8.57,64.26,4.16,94.69C872.26,758.47,878,757.67,878,756.26Z"/><path class="cls-16" d="M852.57,657.48c6.44,6.32,17.29,5.7,17.29,5.7s.43-10.86-6-17.19-17.3-5.7-17.3-5.7S846.14,651.15,852.57,657.48Z"/><path class="cls-11" d="M873.7,754.44c.2-7.89-8.86-55.48-8.86-55.48l-2.59.23s6.73,29.19,5.79,56C868,756.66,873.66,755.87,873.7,754.44Z"/><path class="cls-11" d="M838.32,698.49c11.61,6.48,26.8,1.38,26.8,1.38s-3.62-15.62-15.23-22.1-26.81-1.38-26.81-1.38S826.71,692,838.32,698.49Z"/><path class="cls-17" d="M946.86,750.48c4.76,0,8.62,2.71,8.62,6.06h0c0,3.35-3.86,6.07-8.62,6.07H33.62c-4.76,0-8.62-2.72-8.62-6.07h0c0-3.35,3.86-6.06,8.62-6.06Z"/><rect class="cls-18" x="521.34" y="445.94" width="258.94" height="173.68" rx="21.74" transform="translate(-167.67 726.43) rotate(-52.62)"/><path class="cls-19" d="M683.11,423.37l-14.34,18.78-16.44-12.57A11.8,11.8,0,0,1,650.12,413h0a11.8,11.8,0,0,1,16.55-2.22Z"/><path class="cls-20" d="M683.11,423.37l-14.34,18.78,16.44,12.56a11.81,11.81,0,0,0,16.56-2.22h0a11.8,11.8,0,0,0-2.22-16.55Z"/><path class="cls-19" d="M662.32,450.59,648,469.36,631.53,456.8a11.82,11.82,0,0,1-2.21-16.56h0A11.82,11.82,0,0,1,645.88,438Z"/><path class="cls-20" d="M662.32,450.59,648,469.36l16.44,12.56A11.81,11.81,0,0,0,681,479.71h0a11.82,11.82,0,0,0-2.21-16.56Z"/><path class="cls-19" d="M748,472.92l-14.34,18.77-16.44-12.56A11.82,11.82,0,0,1,715,462.57h0a11.81,11.81,0,0,1,16.55-2.21Z"/><path class="cls-20" d="M748,472.92l-14.34,18.77,16.44,12.56A11.82,11.82,0,0,0,766.61,502h0a11.81,11.81,0,0,0-2.22-16.56Z"/><path class="cls-19" d="M727.16,500.14l-14.35,18.77-16.44-12.56a11.82,11.82,0,0,1-2.21-16.56h0a11.81,11.81,0,0,1,16.56-2.22Z"/><path class="cls-20" d="M727.16,500.14l-14.35,18.77,16.44,12.56a11.82,11.82,0,0,0,16.56-2.21h0a11.82,11.82,0,0,0-2.21-16.56Z"/><path class="cls-19" d="M634,487.63,619.67,506.4l-16.44-12.56A11.8,11.8,0,0,1,601,477.29h0a11.8,11.8,0,0,1,16.55-2.22Z"/><path class="cls-20" d="M634,487.63,619.67,506.4,636.11,519a11.81,11.81,0,0,0,16.56-2.22h0a11.81,11.81,0,0,0-2.22-16.56Z"/><path class="cls-19" d="M613.22,514.85l-14.35,18.77-16.44-12.56a11.82,11.82,0,0,1-2.21-16.56h0a11.82,11.82,0,0,1,16.56-2.21Z"/><path class="cls-20" d="M613.22,514.85l-14.35,18.77,16.44,12.56A11.82,11.82,0,0,0,631.87,544h0a11.82,11.82,0,0,0-2.21-16.56Z"/><path class="cls-19" d="M698.85,537.18,684.51,556l-16.44-12.56a11.82,11.82,0,0,1-2.21-16.56h0a11.81,11.81,0,0,1,16.55-2.21Z"/><path class="cls-20" d="M698.85,537.18,684.51,556,701,568.51a11.82,11.82,0,0,0,16.56-2.21h0a11.81,11.81,0,0,0-2.22-16.56Z"/><path class="cls-19" d="M678.06,564.39l-14.35,18.78L647.27,570.6a11.81,11.81,0,0,1-2.21-16.55h0a11.81,11.81,0,0,1,16.56-2.22Z"/><path class="cls-20" d="M678.06,564.39l-14.35,18.78,16.44,12.56a11.81,11.81,0,0,0,16.56-2.22h0A11.81,11.81,0,0,0,694.5,577Z"/><path class="cls-19" d="M584.91,551.89l-14.34,18.77L554.13,558.1a11.81,11.81,0,0,1-2.21-16.56h0a11.81,11.81,0,0,1,16.55-2.21Z"/><path class="cls-20" d="M584.91,551.89l-14.34,18.77L587,583.22A11.81,11.81,0,0,0,603.57,581h0a11.81,11.81,0,0,0-2.22-16.56Z"/><path class="cls-19" d="M564.12,579.11l-14.35,18.77-16.44-12.56a11.82,11.82,0,0,1-2.21-16.56h0a11.81,11.81,0,0,1,16.56-2.21Z"/><path class="cls-20" d="M564.12,579.11l-14.35,18.77,16.44,12.56a11.82,11.82,0,0,0,16.56-2.21h0a11.82,11.82,0,0,0-2.21-16.56Z"/><path class="cls-19" d="M649.75,601.44l-14.34,18.77L619,607.65a11.82,11.82,0,0,1-2.21-16.56h0a11.8,11.8,0,0,1,16.55-2.22Z"/><path class="cls-20" d="M649.75,601.44l-14.34,18.77,16.44,12.56a11.82,11.82,0,0,0,16.56-2.21h0A11.81,11.81,0,0,0,666.19,614Z"/><path class="cls-19" d="M629,628.65l-14.35,18.77-16.44-12.56A11.82,11.82,0,0,1,596,618.3h0a11.82,11.82,0,0,1,16.56-2.21Z"/><path class="cls-20" d="M629,628.65l-14.35,18.77L631.05,660a11.81,11.81,0,0,0,16.56-2.22h0a11.82,11.82,0,0,0-2.21-16.56Z"/><path class="cls-3" d="M574.71,487.32h0a10.53,10.53,0,0,1-10.53-10.53V445.45H417v31.34a10.53,10.53,0,0,1-10.53,10.53h0a27.77,27.77,0,0,0-27.77,27.77V722.18A27.77,27.77,0,0,0,406.46,750H574.71a27.77,27.77,0,0,0,27.77-27.77V515.09A27.77,27.77,0,0,0,574.71,487.32Z"/><rect class="cls-21" x="378.69" y="519.69" width="223.78" height="179.41"/><rect class="cls-18" x="397.32" y="398.35" width="186.53" height="70.73"/><rect class="cls-22" x="419.13" y="398.35" width="6.47" height="70.73"/><rect class="cls-22" x="446.85" y="398.35" width="6.47" height="70.73"/><rect class="cls-22" x="474.56" y="398.35" width="6.47" height="70.73"/><rect class="cls-22" x="502.28" y="398.35" width="6.47" height="70.73"/><rect class="cls-22" x="529.99" y="398.35" width="6.47" height="70.73"/><rect class="cls-22" x="557.71" y="398.35" width="6.47" height="70.73"/><path class="cls-22" d="M574.71,487.32a10.53,10.53,0,0,1-10.53-10.53v-7.71h19.67V398.35H528.63v70.73H509v7.71a10.53,10.53,0,0,0,10.53,10.53,27.77,27.77,0,0,1,27.77,27.77V722.18A27.77,27.77,0,0,1,519.49,750h55.22a27.77,27.77,0,0,0,27.77-27.77V515.09A27.77,27.77,0,0,0,574.71,487.32Z"/><path class="cls-22" d="M406.61,487.32a10.54,10.54,0,0,0,10.53-10.53v-7.71H397.46V398.35h55.22v70.73h19.68v7.71a10.54,10.54,0,0,1-10.54,10.53,27.76,27.76,0,0,0-27.76,27.77V722.18A27.76,27.76,0,0,0,461.82,750H406.61a27.77,27.77,0,0,1-27.77-27.77V515.09A27.77,27.77,0,0,1,406.61,487.32Z"/><path class="cls-9" d="M379.26,561.13h0c-3.19,0-5.78-3.39-5.78-7.57V531H292.67v22.53c0,4.18-2.59,7.57-5.79,7.57h0c-8.42,0-15.25,8.94-15.25,20V730c0,11,6.83,20,15.25,20h92.38c8.43,0,15.25-8.94,15.25-20V581.1C394.51,570.07,387.69,561.13,379.26,561.13Z"/><rect class="cls-16" x="271.63" y="584.4" width="122.88" height="128.98"/><rect class="cls-18" x="281.86" y="497.17" width="102.42" height="50.85" rx="9.53"/><rect class="cls-23" x="293.84" y="497.17" width="3.55" height="50.85"/><rect class="cls-23" x="309.06" y="497.17" width="3.55" height="50.85"/><rect class="cls-23" x="324.28" y="497.17" width="3.55" height="50.85"/><rect class="cls-23" x="339.49" y="497.17" width="3.55" height="50.85"/><rect class="cls-23" x="354.71" y="497.17" width="3.55" height="50.85"/><rect class="cls-23" x="369.93" y="497.17" width="3.55" height="50.85"/><path class="cls-16" d="M327.76,449.52h10.62A17.52,17.52,0,0,1,355.9,467v30.14a0,0,0,0,1,0,0H310.25a0,0,0,0,1,0,0V467a17.52,17.52,0,0,1,17.52-17.52Z"/><path class="cls-24" d="M216.49,601.9c-8.4,26-5.53,34.16,2.15,72.23l9.77,1.43,8.55-64.9Z"/><path class="cls-25" d="M203.7,743.73l-2.22,5.8s12.57,5.72,16.84,3.3c0,0-10.07-4.33-11.53-8.41S203.7,743.73,203.7,743.73Z"/><path class="cls-24" d="M218.7,674.05s-7,22.93-7.5,28.74-7.87,40.29-7.87,40.29l3.46,1.34,21.78-64.9-.11-5.48Z"/><path class="cls-26" d="M225.84,605.9c-4.13,27,6,34,21.69,68.15l9.87-.15-11-59.54Z"/><path class="cls-25" d="M243.07,745.2l-1.26,6.09s13.33,3.63,17.15.56c0,0-10.63-2.67-12.73-6.46S243.07,745.2,243.07,745.2Z"/><path class="cls-26" d="M247.54,674.05s-4,23.73-3.61,29.54-1.33,41-1.33,41l3.63.77,12-67.61-1-5.39Z"/><path class="cls-27" d="M237.65,544.21l.22,5.87s-.62,2.24-2.06,1.77c-1.68-.55-3.13-2.82-3.13-2.82l-.33-11.61.94-1Z"/><path class="cls-28" d="M232.57,543.19c1.91,5.17,5.22,4.07,5.22,4.07l0-3-5.54-5.16Z"/><path class="cls-27" d="M243.82,531.24c1.66,7.17-.1,15.59-5.88,15.29,0,0-4.66-.32-6.25-6.8-1.5-6.14,2.43-9.07,3.05-9.25S243.82,531.24,243.82,531.24Z"/><path class="cls-29" d="M244.61,533.18c.29,2.32-2.18,2.47-2.18,2.47s-.72,4.35-2.46,4.5l-5.66,5.22-1.74-.73s-1.16-1.74-2.76-4.2a9,9,0,0,1-1.59-6c.72-6,5.23-8,8.85-7.69C240.11,527.09,243.59,528.54,244.61,533.18Z"/><path class="cls-27" d="M241.36,537.44c-.87-1.79-2-1.42-2.12,0s.81,4.21,2,3.17S241.36,537.44,241.36,537.44Z"/><path class="cls-30" d="M255.12,572.43,246.44,599s15.14,80.42,13.09,84.92c0,.06-8.6,4.4-28.71,2.68l-8.15-9.38-3.83,9.34c-6.35,0-13-3.17-13-3.17s.12-57.89,9.88-83.55c-4.46-22-3.07-41.29,9.27-50.35l1.6-.87a27.75,27.75,0,0,1,5.18-1.07,25.91,25.91,0,0,1,4.78,1.43Z"/><polygon class="cls-31" points="243.09 554.38 250.63 541.59 250.62 552.71 246.86 562 243.09 554.38"/><rect class="cls-32" x="245.59" y="531.46" width="32.92" height="24.62" transform="matrix(0.09, -1, 1, 0.09, -303.54, 754.63)"/><rect class="cls-33" x="250.39" y="527.97" width="23.31" height="31.6" transform="translate(51.18 -21.82) rotate(5.28)"/><path class="cls-34" d="M266.39,527.11a3.29,3.29,0,1,0-5.82-2.39,3.21,3.21,0,0,0,.39,1.89l-2.53-.23-.18,2,10.49,1,.18-2Zm-2.7-.38a1.71,1.71,0,1,1,1.86-1.55A1.71,1.71,0,0,1,263.69,526.73Z"/><rect class="cls-20" x="253.44" y="531.52" width="6.85" height="0.66" transform="translate(50.07 -21.39) rotate(5.28)"/><rect class="cls-20" x="253.05" y="536.04" width="19.49" height="0.66" transform="translate(50.5 -21.92) rotate(5.28)"/><rect class="cls-20" x="252.81" y="538.56" width="17.38" height="0.66" transform="translate(50.73 -21.79) rotate(5.28)"/><rect class="cls-20" x="252.57" y="541.12" width="15.93" height="0.66" transform="translate(50.96 -21.69) rotate(5.28)"/><rect class="cls-20" x="252.34" y="543.49" width="10.4" height="0.66" transform="translate(51.17 -21.4) rotate(5.28)"/><rect class="cls-20" x="252.09" y="546.38" width="16.33" height="0.66" transform="translate(51.45 -21.64) rotate(5.28)"/><rect class="cls-20" x="251.96" y="547.77" width="17.91" height="0.66" transform="matrix(1, 0.09, -0.09, 1, 51.58, -21.7)"/><rect class="cls-20" x="251.85" y="548.87" width="13.43" height="0.66" transform="translate(51.67 -21.48) rotate(5.28)"/><rect class="cls-20" x="251.72" y="550.42" width="18.57" height="0.66" transform="matrix(1, 0.09, -0.09, 1, 51.82, -21.69)"/><rect class="cls-20" x="251.6" y="551.77" width="19.36" height="0.66" transform="translate(51.94 -21.71) rotate(5.28)"/><path class="cls-30" d="M235.12,548.61s9.45,3.24,15.5,10.51c4.87,5.86,11.72,20.65,11.72,20.65l-5.86,13.11-21.76-16-3.21-10.6a15.72,15.72,0,0,1,.63-10.85Z"/><path class="cls-29" d="M228.3,536.27c-1,2.57-.72,5.47-1.74,6.92s-5.37,2.76-4.5,6.68-6.48,4.43-5.37,12.62c1.16,8.56,6.24,12.19,12.34,12.19,3.62,0,10.88.14,16.1-5.23s1.74-9.57.44-12,1.74-5.8-.29-9.14c-1.64-2.68-4.3-2.9-4.3-5.66s3.28-9.58-1.79-9.43S228.3,536.27,228.3,536.27Z"/><path class="cls-27" d="M268.31,551s.12-2.48-.88-3.27-1.1-1.35-.43-1.26a4.39,4.39,0,0,1,1.58.76s.67-3.87,1.21-4.09.35.89.35.89.31-1.41.75-1.44.18,1.23.18,1.23.3-.73.55-.68.26.82.05,1.44c0,0,.11-.63.53-.57.23,0,.14.7.08,1.37-.17,1.76.13,3.83-1.41,5.24l-.45,3.15Z"/><path class="cls-35" d="M267.94,551.56l0-1.42a7.57,7.57,0,0,1,4.15,1.82l-.92,4.8Z"/><path class="cls-30" d="M267.83,551.12l4.42,1.1-1.91,30.83a13,13,0,0,1-1.07,4.56h0a10.21,10.21,0,0,1-15.08,3.91l-1.66-1.17Z"/><path class="cls-10" d="M673.94,586.08h0c-11.66,0-21.11-7.54-21.11-16.85v1.93H610.25v-1.93c0,9.31-9.45,16.85-21.11,16.85h0c-4.89,0-8.85,3.16-8.85,7V742.89h0c0,3.9,4,7.06,8.85,7.06h84.8c4.88,0,8.84-3.16,8.84-7.06h0V593.13C682.78,589.24,678.82,586.08,673.94,586.08Z"/><rect class="cls-20" x="580.29" y="617.11" width="102.49" height="103.5"/><rect class="cls-20" x="571.55" y="535" width="119.98" height="57.03" rx="10.41"/><rect class="cls-22" x="585.58" y="535" width="4.16" height="57.03"/><rect class="cls-22" x="603.4" y="535" width="4.16" height="57.03"/><rect class="cls-22" x="621.23" y="535" width="4.16" height="57.03"/><rect class="cls-22" x="639.06" y="535" width="4.16" height="57.03"/><rect class="cls-22" x="656.88" y="535" width="4.16" height="57.03"/><rect class="cls-22" x="674.71" y="535" width="4.16" height="57.03"/><path class="cls-22" d="M681.79,535H652.73a9.72,9.72,0,0,1,9.73,9.73v37.56a9.74,9.74,0,0,1-8.87,9.7,5.38,5.38,0,0,1,.13,1.14V742.89c0,3.9-4,7.06-8.84,7.06h29.06c4.88,0,8.84-3.16,8.84-7.06V593.13a5.38,5.38,0,0,0-.13-1.14,9.73,9.73,0,0,0,8.87-9.7V544.73A9.72,9.72,0,0,0,681.79,535Z"/><path class="cls-22" d="M379.26,561.13c-3.19,0-5.78-3.39-5.78-7.57V548h1.89a8.9,8.9,0,0,0,8.91-8.91v-33a8.9,8.9,0,0,0-8.91-8.91H355.9V465.89a16.37,16.37,0,0,0-16.38-16.37h-12.9a16.38,16.38,0,0,0-4.67.68,16.37,16.37,0,0,1,11.71,15.69v31.28h19.47a8.91,8.91,0,0,1,8.91,8.91v33a8.91,8.91,0,0,1-8.91,8.91h-1.89v5.54c0,4.18,2.59,7.57,5.78,7.57,8.42,0,15.25,8.94,15.25,20V730c0,11-6.83,20-15.25,20h22.24c8.43,0,15.25-8.94,15.25-20V581.1C394.51,570.07,387.69,561.13,379.26,561.13Z"/><path class="cls-19" d="M557.83,255.15l-17.56,30.13L513.88,269.9a17.44,17.44,0,0,1-6.29-23.85h0a17.44,17.44,0,0,1,23.85-6.28Z"/><path class="cls-4" d="M557.83,255.15l-17.56,30.13,26.4,15.38a17.42,17.42,0,0,0,23.84-6.29h0a17.43,17.43,0,0,0-6.28-23.84Z"/><path class="cls-36" d="M574.94,279.76,527.35,252a3.4,3.4,0,0,1-1.22-4.65h0a3.39,3.39,0,0,1,4.65-1.22l47.58,27.72a3.41,3.41,0,0,1,1.23,4.66h0A3.4,3.4,0,0,1,574.94,279.76Z"/><path class="cls-19" d="M760.07,368.74l5.62,13.9-12.17,4.92a7.5,7.5,0,0,1-9.76-4.14h0a7.5,7.5,0,0,1,4.14-9.76Z"/><path class="cls-4" d="M760.07,368.74l5.62,13.9,12.18-4.93A7.49,7.49,0,0,0,782,368h0a7.5,7.5,0,0,0-9.76-4.14Z"/><path class="cls-36" d="M772.94,369.4l-22,8.88a1.46,1.46,0,0,1-1.9-.81h0a1.46,1.46,0,0,1,.81-1.9l21.94-8.88a1.47,1.47,0,0,1,1.91.81h0A1.46,1.46,0,0,1,772.94,369.4Z"/><path class="cls-19" d="M207.82,475.77l5.62,13.9-12.17,4.92a7.5,7.5,0,0,1-9.76-4.13h0a7.5,7.5,0,0,1,4.14-9.76Z"/><path class="cls-4" d="M207.82,475.77l5.62,13.9,12.18-4.93a7.49,7.49,0,0,0,4.13-9.76h0a7.49,7.49,0,0,0-9.76-4.13Z"/><path class="cls-36" d="M220.69,476.43l-21.95,8.88a1.46,1.46,0,0,1-1.9-.8h0a1.47,1.47,0,0,1,.81-1.91l21.94-8.88a1.47,1.47,0,0,1,1.91.81h0A1.46,1.46,0,0,1,220.69,476.43Z"/><path class="cls-37" d="M583.67,396.49,576.81,404c-37-10.77-47.63-13.9-65.07-36.08l14.94-12.84Z"/><path class="cls-37" d="M531.86,359.75l7.88,4.91s1,1.9,0,6.07,28,30.27,28,30.27l-9.7-.62s-34.88-29.75-36.73-30.9-.32-8.2,0-9.74S531.86,359.75,531.86,359.75Z"/><path class="cls-25" d="M625.71,451.66c4.34,1.1,13.85-5,13.85-5-.38,5.05-12.53,12.54-12.53,12.54l-3.7-5.25S621.37,450.56,625.71,451.66Z"/><path class="cls-37" d="M587.16,398.63l38.55,53-3.15,2.19s-25.32-26.19-30-30-16.28-21.54-16.28-21.54l6.12-6.78Z"/><path class="cls-38" d="M582.45,415.22,575.86,423c-37.58-14.08-68.67-19.19-68.67-43.63l18.4-10Z"/><path class="cls-37" d="M529.29,371.58l9.66,8.34c5.18,8.35-26,13-30.4,7.33-1.9-2.45-1.36-7.88-1.36-7.88Z"/><path class="cls-25" d="M564.17,487.38c1.67,4.15,12.23,8.21,12.23,8.21-4.3,2.68-17.51-2.73-17.51-2.73l2.06-6.08S562.5,483.23,564.17,487.38Z"/><path class="cls-38" d="M574.84,418.37l7.63-3.08,1.53,1.26a5.72,5.72,0,0,1,1.78,6.24l-21.61,64.59-3.63-1.25s6.22-35.9,6.51-41.91S574.84,418.37,574.84,418.37Z"/><path class="cls-39" d="M518.7,315.05c4.76-3.29,9.22-10.77,9.61-17.92,0,0,13.5,8,10,14.12s9,22.62-6.11,35-37.8,6.21-36.47-14.08C496.39,322.73,514,318.34,518.7,315.05Z"/><path class="cls-39" d="M528.67,296.91l.26.07c-.65,2.26-2.44,4.23-4.16,6.14-2.46,2.71-5,5.52-4.32,9.2l-.27.05c-.7-3.81,1.88-6.67,4.38-9.43C526.27,301.05,528,299.11,528.67,296.91Z"/><path class="cls-40" d="M539.78,316.85c1.8,2.4,3.35,4.47.91,7.62l-.38-.3c2.22-2.85.91-4.61-.91-7a17.18,17.18,0,0,1-2.95-5.17l.46-.14A17,17,0,0,0,539.78,316.85Z"/><path class="cls-41" d="M510.15,325.11l13.34-13.93,6.19-1.24,4.1.87,16.62,17L547,352.46l10.8,26.11s-6.84,3.28-13.4,3.28l-3.95-9.65-2.75,11.16c-20.78,1.77-32.37-2-32.39-2.05-2.12-4.65,10.66-26.52,10.66-26.52Z"/><path class="cls-27" d="M584.94,291.37a4.59,4.59,0,0,1,1.34,1.21s1.8-3.63,2.4-3.69.08,1,.08,1-.51,1.64-.06,1.73.41.53.56.76c.36.56.14.63.32,1,.35.82-.22,4.47-2.49,4.28l-.89,1.94-1.28-3.36s.84-2.43.08-3.5S584.3,291.09,584.94,291.37Z"/><path class="cls-41" d="M571,333.77l-.27,4.34c-2.31,3.71-5.16,9-13,6.52L541,331.82l-7.2-10.16v-11s11.33,4.43,16.05,8.26C555.93,323.9,571,333.77,571,333.77Z"/><polygon class="cls-42" points="534.94 313.03 538.09 316.2 535.75 320.51 533.4 316.99 529.1 320.51 525.15 314.79 529.11 312.55 534.94 313.03"/><path class="cls-27" d="M533.91,297.53l2.7,10.12-1.45,6.75s-1.95,1.17-3.46.21a5.12,5.12,0,0,1-2.15-2.91l3-13.33Z"/><path class="cls-28" d="M536.79,307.79l-.9,3.38s-4.1.29-4.77-6.15l.86-4.72Z"/><path class="cls-27" d="M537.29,291.16c.75,0,10.13,3.51,10.13,3.51-.19,8.65-4.65,17.73-11.15,15.71,0,0-5.22-1.72-5.14-9.56C531.2,293.39,536.54,291.19,537.29,291.16Z"/><path class="cls-39" d="M540.76,288.72c3.4.87,6,2.22,7.22,7.53-.11.82-.45.41-2.92-.05a18.45,18.45,0,0,1-10.34,1.32l-1.88,2.63-2.1,6.36s-.55-2-1.63-5.25a10.34,10.34,0,0,1-.09-7.09C531.53,287.74,536.71,287.69,540.76,288.72Z"/><path class="cls-39" d="M545.06,297.31c-4.49,4.49-10.75,1.74-10.75,1.74l-1.6,2.39,0-4.65s5.51-1.59,5.76-1.88S545.06,297.31,545.06,297.31Z"/><path class="cls-27" d="M533.23,298.57s.65,2.72-1,3.55-1.91-2.65-1.38-4.2S532.75,296.28,533.23,298.57Z"/><path class="cls-39" d="M548.05,296c.82,2.32-1.35,5.29-1.35,5.29-1.36-.88-1.64-3.94-1.64-3.94l-1.9-.14-4.87-2.3s3.69-1.34,3.9-1.47S547.24,293.63,548.05,296Z"/><path class="cls-39" d="M538.14,301.33a8.44,8.44,0,0,0,6.71-4l.22.15a8.65,8.65,0,0,1-6.92,4.16,5.9,5.9,0,0,1-2.29-.38,4.84,4.84,0,0,1-2.28-1.72l.22-.16A5.06,5.06,0,0,0,538.14,301.33Z"/><path class="cls-42" d="M588.43,298.3l-2.31,4.49-1.72-6.1.45-1.4A7.86,7.86,0,0,1,588.43,298.3Z"/><path class="cls-41" d="M584.41,296.22l4.07,2.38-14.74,33.65-4.35,8.07c-3.84,1-8.75-6.81-11.54-9.64l0,0,6.47-10.53Z"/><path class="cls-41" d="M511.38,309.94l13.11,1s2.29,2.38-1,10.51c-6.86,17.14-27.84-5.67-27.84-5.67l-.17-2.33,5.26-6.51Z"/><path class="cls-27" d="M506,271.52c0,.09,0,.14,0,.14A.78.78,0,0,1,506,271.52Z"/><path class="cls-27" d="M505.15,272.13c.21-.62.4-1.24.62-1.17s.27.38.25.56a.78.78,0,0,0,0,.14s0-.05,0-.14c.1-.57.39-1.14.6-1.09s.21.81.21.81.28-1.21.65-1,.08,1.56.08,1.56.28-1.05.66-.64-.57,4.07-.57,4.07a4.34,4.34,0,0,1,1.69,0c.62.2.3.64-.89.94s-2.08,2.51-2.08,2.51l-3,1.58.87-2.94C503.5,275.43,504.59,273.73,505.15,272.13Z"/><path class="cls-35" d="M507,278l-.54,1.26-4.94,3.24,1.11-4.57A7.3,7.3,0,0,1,507,278Z"/><path class="cls-41" d="M502.43,278.12l4.32.81L506.31,308l-1.87,11.38h-.05a10.33,10.33,0,0,1-9.35-4.48h0a10.32,10.32,0,0,1-1.32-8.88Z"/><path class="cls-43" d="M735.63,605.83l11.51,70.5-9.84.44c-14.71-35.84-19.91-43.2-16.6-70.25Z"/><path class="cls-44" d="M727.2,652.65c.28.56.45.87.45.87A8.85,8.85,0,0,1,727.2,652.65Z"/><path class="cls-44" d="M725,602.09l8.54.27,4.57,18.38a94.69,94.69,0,0,1-13.38,3.51s-1.18,20.36,2.52,28.4a77.57,77.57,0,0,1-7.46-31.12C719.34,603.16,725,602.09,725,602.09Z"/><path class="cls-25" d="M765.85,742.36c3.5,2.54,14.23.43,14.23.43-2.15,4.4-15.73,6.77-15.73,6.77l-1.43-6S762.36,739.83,765.85,742.36Z"/><path class="cls-43" d="M748,676.24l17.87,66.12-3.6.85S748.9,710.66,746,705.6s-9.34-29.28-9.34-29.28l8.11-4.53Z"/><path class="cls-45" d="M726.74,608.19,704,669.41l-9.19-3.56c1-38.73,0-47.3,13.92-70.72Z"/><path class="cls-25" d="M635.67,695.92c-2.42,3.57,0,14.23,0,14.23-4.46-2-7.25-15.51-7.25-15.51l6-1.62S638.1,692.35,635.67,695.92Z"/><path class="cls-45" d="M699.37,664.12l4.75,5.26-.7,1.23a13.71,13.71,0,0,1-7.77,6.31l-60,19-.95-3.58S666.84,678,671.81,675,699.37,664.12,699.37,664.12Z"/><path class="cls-46" d="M696.18,562.76l18.5-23.37,4.76-1.44,5.18,1.08,16,16.43.8,28.54,6.34,31s-6.6,3.17-12.94,3.17l-3.81-9.32-2.65,10.77c-20.07,1.71-34.1-4-34.13-4.09-2-4.49,3.64-31.55,3.64-31.55Z"/><polygon class="cls-47" points="722.11 587.95 724.62 590.16 696.34 592.15 697.48 585.88 722.11 587.95"/><polygon class="cls-47" points="697.76 584.78 697.48 578.65 707.75 565.77 697.76 584.78"/><path class="cls-46" d="M758,570.71l-13.92,10.78-12.54-22.17-7-9.82V538.91s12.17,6.54,16.72,10.24C747.23,554,758,570.71,758,570.71Z"/><path class="cls-46" d="M716.13,539l-.53,10.51-7,9.82L696.1,581.49l-13.91-10.78s10.21-14.79,15.07-20.63C703.29,542.82,716.13,539,716.13,539Z"/><path class="cls-48" d="M714.68,539.39l5.67-2.38,4.27,2,.22-.57a45.6,45.6,0,0,0,5.19,3.47L723.79,554l-9.46-14.45.26-.09Z"/><path class="cls-27" d="M776.77,544.12l-.09.12Z"/><path class="cls-27" d="M771.66,544.55a4.58,4.58,0,0,1,1.26,1.22s1.86-3.45,2.44-3.49,0,1,0,1,.74-1.22,1.17-1.12-.22,1.22-.22,1.22.51-.6.74-.47,0,.75-.32,1.26l-.09.12.09-.12c.11-.16.33-.38.59-.25s-.09.71-.36,1.32c-.71,1.61-1.09,3.67-3,4.51l-1.43,2.84-1.12-3.29s.9-2.31.2-3.37S771.06,544.26,771.66,544.55Z"/><path class="cls-35" d="M774.79,551.36l-2.39,4.25-1.45-6,.48-1.33A7.59,7.59,0,0,1,774.79,551.36Z"/><path class="cls-46" d="M771,549.21l3.84,2.44-10.39,30.07a8.33,8.33,0,0,1-7.45,5.6l-4.6.24a5.49,5.49,0,0,1-4.34-1.78l-3.93-4.29,6.62-9.94Z"/><polygon class="cls-47" points="744.06 581.52 741.13 576.45 740.59 568.97 747.8 585.79 744.06 581.52"/><path class="cls-27" d="M728.62,590.12l-.14,0Z"/><path class="cls-27" d="M725.63,585.63c.86-.94,1.42-1,1.29-.34a4.4,4.4,0,0,1-.86,1.51s3.8.94,4,1.49-.91.29-.91.29,1.38.41,1.38.85-1.23.09-1.23.09.7.34.64.59-.72.2-1.3,0l-.14,0,.14,0c.18.07.45.23.39.51s-.7.09-1.37,0c-1.74-.29-3.82-.14-5.11-1.76l-3.12-.66,2.91-1.91S724.78,586.57,725.63,585.63Z"/><path class="cls-35" d="M723.2,586a7.49,7.49,0,0,1-2.09,4l-4.71-1.24,5.39-2.9Z"/><path class="cls-46" d="M684.24,567.91l38,17.89-1.4,4.33L687,587.46a13,13,0,0,1-6.34-2.25h0a7,7,0,0,1-1.73-9.71Z"/><path class="cls-27" d="M724.13,534.47l2.15,5.59s0,2.47-1.63,2.62c-1.93.19-4.14-1.41-4.14-1.41L716.64,530l.69-1.36Z"/><path class="cls-28" d="M725.45,537.89s-3.82.8-7.39-3.43l-1-2.71,7.38,2.66Z"/><path class="cls-27" d="M718.37,520.76c.62-.37,9.82-1.89,9.82-1.89,5.51,6.27,4,17.38-3.5,18a7.56,7.56,0,0,1-7.64-5.74C715.13,524.93,717.76,521.13,718.37,520.76Z"/><path class="cls-49" d="M719.47,516.64c.66-2.26,4.55-2.3,6.81-1.64,3.37,1,3.06,2.72,2.8,3.18-1.74,3.15-10.27,4.44-10.27,4.44l-1.22,6-1.21-1.08.67,3.62,1.3,3.69s-6.12-4.42-6.18-9.5C712.09,518.41,719.47,516.64,719.47,516.64Z"/><path class="cls-27" d="M717.1,527.93s2,2.31.82,4-3.22-1.6-3.49-3.37S715.46,526,717.1,527.93Z"/><path class="cls-49" d="M729.17,517.14c.89,1.27,0,3.17-1.32,4.39s-4.25-.18-6.21.51l.86-4S728.29,515.87,729.17,517.14Z"/><path class="cls-49" d="M719.74,521.52a2.78,2.78,0,0,1-.13,1c-.8.17-1.36,3.45-.81,5.12a10.21,10.21,0,0,1,.43,4.95c-.22,2.21,4.65,4.77,6.95,4.15a5.35,5.35,0,0,0,3.24-2.34s.85,3.55-2.06,5.15c-2.31,1.26-5.64.41-7.53-1.35-3.09-2.86-2.17-6.53-2.47-8.41s-1.84-3.31-1-5.46S719.67,521.24,719.74,521.52Z"/><path class="cls-49" d="M730.16,533.32l-.74,1c-1.14-2.88-5.37.19-5.61,2.25s-1.81-.15-1.8-.62C722.05,533.84,727,529.38,730.16,533.32Z"/><circle class="cls-50" cx="753.69" cy="565.77" r="31.87" transform="translate(-171.52 386.51) rotate(-25.93)"/><path class="cls-51" d="M739.3,594.2a32.79,32.79,0,0,0,4,1.69,31.84,31.84,0,0,0,4.17,1.13l20.64-59.69a33.48,33.48,0,0,0-4-1.69,31.78,31.78,0,0,0-4.17-1.12Z"/><circle class="cls-50" cx="326.05" cy="395.57" r="13.97" transform="matrix(0.73, -0.68, 0.68, 0.73, -182.29, 329.44)"/><path class="cls-51" d="M319.74,408a14.35,14.35,0,0,0,1.75.74,13,13,0,0,0,1.83.49l9-26.15a14.9,14.9,0,0,0-1.74-.74,15.56,15.56,0,0,0-1.83-.5Z"/><circle class="cls-50" cx="632.47" cy="342.08" r="13.97"/><path class="cls-51" d="M626.16,354.54a14.9,14.9,0,0,0,1.74.74,13.78,13.78,0,0,0,1.83.49l9-26.15a13.57,13.57,0,0,0-1.74-.74,15.56,15.56,0,0,0-1.83-.5Z"/></g></g></svg>