<svg xmlns="http://www.w3.org/2000/svg" viewBox="0 0 400 400"><defs><style>.cls-1{fill:#82a3d8;}.cls-2{fill:#6c8fc1;}.cls-3{fill:#4f2f5b;}.cls-4{fill:#f76374;}.cls-5{fill:#876070;}.cls-6{fill:#ffcebf;}.cls-7{fill:#eff6f2;}.cls-8{fill:#e5a495;}.cls-9{fill:#fcf3f2;}.cls-10{fill:#c69eb4;}.cls-11{fill:#fff;}</style></defs><title>loading-gif</title><g id="Layer_2" data-name="Layer 2"><g id="person_2" data-name="person 2"><path class="cls-1" d="M150.55,232.8c17.72,19.58,27.84,21.81,63.1,29.47l5.91-7.49-55.89-34.95Z"/><path class="cls-2" d="M176.87,233.57c.66-4-.38-5.67-.38-5.67l-7.68-4.08s-9.59-.79-9.82.67-1.2,8.15.6,9.11,36.29,26.46,36.29,26.46l9.1,0S176.2,237.53,176.87,233.57Z"/><path class="cls-3" d="M262.39,303.57c-4.12-.74-2.07,2.26-2.07,2.26l3.79,4.66S275,302.71,275,298C275,298,266.51,304.31,262.39,303.57Z"/><path class="cls-1" d="M218.32,254,213,260.72s12,15.84,16.59,19.06,30,26,30,26l2.79-2.25-39.43-47Z"/><path class="cls-1" d="M147,243.75c1.58,22.81,31,25.57,66.94,36.29l5.66-7.69L163.57,233.2Z"/><path class="cls-2" d="M167.17,235,147,243.75s-.16,5.1,1.78,7.26c4.49,5,33.29-1.35,27.91-8.81Z"/><path class="cls-3" d="M207.24,340.91c-1.83-3.77-3.05-.35-3.05-.35l-1.53,5.81s12.69,4.19,16.54,1.42C219.2,347.79,209.07,344.67,207.24,340.91Z"/><path class="cls-1" d="M221.17,273.48l-1.51-1.07-6.92,3.37s-5.73,19-5.61,24.64S203.77,340,203.77,340l3.47.93,16-61.71A5.39,5.39,0,0,0,221.17,273.48Z"/><path class="cls-4" d="M171.73,178.12c2.83-6-10.29-12.54-10.29-12.54.09,6.7-3.58,14-7.81,17.35s-20.34,8.62-20.31,17.5c.07,19,21.66,23.33,35,10.78S168.9,184.1,171.73,178.12Z"/><path class="cls-4" d="M158.31,171.25c-2.15,2.74-4.38,5.57-3.48,9.08l.25-.06c-.88-3.39,1.32-6.17,3.43-8.87,1.49-1.89,3-3.85,3.49-6l-.25-.05C161.31,167.44,159.79,169.38,158.31,171.25Z"/><path class="cls-5" d="M184.05,192.81,167.43,178l-3.88-.54L157.84,179l-11.55,13.88,7.35,27.33s-10.51,21.25-8.24,25.45c0,.05,11.1,2.82,30.39-.18l1.84-10.6,4.32,8.76c6.12-.42,12.29-3.93,12.29-3.93L182.47,216Z"/><path class="cls-6" d="M203.7,142.75c-.22-.13-.37-.51-.79-.4s-.66-1.48-.66-1.48,0-1.08-.48-.79-.47,4.1-.47,4.1a4.22,4.22,0,0,0-1.63-.45c-.65,0-.46.54.63,1.12s1.39,3,1.39,3l2.47,2.28-.06-2c2-.78.93-4.08.3-4.62C204.09,143.22,204.24,143.07,203.7,142.75Z"/><path class="cls-5" d="M181.75,181.47c-5.55-1.25-16.9-.23-16.9-.23l4.58,9.2L179.71,196,199,199.73c7.61-1.24,7.81-6.83,8.2-10.9l-1.59-3.75S188.93,183.08,181.75,181.47Z"/><polygon class="cls-7" points="163.19 179.93 159.63 182.27 163.68 187.36 167.47 183.79 169.9 186.93 171.81 182.76 168.66 179.99 163.19 179.93"/><path class="cls-6" d="M165.48,166.46l-1.94,12.65a4.78,4.78,0,0,0,2.2,2.57c1.46.8,3.21-.41,3.21-.41l.92-6.4-3.18-9.28Z"/><path class="cls-8" d="M164.57,172.76c1.05,6,4.85,5.44,4.85,5.44L170,175l-5-6.69Z"/><path class="cls-6" d="M169.43,159.42c-.69.08-5.54,2.48-5.12,9.42.43,7.33,5.41,8.6,5.41,8.6,6.2,1.47,9.78-7.31,9.41-15.4C179.13,162,170.13,159.35,169.43,159.42Z"/><path class="cls-4" d="M172.52,156.92c-3.85-.7-8.69-.31-10.61,5.85a9.67,9.67,0,0,0,.54,6.62c1.21,2.92,1.86,4.79,1.86,4.79l1.55-6.08,1.59-2.57a17.34,17.34,0,0,0,9.57-1.9c2.33.26,2.68.63,2.72-.14C178.25,158.61,175.75,157.51,172.52,156.92Z"/><path class="cls-4" d="M170.77,162.85c-.22.29-5.26,2.13-5.26,2.13l.31,4.34,1.35-2.34s6,2.16,9.92-2.32C177.09,164.66,171,162.57,170.77,162.85Z"/><path class="cls-6" d="M163.83,166.15c-.4,1.48,0,4.72,1.56,3.84s.73-3.39.73-3.39C165.53,164.49,164.22,164.68,163.83,166.15Z"/><path class="cls-4" d="M174.15,161.2c-.18.13-3.54,1.63-3.54,1.63l4.7,1.83h1.78s.46,2.84,1.79,3.57c0,0,1.83-2.91.91-5S174.34,161.07,174.15,161.2Z"/><path class="cls-4" d="M170.89,168.87a4.75,4.75,0,0,1-4.18-1.58l-.2.16a4.53,4.53,0,0,0,2.24,1.46,5.69,5.69,0,0,0,2.16.21,8.14,8.14,0,0,0,6.2-4.33l-.22-.13A7.88,7.88,0,0,1,170.89,168.87Z"/><path class="cls-7" d="M201.23,147.05l.2,1.36,4,4.39.07-4.72A7.3,7.3,0,0,0,201.23,147.05Z"/><path class="cls-5" d="M194.36,176.41l-1,11.53.05,0c3.52,1.21,10.89,5.72,13.68,3.27l.29-8.58-1.69-34.34-4.4-.31Z"/><path class="cls-5" d="M158.77,178.76l-19-10.19-9.53,7.68s11.27,14.83,20.16,19.12c4.3,2.07,6.4-1.37,8.13-6.73C161.06,180.83,158.77,178.76,158.77,178.76Z"/><path class="cls-6" d="M142.86,139.78a4.07,4.07,0,0,0-1.57.08s.78-3.45.41-3.82-.6.62-.6.62.23-1.28-.12-1.46-.58,1-.58,1,0-.71-.22-.76-.45.5-.53,1a.46.46,0,0,1,0,.13.69.69,0,0,0,0-.13c0-.17,0-.46-.25-.52s-.37.53-.55,1.11c-.47,1.52-1.44,3.14-.65,4.84l-.73,2.78,2.72-1.57s.77-2.1,1.88-2.41S143.45,139.94,142.86,139.78Z"/><path class="cls-6" d="M139.65,136.45a.69.69,0,0,1,0,.13A.46.46,0,0,0,139.65,136.45Z"/><path class="cls-9" d="M136.69,142.55l-.91,4.31,4.53-3.18.46-1.19A6.84,6.84,0,0,0,136.69,142.55Z"/><path class="cls-5" d="M140.55,143.35l-4.06-.62-7.31,26.4a9.68,9.68,0,0,0,1.5,8.26h0a9.65,9.65,0,0,0,8.88,3.91h.05L141,170.6Z"/><circle class="cls-10" cx="174.49" cy="100.75" r="49.49" transform="matrix(0.09, -1, 1, 0.09, 59.05, 265.89)"/><path class="cls-11" d="M174.89,115.16H162.56V84.32h11.75c6.52,0,10,3.6,10,8,0,3.72-2.26,6-5.23,7a7.67,7.67,0,0,1,5.94,7.54C185,111.56,181.19,115.16,174.89,115.16Zm-1-26.71h-6.26v8.83h6.26c3.28,0,5.28-1.55,5.28-4.39S177.15,88.45,173.87,88.45Zm.4,13h-6.66V111h6.83c3.42,0,5.5-1.73,5.5-4.7S177.64,101.4,174.27,101.4Z"/></g></g></svg>