<?xml version="1.0" encoding="utf-8"?>
<!-- Generator: Adobe Illustrator 24.0.1, SVG Export Plug-In . SVG Version: 6.00 Build 0)  -->
<svg version="1.1" id="Layer_1" xmlns="http://www.w3.org/2000/svg" xmlns:xlink="http://www.w3.org/1999/xlink" x="0px" y="0px"
	 viewBox="0 0 300 36.3" style="enable-background:new 0 0 300 36.3;" xml:space="preserve">
<style type="text/css">
	.st0{fill:#B56983;}
	.st1{fill:#F76374;}
	.st2{fill:#7E508E;}
</style>
<title>logo</title>
<g id="Layer_2_1_">
	<path class="st0" d="M3.9,18.2c0-8.2,6.2-13.8,14-13.8c4.7-0.2,9.1,2.3,11.4,6.5l-4.9,2.4c-1.3-2.4-3.8-3.9-6.5-3.9
		c-4.6,0-8.2,3.7-8.2,8.8s3.5,8.8,8.2,8.8c2.7,0,5.2-1.5,6.5-3.9l4.9,2.4c-2.2,4.2-6.6,6.7-11.4,6.6C10.1,32,3.9,26.4,3.9,18.2z"/>
	<path class="st0" d="M52.4,26.9H40.5l-1.7,4.6h-6.2L42.9,4.8H50l10.3,26.7h-6.2L52.4,26.9z M42,22h8.8L46.4,9.8L42,22z"/>
	<path class="st0" d="M75.6,21.9h-4.2v9.6h-5.7V4.8h12.5c5.6,0,9,3.6,9,8.6c0,4.7-3,7.2-5.8,7.9l6,10.2h-6.6L75.6,21.9z M77.4,9.7
		h-6v7.4h6c2,0.1,3.8-1.4,4-3.4c0.1-2-1.4-3.8-3.4-4C77.8,9.7,77.6,9.7,77.4,9.7z"/>
	<path class="st0" d="M94.5,4.8h18.9v4.9h-13.2v5.8h12.9v4.9h-12.9v6.2h13.2v4.9H94.5V4.8z"/>
	<path class="st0" d="M118,4.8h6.5l7.4,20.5l7.4-20.5h6.5l-10.3,26.7h-7.1L118,4.8z"/>
	<path class="st0" d="M165.1,4.8h5.7v21.7h11.3v5h-17V4.8z"/>
	<path class="st0" d="M189,4.8h5.7v21.7H206v5h-17V4.8z"/>
	<path class="st0" d="M230,26.9h-12l-1.7,4.6h-6.2l10.3-26.7h7.1l10.3,26.7h-6.2L230,26.9z M219.6,22h8.8L224,9.7L219.6,22z"/>
	<path class="st0" d="M254.9,4.4c4.4-0.1,8.6,2.1,11,5.8l-4.7,2.6c-1.4-2.1-3.8-3.4-6.3-3.4c-4.8,0-8.4,3.7-8.4,8.8s3.5,8.8,8.4,8.8
		c2.1,0,4.1-0.7,5.8-2v-3.3h-7.1v-4.9h12.7V27c-2.9,3.3-7,5.1-11.4,5c-7.8,0-14.2-5.4-14.2-13.8S247.1,4.4,254.9,4.4z"/>
	<path class="st0" d="M273.8,4.8h18.9v4.9h-13.2v5.8h12.9v4.9h-12.9v6.2h13.2v4.9h-18.9V4.8z"/>
	<path class="st1" d="M157.5,20.1l-9.9-3.8l3.3-8.7c1.1-2.7,4.1-4.1,6.9-3.1l0,0c2.7,1,4.1,4.1,3.1,6.9l0,0L157.5,20.1z"/>
	<path class="st2" d="M157.5,20.1l-9.9-3.8l-3.3,8.7c-1.1,2.7,0.3,5.8,3,6.9l0,0l0,0c2.7,1.1,5.8-0.3,6.9-3.1L157.5,20.1z"/>
</g>
</svg>
