<svg xmlns="http://www.w3.org/2000/svg" viewBox="0 0 300 500"><defs><style>.cls-1{fill:#e9eff4;}.cls-2{fill:#d1e9f2;}.cls-3{fill:#c4acd1;}.cls-4{fill:#ae91c1;}.cls-5{fill:#bc6682;}.cls-6{fill:#d17993;}.cls-7{fill:#c65454;}.cls-8{fill:#e29460;}.cls-9{fill:#f7e0d0;}.cls-10{fill:#dbd893;}.cls-11{fill:#41684b;}.cls-12{fill:#ede9be;}.cls-13{fill:#c6ac89;}.cls-14{fill:#876070;}.cls-15{fill:#e5e288;}.cls-16{fill:#f7f3ad;}.cls-17{fill:#d86161;}.cls-18{fill:#bad6d5;}.cls-19{fill:#578c62;}.cls-20{fill:#48724f;}.cls-21{fill:#8ebc95;opacity:0.19;}.cls-22{fill:#437550;}.cls-23{fill:#518961;}.cls-24{fill:#f4af5d;}.cls-25{fill:#f28264;}.cls-26{fill:#4a7752;}.cls-27{fill:#f5f7f7;}.cls-28{fill:#644e75;}.cls-29{fill:#7f6b91;opacity:0.56;}.cls-30{fill:#443656;}.cls-31{fill:#534666;}.cls-32{fill:#513e63;}.cls-33{fill:#59476b;}.cls-34{fill:#3d324f;}.cls-35{fill:#524063;}.cls-36{fill:#3b314c;}.cls-37{fill:#487053;}.cls-38{fill:#342a44;opacity:0.53;}.cls-39{fill:#95bfa0;}.cls-40{fill:#447751;}.cls-41{fill:#f76374;}.cls-42{fill:#fc7c8e;}.cls-43{fill:#6e4875;}.cls-44{fill:#cde1e8;}.cls-45{fill:#c3d6e2;}.cls-46{fill:#fff;}.cls-47{fill:#a3bcc9;}.cls-48{fill:#d3e5ef;}.cls-49{fill:#5b91b5;}.cls-50{fill:#4a7993;}.cls-51{fill:#76a37d;}.cls-52{fill:#e8e1c4;}.cls-53{fill:#dbcfb4;}.cls-54{fill:#4d7baa;}.cls-55{fill:#6b9dc6;}.cls-56{fill:#231f20;}.cls-57{fill:#90bedd;}.cls-58{fill:#679b74;}.cls-59{fill:#dedb73;}.cls-60{fill:#f0ef95;}.cls-61{fill:#bc6557;}.cls-62{fill:#dd968a;}.cls-63{fill:#96c7a2;}.cls-64{fill:#e07575;}.cls-65{fill:#dd5f52;}.cls-66{fill:#fca897;}.cls-67{fill:#82a3d8;}.cls-68{fill:#6c8fc1;}.cls-69{fill:#4f2f5b;}.cls-70{fill:#ffcebf;}.cls-71{fill:#eff6f2;}.cls-72{fill:#e5a495;}.cls-73{fill:#fcf3f2;}.cls-74{fill:#7c5969;}.cls-75{fill:#704f5f;}.cls-76{fill:#4496d5;}.cls-77{fill:#f8e8cf;}.cls-78{fill:#3c8dbf;}.cls-79{fill:#5b5959;}.cls-80{fill:#f29e5f;}.cls-81{fill:#444343;}.cls-82{fill:#c69eb4;}.cls-83{fill:#3a8ec1;}</style></defs><title>assets</title><g id="Layer_2" data-name="Layer 2"><polygon class="cls-1" points="74.63 372.88 74.62 359.71 18.88 359.75 18.89 372.91 -5.11 372.93 -5.03 496.64 115.27 496.56 115.19 372.85 74.63 372.88"/><rect class="cls-1" x="3.23" y="319.35" width="5.57" height="57.13"/><rect class="cls-1" x="29.4" y="347.81" width="38.24" height="20.75"/><rect class="cls-1" x="-37.69" y="396.01" width="38.4" height="100.64"/><polygon class="cls-1" points="266.57 344.26 266.55 309.28 241.69 309.29 241.68 290.34 241.65 256.95 230.02 256.96 230.18 496.48 289.09 496.44 289 366.67 266.57 344.26"/><polygon class="cls-1" points="307.67 404.12 307.65 380.15 289.38 380.17 289.39 386.71 261.83 386.73 250.44 496.47 319.03 496.43 318.97 404.11 307.67 404.12"/><polygon class="cls-1" points="211.67 302.75 211.79 496.5 242.94 496.48 241.68 302.73 211.67 302.75"/><rect class="cls-1" x="93.09" y="365.11" width="22.14" height="7.74"/><rect class="cls-1" x="111.56" y="385.23" width="32.36" height="111.32"/><rect class="cls-1" x="142.82" y="320.64" width="48" height="175.89"/><rect class="cls-1" x="184.01" y="346.16" width="32.21" height="150.34"/><rect class="cls-1" x="152.97" y="311.81" width="27.72" height="10.06"/><rect class="cls-1" x="144.92" y="286.74" width="2.32" height="35.15"/><path class="cls-1" d="M65.9,207.23a5.94,5.94,0,1,0,5.94,5.93A5.93,5.93,0,0,0,65.9,207.23Z"/><path class="cls-1" d="M77.94,200.62a8.25,8.25,0,1,0,8.25,8.24A8.24,8.24,0,0,0,77.94,200.62Z"/><path class="cls-1" d="M87.19,211.17a4,4,0,1,0,4,4A4,4,0,0,0,87.19,211.17Z"/><path class="cls-1" d="M79.93,209.53c-.33-.17-13.36,7.59-13.36,7.59v2H87.19S80.26,209.69,79.93,209.53Z"/><path class="cls-2" d="M383.78,493l-471.39.32c-2.46,0-4.45,1.49-4.45,3.33s2,3.32,4.45,3.32l471.39-.31c2.46,0,4.45-1.49,4.45-3.33S386.24,493,383.78,493Z"/><path class="cls-3" d="M-6.32,393.41A54.55,54.55,0,0,1,2.51,397c1.17.59,2.15,1.12,2.83,1.5s1.07.62,1.07.62a7.8,7.8,0,0,1-.81.48,16.62,16.62,0,0,1-2.28,1,15.87,15.87,0,0,1-8.29.52,19.89,19.89,0,0,1-2.58-.74,21.84,21.84,0,0,1-2.47-1.1,26.79,26.79,0,0,1-4.28-2.79c-.6-.5-1.16-1-1.65-1.43s-.9-.87-1.24-1.23c-.68-.72-1.06-1.18-1.06-1.18a8.2,8.2,0,0,1,.93-.2,17.71,17.71,0,0,1,2.54-.22,23.77,23.77,0,0,1,3.79.2c.71.08,1.47.21,2.24.37S-7.15,393.16-6.32,393.41Z"/><path class="cls-3" d="M6.89,409.79a35,35,0,0,1,5.44.59c.86.16,1.7.33,2.48.53s1.53.4,2.22.6c1.37.41,2.52.83,3.32,1.13s1.26.53,1.26.53a15.7,15.7,0,0,1-3.12,2,19.9,19.9,0,0,1-8.66,2.23,23.41,23.41,0,0,1-2.78-.12,27,27,0,0,1-2.74-.46c-.44-.09-.89-.2-1.32-.31l-1.29-.4c-.85-.28-1.65-.59-2.39-.9a33.4,33.4,0,0,1-3.58-1.76c-.44-.24-.78-.45-1-.59l-.35-.22a9.66,9.66,0,0,1,.89-.51,20.94,20.94,0,0,1,2.55-1.07A26.29,26.29,0,0,1,6.89,409.79Z"/><path class="cls-3" d="M21.62,423.32A29.06,29.06,0,0,1,32.37,425a30.7,30.7,0,0,1,3.52,1.47c.84.42,1.33.7,1.33.7s-.33.24-.94.59a23.32,23.32,0,0,1-2.65,1.31,28.09,28.09,0,0,1-4.05,1.36,26.48,26.48,0,0,1-5.2.77c-.48,0-.95,0-1.42,0h-.7l-.71,0c-.94-.06-1.86-.15-2.74-.28a37.93,37.93,0,0,1-4.93-1.05c-1.44-.4-2.69-.84-3.56-1.17S9,428.1,9,428.1s.3-.27.87-.68a22.1,22.1,0,0,1,2.52-1.54,23.24,23.24,0,0,1,9.28-2.56Z"/><path class="cls-3" d="M34.59,436.67c.51,0,1,.08,1.52.15s1,.17,1.48.28,1,.24,1.45.38a7.36,7.36,0,0,1,.71.22l.68.26c.46.17.91.36,1.34.55l.65.3.61.32c.81.44,1.57.9,2.27,1.36a25.79,25.79,0,0,1,3.2,2.57c.38.35.65.64.85.84l.29.31s-.41.14-1.16.31a27.79,27.79,0,0,1-3.14.5,39.07,39.07,0,0,1-4.57.22c-.85,0-1.74,0-2.64-.09s-1.87-.13-2.82-.26c-.47-.06-.93-.12-1.39-.2l-1.38-.23c-.9-.17-1.73-.37-2.58-.56l-1.22-.31-1.15-.32q-1.15-.33-2.1-.66c-.67-.22-1.28-.43-1.8-.63l-.74-.29-.65-.26c-.78-.31-1.21-.53-1.21-.53s.34-.27,1-.69a23.26,23.26,0,0,1,2.73-1.53c.59-.28,1.25-.56,2-.82s1.47-.49,2.29-.69a20.18,20.18,0,0,1,2.64-.44A17.35,17.35,0,0,1,34.59,436.67Z"/><path class="cls-3" d="M1.41,374.37a40.57,40.57,0,0,1-4.16,5.68c-.63.71-1.18,1.26-1.58,1.63s-.65.57-.65.57,0-.1,0-.29-.07-.47-.11-.82-.07-.77-.09-1.25c0-.24,0-.49,0-.75s0-.55,0-.84A13.27,13.27,0,0,1-5,376.49c0-.31.12-.64.19-1a8.48,8.48,0,0,1,.25-1c.1-.32.22-.65.34-1a7.92,7.92,0,0,1,.42-.94,10.26,10.26,0,0,1,1.08-1.76,11.13,11.13,0,0,1,5.61-3.77A15.35,15.35,0,0,1,5,366.66c.51-.07.81-.09.81-.09s-.09.21-.3.59c-.11.19-.22.42-.38.69s-.16.27-.24.43l-.27.48c-.2.34-.38.72-.63,1.13-.12.21-.22.42-.35.64s-.26.45-.38.69l-.41.74c-.15.25-.29.51-.44.77C2.07,373.26,1.77,373.81,1.41,374.37Z"/><path class="cls-3" d="M9.64,388.34a28.52,28.52,0,0,1-1.77,7.73,21.22,21.22,0,0,1-1,2.27c-.28.53-.46.81-.46.81s-.23-.39-.58-1.09a26.79,26.79,0,0,1-1.21-2.91,18.87,18.87,0,0,1-1-8.82,13.78,13.78,0,0,1,3.27-6.9,15.28,15.28,0,0,1,1.7-1.68c.44-.37.71-.57.71-.57s.05.31.09.87c0,.28.06.62.08,1s.08.85.1,1.35c.07,1,.12,2.22.16,3.56A40.9,40.9,0,0,1,9.64,388.34Z"/><path class="cls-3" d="M22.82,400.78c.15.87.23,1.72.29,2.54a20.92,20.92,0,0,1,0,2.36,23.47,23.47,0,0,1-.46,3.94,16.93,16.93,0,0,1-1.08,3.55s-.31-.4-.79-1.1A34.22,34.22,0,0,1,19,409.12c-.35-.61-.7-1.29-1.05-2s-.68-1.48-1-2.28-.57-1.62-.8-2.47a18.64,18.64,0,0,1-.49-2.58,17.51,17.51,0,0,1,1.17-8.45A20,20,0,0,1,18,389c.32-.54.54-.84.54-.84l.13.26.35.74c.29.65.71,1.57,1.16,2.71s1,2.49,1.41,4c.25.75.51,1.56.71,2.39S22.68,399.9,22.82,400.78Z"/><path class="cls-3" d="M38.91,413.55a23.09,23.09,0,0,1,.41,2.91,21.49,21.49,0,0,1,0,2.65,22.11,22.11,0,0,1-.24,2.32,17.88,17.88,0,0,1-.43,2,18.51,18.51,0,0,1-1,2.76c-.29.64-.49,1-.49,1s-.3-.46-.76-1.27-1.12-1.95-1.82-3.35a42.75,42.75,0,0,1-4-10.38,23.79,23.79,0,0,1-.08-9.64,18.35,18.35,0,0,1,1.18-3.81s.33.42.84,1.16c.25.37.56.83.91,1.37s.71,1.14,1.1,1.81A45.36,45.36,0,0,1,37,407.79c.19.45.38.9.55,1.37s.36.95.52,1.43.3,1,.44,1.46c.06.25.13.5.19.74S38.85,413.3,38.91,413.55Z"/><path class="cls-3" d="M55,430.22a20.68,20.68,0,0,1-.79,6.28,18.26,18.26,0,0,1-1.92,4.34,17.14,17.14,0,0,1-1.86,2.53,10.61,10.61,0,0,1-.82.84l-.1-.4-.27-1.14c-.23-1-.54-2.37-.91-4.05-.19-.82-.4-1.72-.59-2.69l-.15-.73-.16-.73c-.11-.5-.21-1-.31-1.53-.19-1.06-.41-2.12-.58-3.21-.08-.55-.16-1.11-.23-1.67s-.14-1.1-.2-1.66a38.61,38.61,0,0,1-.1-6.12c.07-.93.16-1.77.27-2.56s.26-1.52.4-2.19a23.21,23.21,0,0,1,.9-3.08,9.86,9.86,0,0,1,.46-1.09l.27.38c.18.25.43.64.74,1.13s.67,1.09,1.06,1.78l.3.53.31.58c.21.4.42.82.64,1.25l.65,1.36c.21.47.42,1,.62,1.5s.41,1,.6,1.58c.1.27.2.53.29.81l.25.85c.17.58.33,1.16.47,1.74s.27,1.15.37,1.77A29.76,29.76,0,0,1,55,430.22Z"/><path class="cls-3" d="M63.77,483.44l-8.15-22.62c-.84-2.33-1.71-4.75-2.62-7.12a83.94,83.94,0,0,0-6.73-14.09L45.2,438l-.19-.3-.34-.51-1.73-2.38-1.84-2.3-1.92-2.22-2-2.14L35.12,426l-1.41-1.34c-.65-.64-1.33-1.26-2-1.87l-.86-.79C29,420.32,27,418.6,25,416.91L22,414.44c-2.94-2.47-6-5-8.87-7.64-2-1.76-3.85-3.56-5.59-5.37s-3.55-3.86-5.11-5.8a59.14,59.14,0,0,1-8.09-13.1l-.2-.46,1.29-.56.19.46a57.43,57.43,0,0,0,7.9,12.78c1.53,1.92,3.22,3.84,5,5.71s3.57,3.57,5.51,5.3c2.88,2.59,5.91,5.14,8.84,7.61l2.94,2.48c2,1.69,4,3.42,5.91,5.14.29.26.58.52.86.79.67.61,1.37,1.24,2,1.89L36.1,425l2.09,2.11,2,2.18,2,2.25,1.88,2.36,1.76,2.41.37.56.19.29,1.09,1.67A84.74,84.74,0,0,1,54.3,453.2c.92,2.38,1.79,4.8,2.63,7.13L65.09,483Z"/><path class="cls-3" d="M298.94,420.56a36.06,36.06,0,0,1-1.58,10.13c-.2.7-.4,1.34-.59,1.91s-.36,1.06-.5,1.47c-.29.82-.49,1.29-.49,1.29a14.41,14.41,0,0,1-2.08-3,18.08,18.08,0,0,1-1.48-3.62,19.49,19.49,0,0,1-.76-4.95,25.93,25.93,0,0,1,.12-2.79c.09-.91.23-1.82.39-2.69s.37-1.74.58-2.54.45-1.56.68-2.26.46-1.35.68-1.91.41-1.06.59-1.47c.34-.81.57-1.27.57-1.27A14.87,14.87,0,0,1,297,412a20.39,20.39,0,0,1,1.33,3.68A21.18,21.18,0,0,1,298.94,420.56Z"/><path class="cls-3" d="M286.67,435a47.89,47.89,0,0,1-.67,11.17c-.14.77-.25,1.49-.38,2.12s-.23,1.19-.33,1.65-.18.82-.24,1.07l-.1.38a10.29,10.29,0,0,1-.8-.72,18.77,18.77,0,0,1-1.85-2.18,18.36,18.36,0,0,1-2.08-3.71,19,19,0,0,1-.84-2.45,19.73,19.73,0,0,1-.55-2.85A31.48,31.48,0,0,1,280,427.86c.11-.41.23-.8.34-1.17s.23-.72.34-1.06c.22-.66.43-1.24.61-1.72.37-1,.62-1.5.62-1.5a9.29,9.29,0,0,1,.67.85,18.22,18.22,0,0,1,1.5,2.47A24.72,24.72,0,0,1,286.67,435Z"/><path class="cls-3" d="M307.89,436a23.51,23.51,0,0,1-8.62.27,19.92,19.92,0,0,1-2.56-.55c-.6-.18-.93-.31-.93-.31s.38-.33,1.05-.85c.34-.26.76-.56,1.24-.89s1-.7,1.63-1.07a30.41,30.41,0,0,1,9.23-3.88,21.61,21.61,0,0,1,4.87-.48,20.75,20.75,0,0,1,3.85.41,17.48,17.48,0,0,1,2.53.69c.59.21.91.36.91.36l-.29.21c-.18.14-.46.33-.81.57-.7.48-1.71,1.13-2.93,1.83a40.29,40.29,0,0,1-4.21,2.09c-.77.32-1.58.63-2.41.91l-1.27.38C308.74,435.76,308.32,435.86,307.89,436Z"/><path class="cls-3" d="M297.81,450.6a28.18,28.18,0,0,1-9,1.25,23.18,23.18,0,0,1-2.79-.23c-.66-.1-1-.19-1-.19l.26-.28c.17-.19.42-.45.74-.77s.71-.7,1.18-1.12,1-.87,1.58-1.33a27.58,27.58,0,0,1,9.3-5,20.39,20.39,0,0,1,9.12-.45,19,19,0,0,1,2.69.67,9.55,9.55,0,0,1,1,.36l-.28.22-.79.59c-.34.24-.75.54-1.23.86s-1,.68-1.62,1.06A40.35,40.35,0,0,1,297.81,450.6Z"/><path class="cls-3" d="M274,487.9v-.45a58.11,58.11,0,0,1,1.54-14.35,68,68,0,0,1,2-7c.77-2.21,1.67-4.48,2.68-6.73s2.08-4.4,3.23-6.5,2.36-4.16,3.68-6.26c2.37-3.78,5.1-7.66,8.36-11.89,3.06-4,6.38-7.88,9.26-11.23l9.56-11a207.07,207.07,0,0,0,17.79-23.13l.24-.37,1.06.67-.24.38a209,209,0,0,1-17.91,23.27l-9.55,11c-1.7,2-3.33,3.9-4.7,5.54-1.65,2-3.13,3.83-4.52,5.64-3.23,4.19-5.94,8-8.29,11.79-1.31,2.08-2.54,4.16-3.64,6.19s-2.21,4.23-3.19,6.41-1.88,4.45-2.64,6.63a68,68,0,0,0-2,6.84,56.6,56.6,0,0,0-1.51,14.05v.44Z"/><path class="cls-3" d="M109.3,490.45l4.14-6.42a35.82,35.82,0,0,0-2.09-3.1c-2,3.42-5.41,9.39-5.61,9.52s2.06-7.16,3.58-12c-.61-.66-1.24-1.31-1.9-2l-1.8,2.66,1-3.38a36.53,36.53,0,0,0-3-2.47l-4.82,9,3.26-10a34.81,34.81,0,0,0-3.57-2l-4.69,18.44,2.47-19.42a32,32,0,0,0-4.73-1.46c-.75,3.85-1.51,7.69-1.59,7.9s.14-4.17.37-8.14a28.86,28.86,0,0,0-5-.44h-.12l-2.59,13.46V467.26a29.1,29.1,0,0,0-5.9,1.18L74.85,483l-1.24-13.47a33.6,33.6,0,0,0-5.39,2.89l1.56,14.11-4-12.38c-.57.45-1.13.92-1.68,1.4l.82,5.5-1.46-4.92c-.91.85-1.77,1.72-2.57,2.63,1.22,5.94,2.89,13.93,3,14.35s-3.1-6.9-5.16-11.65a33.2,33.2,0,0,0-1.91,2.92l1.89,8.06-3.16-5.63a27.69,27.69,0,0,0-1.66,4.54c.69.87,1.79,2.27,2.91,3.62h60.4a24.47,24.47,0,0,0-2.54-8.65Z"/><path class="cls-4" d="M67.28,492.13l2.61-4.06a22.27,22.27,0,0,0-1.32-1.95c-1.24,2.16-3.41,5.92-3.54,6s1.3-4.52,2.26-7.57c-.38-.41-.78-.82-1.2-1.22L65,485l.64-2.13a22.66,22.66,0,0,0-1.93-1.56l-3,5.66,2.06-6.33a20.79,20.79,0,0,0-2.26-1.27l-3,11.63L59,478.76a20.17,20.17,0,0,0-3-.92c-.47,2.43-.95,4.85-1,5s.08-2.63.23-5.13a17.5,17.5,0,0,0-3.18-.28H52L50.4,485.9v-8.41a18.53,18.53,0,0,0-3.73.74l-1.13,9.21-.78-8.51a20.54,20.54,0,0,0-3.4,1.83l1,8.91-2.5-7.82c-.37.29-.72.58-1.07.88l.52,3.48-.92-3.11a21.06,21.06,0,0,0-1.62,1.66c.77,3.75,1.82,8.79,1.89,9.06s-2-4.36-3.26-7.36a20.79,20.79,0,0,0-1.2,1.85l1.19,5.08-2-3.55a17.38,17.38,0,0,0-1.05,2.86c.44.56,1.13,1.44,1.84,2.29H72.28a15.55,15.55,0,0,0-1.6-5.46Z"/><path class="cls-5" d="M306.91,490.45l4.14-6.42a35.82,35.82,0,0,0-2.09-3.1c-2,3.42-5.41,9.39-5.62,9.52s2.07-7.16,3.58-12q-.9-1-1.89-2l-1.8,2.66,1-3.38a38.24,38.24,0,0,0-3.05-2.47l-4.82,9,3.25-10a33.78,33.78,0,0,0-3.57-2l-4.69,18.44,2.47-19.42a31.61,31.61,0,0,0-4.73-1.46c-.75,3.85-1.5,7.69-1.59,7.9s.15-4.17.38-8.14a28.89,28.89,0,0,0-5-.44h-.11l-2.59,13.46V467.26a29,29,0,0,0-5.9,1.18L272.45,483l-1.23-13.47a33.18,33.18,0,0,0-5.39,2.89l1.56,14.11-4-12.38c-.58.45-1.14.92-1.69,1.4l.83,5.5-1.47-4.92c-.9.85-1.76,1.72-2.57,2.63,1.23,5.94,2.89,13.93,3,14.35s-3.09-6.9-5.16-11.65a33.07,33.07,0,0,0-1.9,2.92l1.89,8.06-3.16-5.63a26.8,26.8,0,0,0-1.66,4.54c.69.87,1.79,2.27,2.91,3.62h60.39a24.45,24.45,0,0,0-2.53-8.65Z"/><path class="cls-6" d="M264.88,492.13l2.62-4.06a22.27,22.27,0,0,0-1.32-1.95c-1.24,2.16-3.42,5.92-3.55,6s1.31-4.52,2.26-7.57c-.38-.41-.78-.82-1.19-1.22L262.56,485l.64-2.13a24.19,24.19,0,0,0-1.92-1.56l-3,5.66,2.05-6.33a20.65,20.65,0,0,0-2.25-1.27l-3,11.63,1.56-12.25a20.29,20.29,0,0,0-3-.92c-.47,2.43-.94,4.85-1,5s.09-2.63.24-5.13a17.66,17.66,0,0,0-3.18-.28h-.07L248,485.9v-8.41a18.53,18.53,0,0,0-3.73.74l-1.14,9.21-.78-8.51a21.37,21.37,0,0,0-3.4,1.83l1,8.91-2.51-7.82c-.36.29-.72.58-1.06.88l.52,3.48L236,483.1c-.57.53-1.11,1.09-1.62,1.66.78,3.75,1.82,8.79,1.89,9.06s-2-4.36-3.25-7.36a20.79,20.79,0,0,0-1.2,1.85l1.19,5.08-2-3.55a17.32,17.32,0,0,0-1,2.86c.43.56,1.13,1.44,1.83,2.29h38.11a15.32,15.32,0,0,0-1.59-5.46Z"/><path class="cls-7" d="M114.38,364.37c-8,13.91-19.43,22.32-25.58,18.79s-4.66-17.66,3.32-31.56,19.43-22.33,25.58-18.8S122.36,350.46,114.38,364.37Z"/><circle class="cls-8" cx="129.57" cy="375.71" r="22.47" transform="translate(-267.45 393.59) rotate(-73.55)"/><circle class="cls-9" cx="129.57" cy="375.71" r="21.15" transform="translate(-182.55 129.69) rotate(-32.73)"/><path class="cls-8" d="M131.7,372.19a1.62,1.62,0,0,1-1.61-1.61V358.46a2.49,2.49,0,0,1,2.48-2.49,2.09,2.09,0,0,1,.43,0,19.7,19.7,0,0,1,8,3.32,2.53,2.53,0,0,1,1,1.44,2.5,2.5,0,0,1-.66,2.38l-8.56,8.56A1.59,1.59,0,0,1,131.7,372.19Z"/><path class="cls-8" d="M134.7,375.19a1.61,1.61,0,0,1-1.14-2.74l8.57-8.57a2.49,2.49,0,0,1,3.8.33,19.72,19.72,0,0,1,3.34,8.07,2.47,2.47,0,0,1-.84,2.32,2.57,2.57,0,0,1-1.66.59Z"/><path class="cls-8" d="M143.89,388.26a2.47,2.47,0,0,1-1.76-.73L133.56,379a1.61,1.61,0,0,1,1.14-2.74h12.07a2.57,2.57,0,0,1,1.66.59,2.47,2.47,0,0,1,.84,2.32,19.72,19.72,0,0,1-3.34,8.07A2.46,2.46,0,0,1,143.89,388.26Z"/><path class="cls-8" d="M132.57,395.45a2.49,2.49,0,0,1-2.48-2.5V380.84a1.61,1.61,0,0,1,1.61-1.61,1.59,1.59,0,0,1,1.13.48l8.54,8.53a2.56,2.56,0,0,1,.74,1.59,2.47,2.47,0,0,1-1.05,2.24,19.68,19.68,0,0,1-8.06,3.34A2.09,2.09,0,0,1,132.57,395.45Z"/><path class="cls-8" d="M126.56,395.45a2.15,2.15,0,0,1-.43,0,19.76,19.76,0,0,1-8-3.32,2.54,2.54,0,0,1-1-1.44,2.49,2.49,0,0,1,.65-2.38l8.57-8.56a1.56,1.56,0,0,1,1.13-.48,1.62,1.62,0,0,1,1.61,1.61V393A2.5,2.5,0,0,1,126.56,395.45Z"/><path class="cls-8" d="M115.25,388.26a2.48,2.48,0,0,1-2-1.05,19.86,19.86,0,0,1-3.34-8.07,2.48,2.48,0,0,1,.85-2.32,2.54,2.54,0,0,1,1.65-.59h12.08a1.6,1.6,0,0,1,1.13,2.74L117,387.53A2.48,2.48,0,0,1,115.25,388.26Z"/><path class="cls-8" d="M112.36,375.19a2.54,2.54,0,0,1-1.65-.59,2.48,2.48,0,0,1-.85-2.32,19.86,19.86,0,0,1,3.34-8.07,2.5,2.5,0,0,1,3.81-.33l8.56,8.57a1.6,1.6,0,0,1-1.13,2.74Z"/><path class="cls-8" d="M127.44,372.19a1.56,1.56,0,0,1-1.13-.48l-8.57-8.56a2.5,2.5,0,0,1,.35-3.82,19.76,19.76,0,0,1,8-3.32,2.15,2.15,0,0,1,.43,0,2.5,2.5,0,0,1,2.49,2.49v12.12A1.62,1.62,0,0,1,127.44,372.19Z"/><path class="cls-10" d="M89.39,335c8-9.1,18.51-.78,26.55-.11s13.12,1.92,13.59,6.27-4,6.44-8,7-5.19,5.8-9.94,9.72c-6.3,5.2-13.06,6.44-18.49,1.86C83.63,351.75,83.34,341.9,89.39,335Z"/><path class="cls-11" d="M127.32,340.82s6.68-2,10.4,1.81l-1.33,1s-1.57-3.57-9.77-1.55Z"/><path class="cls-12" d="M121.57,348.19c-4,.57-5.19,5.8-9.94,9.72-6.3,5.2-13.06,6.44-18.49,1.86a27.6,27.6,0,0,1-3.34-3.32l.55.54c7.36,7.73,18.85.36,21.38-3.49s3.53-6.27,9-6.42,6.19-.74,8.45-3.9l.2.11C128.44,346.23,124.85,347.72,121.57,348.19Z"/><ellipse class="cls-12" cx="108.49" cy="353.65" rx="5.24" ry="2.82" transform="translate(-225.35 194.31) rotate(-47.43)"/><path class="cls-13" d="M97.16,335.45a.49.49,0,0,1-.71,0,.5.5,0,1,1,.68-.74A.5.5,0,0,1,97.16,335.45Z"/><path class="cls-13" d="M91.75,341.75a.78.78,0,0,1-1.1.05.77.77,0,1,1,1-1.14A.76.76,0,0,1,91.75,341.75Z"/><path class="cls-13" d="M109.5,340.58a.84.84,0,0,1-1.17.05.82.82,0,0,1,0-1.16.81.81,0,0,1,1.16-.05A.83.83,0,0,1,109.5,340.58Z"/><path class="cls-13" d="M95.9,350.19a.3.3,0,0,1-.41,0,.29.29,0,0,1,0-.41.29.29,0,1,1,.43.4Z"/><path class="cls-13" d="M99.87,340.83a.27.27,0,1,1-.4-.36.28.28,0,0,1,.39,0A.27.27,0,0,1,99.87,340.83Z"/><path class="cls-13" d="M94.91,345.71a.19.19,0,0,1-.26,0,.18.18,0,0,1,.24-.27A.19.19,0,0,1,94.91,345.71Z"/><path class="cls-13" d="M92,350.16a.54.54,0,1,1-.8-.73.54.54,0,0,1,.8.73Z"/><polygon class="cls-14" points="124.27 377.05 128.87 375.13 128.87 380.93 125.85 381.95 122.87 380.75 124.27 377.05"/><path class="cls-15" d="M83.91,354.14s.41,10.55,12.18,19.24,20.42,11.95,26.64,3.27l1.54.4s.37,3.4,1.58,4.9c0,0-1.77.66-3,4.43-.41,1.29-.14,3.7-2,5.84-3.91,4.4-9.38,4.33-18.15,2C95.5,392.36,85,383.16,82.24,372.8a33.46,33.46,0,0,1,0-18.17Z"/><path class="cls-16" d="M124.36,377.72c-1.68.84-2.51,2.76-10.54,5.72-9,3.31-24.78-6.37-31.58-28.81l1.67-.49s.41,10.55,12.18,19.24,20.42,11.95,26.64,3.27l1.54.4S124.3,377.31,124.36,377.72Z"/><path class="cls-16" d="M99.63,378.6c2.52,1.45,4,3.63,3.26,4.87s-3.33,1.06-5.84-.39-4-3.63-3.26-4.87S97.12,377.15,99.63,378.6Z"/><path class="cls-17" d="M117.7,332.8c-6.15-3.53-17.6,4.89-25.58,18.8s-9.46,28-3.32,31.56L20.5,344a29,29,0,1,1,28.9-50.36Z"/><path class="cls-18" d="M213.31,382.75c-6,3.69-17.73-4.39-26.1-18.07S177,336.92,183,333.22s17.73,4.39,26.09,18.07S219.35,379.05,213.31,382.75Z"/><path class="cls-19" d="M210,360.05c7,5.58,3.1,13,.22,16.32s-11.78,7.91-11.45,11.88c0,0-8.29-14-2.71-22.79C201.44,357,207.42,358,210,360.05Z"/><path class="cls-20" d="M198.63,387.56a5.82,5.82,0,0,1-.09-1.91,11.08,11.08,0,0,1,.37-1.89c.18-.61.4-1.22.64-1.81s.51-1.17.78-1.75c.56-1.15,1.17-2.26,1.79-3.37s1.25-2.21,1.87-3.31,1.24-2.2,1.82-3.33a36.45,36.45,0,0,0,1.56-3.43A18.67,18.67,0,0,0,208,365a12.6,12.6,0,0,0,.36-1.83,7.35,7.35,0,0,0-.45-3.68l.08,0c.06.15.14.29.2.44a3.47,3.47,0,0,1,.17.45l.08.22.06.24.06.23,0,.24a7.8,7.8,0,0,1,.1,1.93,12.39,12.39,0,0,1-.28,1.91c-.15.63-.33,1.24-.54,1.85a43.17,43.17,0,0,1-3.32,6.88c-1.26,2.21-2.59,4.37-3.76,6.6a25.87,25.87,0,0,0-1.53,3.45,12.46,12.46,0,0,0-.47,1.82c0,.15,0,.31-.06.46s0,.16,0,.24,0,.15,0,.23a5.93,5.93,0,0,0,.05.94Z"/><path class="cls-20" d="M203.7,374.8c0,.1,2.2,4.93,2.18,4.9s-1.63-5.88-1.63-5.88Z"/><path class="cls-20" d="M205.46,371s-7.8,1.46-7.64,1.39,8.18-2.55,8.18-2.55Z"/><path class="cls-20" d="M208.14,364.61s-6.16,1.27-6,1.2,6.44-2.34,6.44-2.34Z"/><path class="cls-20" d="M202,378.07s-4.37,1.06-4.28,1,4.48-1.89,4.48-1.89Z"/><polygon class="cls-20" points="207.66 366.8 211.01 372.86 208.22 365.72 207.66 366.8"/><path class="cls-21" d="M195.58,366.26a15.18,15.18,0,0,0-.1,4.61c1.92-1.25,4,0,3.86,2.58-.2,3.27-3.55,2.27-3.55,2.27a28.61,28.61,0,0,0,3.66,10.22,3.77,3.77,0,0,0-.7,2.31S191,375.07,195.58,366.26Z"/><path class="cls-22" d="M203.84,337.39c-4.16,3.84-13.39,11.95-16.94,13.42a3.93,3.93,0,0,1-.64.21,2.87,2.87,0,0,1-.57.05c-3.15,0-4.06-5.76-1.77-8.92a5.3,5.3,0,0,1,.42-.52c3-3.18,2.6-9.81,9.61-12.57l.41-.08a30.63,30.63,0,0,1,7.82,6.46C202.73,336.06,203.29,336.71,203.84,337.39Z"/><path class="cls-22" d="M214.38,359.35l-.42.3c-2.34,1.57-4.07,4.26-5.84,5.65s-6.94,2.28-7.7.84a5.18,5.18,0,0,1-.19-3.38,10,10,0,0,1,1.94-4,40.7,40.7,0,0,1,9.29-8.7q.56,1.27,1,2.52A41.32,41.32,0,0,1,214.38,359.35Z"/><path class="cls-23" d="M212.48,352.57c-.16.22-.31.45-.47.68a28.47,28.47,0,0,1-9.84,8.65,13.17,13.17,0,0,1-1.94.86,17.16,17.16,0,0,1-5.34.77l-1.83.09a35,35,0,0,1-8.57-.93s-.67-1.05,0-4.71a69.31,69.31,0,0,1,1.2-6.91,12.52,12.52,0,0,1,.59-1.69,8.93,8.93,0,0,1,2-3c3.14-3,1.75-6.32,13.62-11l.26.06c.55.62,1.11,1.27,1.66,1.95a55.87,55.87,0,0,1,7.62,12.66Q212,351.32,212.48,352.57Z"/><polygon class="cls-22" points="207.21 339.9 200.7 346.03 195.31 345.63 198.33 346.99 194.21 350.65 189.46 351.04 193.24 352.54 186.94 357.66 197.08 351.82 197.08 354.94 199 350.02 202.89 346.68 203.84 350.05 203.84 345.41 209.55 340.7 207.21 339.9"/><path class="cls-24" d="M186.53,383.62c2.81,4.06,7.38,2,11.31-4,2.34-3.62,4.33-6.36,14.79-23.47,3.65-6,8.07-6.67,7.47-7.78,0,0-4.35-3.44-20.57,9.57-10.09,8.09-23.36,18-14,24.93Z"/><path class="cls-25" d="M186.73,382c-.71-.6-1.4-.95-1.55-.78s.3.81,1,1.41,1.39.95,1.54.78S187.43,382.61,186.73,382Z"/><path class="cls-26" d="M186.47,381.78s-3.89,3-5.73,4.66c0,0-2.83-2.49-4.22.06,0,0-2.39-3.26-4-2.1s-.35,2.86-1.85,4-.33,2.15,0,3.53-.21,3.35,1.81,3.73a13.67,13.67,0,0,0,5-.48l3.13-1,1.6-6.05,4.76-5.9Z"/><path class="cls-19" d="M187,382.37a39.4,39.4,0,0,0-5.7,7.2s3.48.72,4.63,2.37c2.59,3.7-1.78,4.67-1.11,6.15s-1.38,2.91-3.05,3c0,0-.29,2.65-1.67,2.36a3,3,0,0,1-2.13-2.33,1.09,1.09,0,0,1-1.58-.23c-.78-.91-2.19-1.77-.84-4.78,0,0-.69-.76-.14-2.65a3.3,3.3,0,0,1,3.43-2.31s4.07-6.5,8-9.09Z"/><path class="cls-25" d="M192.11,374.12l-5-5.47-.7.77C188.45,371.37,192.11,374.12,192.11,374.12Z"/><path class="cls-25" d="M201.9,373.37h0c.19-.31.4-.63.61-1L198,368.69A14.22,14.22,0,0,0,201.9,373.37Z"/><path class="cls-25" d="M202.82,365.93l-3.74-4.45-.51.52A18.75,18.75,0,0,0,202.82,365.93Z"/><path class="cls-25" d="M203.4,359.47l-2.14-2.92c-.18.14-.36.27-.54.42A19.09,19.09,0,0,0,203.4,359.47Z"/><path class="cls-25" d="M211.11,358.59l.16-.26-2-1.95Z"/><path class="cls-25" d="M194,384.09l-2.3-2.11,1.91,2.41Q193.78,384.26,194,384.09Z"/><path class="cls-27" d="M280.91,344l-68.3,39.19c6.14-3.52,4.66-17.66-3.32-31.56s-19.43-22.33-25.58-18.8L252,293.61A29,29,0,0,1,280.91,344Z"/><path class="cls-28" d="M153.05,353.41a5,5,0,1,1-6.52-2.74A5,5,0,0,1,153.05,353.41Z"/><path class="cls-29" d="M150.08,352.3c-.15.56-1,.83-1.79.6s-1.41-.85-1.27-1.41,1-.82,1.8-.6S150.23,351.75,150.08,352.3Z"/><path class="cls-30" d="M143.8,357.19a5,5,0,1,1-6.52-2.73A5,5,0,0,1,143.8,357.19Z"/><path class="cls-28" d="M140.83,356.09c-.14.55-1,.82-1.79.6s-1.41-.86-1.26-1.41.95-.83,1.79-.6S141,355.53,140.83,356.09Z"/><circle class="cls-31" cx="144.18" cy="361.38" r="5" transform="translate(-234.92 273.81) rotate(-55.24)"/><path class="cls-29" d="M145.84,358.39c-.15.55-1,.82-1.79.6s-1.41-.86-1.27-1.41.95-.83,1.8-.6S146,357.83,145.84,358.39Z"/><circle class="cls-32" cx="152.43" cy="353.66" r="3.44" transform="translate(-119.13 80.6) rotate(-21.53)"/><path class="cls-29" d="M153.57,351.6c-.1.38-.65.57-1.24.41s-1-.59-.86-1,.65-.57,1.23-.41S153.67,351.22,153.57,351.6Z"/><path class="cls-33" d="M160.22,361.86a3.44,3.44,0,1,1-4.48-1.88A3.44,3.44,0,0,1,160.22,361.86Z"/><path class="cls-29" d="M158.18,361.11c-.1.38-.65.56-1.24.41s-1-.59-.86-1,.65-.57,1.23-.42S158.28,360.72,158.18,361.11Z"/><circle class="cls-34" cx="152.64" cy="359.22" r="5" transform="translate(-83.82 48.69) rotate(-14.27)"/><path class="cls-29" d="M154.3,356.23c-.15.55-1,.82-1.8.6s-1.41-.86-1.26-1.41.95-.83,1.8-.6S154.45,355.67,154.3,356.23Z"/><circle class="cls-35" cx="154.31" cy="367.35" r="5" transform="translate(-225.79 486.84) rotate(-84.67)"/><path class="cls-29" d="M156,364.35c-.14.56-.95.83-1.79.6s-1.41-.85-1.26-1.41,1-.82,1.79-.6S156.12,363.8,156,364.35Z"/><circle class="cls-36" cx="147.58" cy="371.4" r="5" transform="translate(-186.38 151.89) rotate(-35.01)"/><path class="cls-29" d="M149.24,368.4c-.15.56-1,.82-1.8.6s-1.41-.86-1.26-1.41.95-.82,1.8-.6S149.38,367.85,149.24,368.4Z"/><circle class="cls-34" cx="152.63" cy="374.68" r="3.44"/><path class="cls-29" d="M153.78,372.62c-.11.38-.66.56-1.24.41s-1-.59-.87-1,.66-.57,1.24-.41S153.88,372.23,153.78,372.62Z"/><path class="cls-30" d="M151.39,364.33a3.44,3.44,0,1,1-4.48-1.88A3.43,3.43,0,0,1,151.39,364.33Z"/><path class="cls-29" d="M149.35,363.57c-.1.38-.65.56-1.23.41s-1-.59-.87-1,.65-.57,1.24-.41S149.46,363.19,149.35,363.57Z"/><circle class="cls-32" cx="138.85" cy="364.72" r="3.44" transform="translate(-163.18 117.58) rotate(-29.87)"/><path class="cls-29" d="M140,362.66c-.1.39-.66.57-1.24.42s-1-.59-.87-1,.66-.57,1.24-.42S140.1,362.28,140,362.66Z"/><circle class="cls-28" cx="143.33" cy="368.77" r="3.44" transform="translate(-65.26 32.57) rotate(-10.58)"/><path class="cls-29" d="M144.47,366.71c-.1.39-.66.57-1.24.42s-1-.59-.86-1,.65-.57,1.23-.42S144.57,366.33,144.47,366.71Z"/><path class="cls-30" d="M153,377.3a2.57,2.57,0,1,1-3.35-1.4A2.58,2.58,0,0,1,153,377.3Z"/><path class="cls-29" d="M151.46,376.74c-.07.28-.48.42-.92.31s-.72-.44-.65-.73.49-.42.93-.31S151.54,376.45,151.46,376.74Z"/><path class="cls-35" d="M145.91,353.29a3.44,3.44,0,1,1-4.48-1.88A3.43,3.43,0,0,1,145.91,353.29Z"/><path class="cls-29" d="M143.88,352.53c-.11.38-.66.56-1.24.41s-1-.59-.87-1,.66-.57,1.24-.41S144,352.15,143.88,352.53Z"/><path class="cls-37" d="M144.36,351.56s-2.57-6.95-.69-11.59l.64.15a26.64,26.64,0,0,0,.9,11.44l.16,1.25Z"/><path class="cls-38" d="M146.83,354.32l.38.69a21,21,0,0,1-2.09-1.51l.26.47a11,11,0,0,1-1.81-1.08,4.38,4.38,0,0,1,.25,2l-.41-.4a4.26,4.26,0,0,1-1.48,3.46l-.19-.62a4.3,4.3,0,0,1-1.53,1.9l0-.44c-.9,1.28-3.6,1.91-3.6,1.91a5.72,5.72,0,0,1-.06-3.41l-.58.41a8.11,8.11,0,0,1,1.83-3.42,4.29,4.29,0,0,1,.62-.14l.52-1.15,2.31-5.12,0-.09a2.74,2.74,0,0,1,.38.5l-2.63,5.8h.32a3.44,3.44,0,0,1,5.48-2.24,5.12,5.12,0,0,1,1.72-1.18,4.79,4.79,0,0,1,1.15-.31,4.36,4.36,0,0,1,.63.77l-.55-.06c1.3,1,1.46,3.57,1.46,3.57A3,3,0,0,1,146.83,354.32Z"/><path class="cls-23" d="M141.49,348c-.86-2.46-4-2.32-4-2.32l.19.47s-.65-.21-1.78.57l.55.32s-1.49.22-1.9,2.34a7.73,7.73,0,0,0,1.84.71,6.61,6.61,0,0,0-2.62,2l.47.05a4.29,4.29,0,0,0-.8,1l1.55-.55a14,14,0,0,0-1.05,1.78,5.82,5.82,0,0,0,3.05-1.35l-.05.36s1.18-.58,1.48-1.25c0,0-2.68,2.67-3,4.71l.58-.41a5.69,5.69,0,0,0,.07,3.41s2.69-.62,3.59-1.91l0,.45a4.35,4.35,0,0,0,1.52-1.91l.19.63a4.3,4.3,0,0,0,1.49-3.46l.4.39a4.38,4.38,0,0,0-.25-2,10.57,10.57,0,0,0,1.81,1.08l-.26-.47a22.32,22.32,0,0,0,2.09,1.52l-.38-.7a3,3,0,0,0,2.39.32s-.16-2.54-1.46-3.57l.55.07s-1.08-1.8-2.67-1.68c0,0,1.38-.51,1.75-.3a2.7,2.7,0,0,0-2.34-1.44,2.67,2.67,0,0,1,.85-.63,4,4,0,0,0-3.94,1.85Z"/><path class="cls-11" d="M138.46,354.94l-.11,0a.28.28,0,0,1-.14-.36l3-6.67,2.18-8a.27.27,0,0,1,.33-.19.26.26,0,0,1,.19.33l-2.2,8-3,6.69A.26.26,0,0,1,138.46,354.94Z"/><path class="cls-11" d="M141.64,348.29a2.74,2.74,0,0,0-.38-.5l2.15-7.89a.27.27,0,0,1,.33-.19.26.26,0,0,1,.19.33l-2.2,8Z"/><path class="cls-11" d="M137.39,348.52a.27.27,0,0,1,0-.54l4.1-.27a.27.27,0,0,1,.29.25.28.28,0,0,1-.25.29l-4.1.27Z"/><path class="cls-11" d="M137.88,349.72a.26.26,0,0,1-.18-.07.27.27,0,0,1,0-.38l1.18-1.31a.27.27,0,1,1,.4.36l-1.18,1.31A.27.27,0,0,1,137.88,349.72Z"/><path class="cls-11" d="M145.26,351.1h-.06l-4.55-1.16a.27.27,0,1,1,.14-.52l4.54,1.16a.27.27,0,0,1-.07.53Z"/><path class="cls-23" d="M149.79,345.13a.4.4,0,0,1-.39-.25,1.12,1.12,0,0,1,.55-1.22,1.06,1.06,0,0,1,.67-.16,2.62,2.62,0,0,0,0-.28c-.06-.46-.38-1.51-2-1.51h-.05a3.08,3.08,0,0,0-.81.1,1.08,1.08,0,0,1,.18.24,1,1,0,0,1-.21,1.24.76.76,0,0,1-.91.17.85.85,0,0,1-.31-.95,1.36,1.36,0,0,1,.73-.8,4.05,4.05,0,0,0-3.48-.23l-.08-.25a4.16,4.16,0,0,1,3.86.36,3.57,3.57,0,0,1,1-.15,2,2,0,0,1,2.34,1.75,2.17,2.17,0,0,1,0,.36,2.74,2.74,0,0,1,1.25.91l-.21.18a2.62,2.62,0,0,0-1.06-.82,1.47,1.47,0,0,1-.91,1.28Zm.75-1.37a.81.81,0,0,0-.45.13.85.85,0,0,0-.44.88s0,.12.24.07a1.21,1.21,0,0,0,.71-1.08Zm-3.1-1.86a1.1,1.1,0,0,0-.71.68.6.6,0,0,0,.19.65.49.49,0,0,0,.59-.14.67.67,0,0,0,.15-.91A1.35,1.35,0,0,0,147.44,341.9Z"/><path class="cls-39" d="M106,423.53l-.48-.65c4.38-3.19,10.66-13.74,10.72-13.84l.71-1.19,0,1.38a66,66,0,0,0,2.91,16.42l-.76.27a64.39,64.39,0,0,1-2.88-15.36C114.49,413.4,109.68,420.84,106,423.53Z"/><path class="cls-40" d="M116.78,406.79a8.36,8.36,0,0,0-7.81,2.74l.64-.14a9.75,9.75,0,0,0-2.44,2.91s5,1.35,9.4-3.6c0,0,2.25,6.2,6.92,7.43a8.44,8.44,0,0,0-1.42-4.1l.86.23S120.22,407.43,116.78,406.79Z"/><path class="cls-41" d="M106.59,424.72a2.22,2.22,0,1,1-1.32-2.86A2.23,2.23,0,0,1,106.59,424.72Z"/><path class="cls-42" d="M121.83,428a2.22,2.22,0,1,1-4.17-1.54,2.22,2.22,0,0,1,4.17,1.54Z"/><path class="cls-23" d="M191.92,454.54c4.69-1.12,8.39-2.37,7.93-4.35,0,0,4.12-3.05,1.29-6.95s-6-1.82-6-1.82a5.69,5.69,0,0,0-4.47-3.9,7.11,7.11,0,0,0-5.38,1s-2.06-2.35-4.48-1.41a6.32,6.32,0,0,0-3.15,2.15,6.1,6.1,0,0,0-3.09.75c-1.38.85-.49,3-.49,3s-4.94-.37-5.67,2.54,2.13,4.93,2.13,4.93-3.28,2.89-.16,5.82,5.52,1.72,5.52,1.72.12,2.41,2,2.68A5.45,5.45,0,0,0,183,459.2l7.26,1.85Z"/><path class="cls-22" d="M193.83,463.87l-.37-12.68-2.33.69L190,456.66l-2.92-6.59-1.36.41s2.86,8.68.82,8.58-6.1-5.92-6.1-5.92l-1.14.89,5.37,9.91Z"/><path class="cls-43" d="M194.71,394.84c-4,7.28-1.56,9.27-9.84,12.21s-11.27,7.65-10.42,13.15c1,6.54,5.15,10.48,15.6,6.42s16.2-16.61,15.69-26.72S194.71,394.84,194.71,394.84Z"/><path class="cls-23" d="M202.86,390.52l2.1-4.86,2.29.23-3,5.87s2.43,1,2,5.43-1.19,4-2.45,5.43-3.33,4.78-5.47,2.89.67-4.57-2.18-6.19-3.61-3.75-.72-7.26S202.86,390.52,202.86,390.52Z"/><rect class="cls-44" x="110.23" y="457.01" width="18.21" height="4.53"/><polygon class="cls-45" points="115.04 468.01 133.25 468.01 128.15 460.93 109.94 460.93 115.04 468.01"/><polygon class="cls-46" points="123.34 468.01 105.13 468.01 110.23 460.93 128.44 460.93 123.34 468.01"/><rect class="cls-45" x="115.05" y="468.01" width="18.2" height="28.93"/><rect class="cls-44" x="105.13" y="468.01" width="18.2" height="28.93"/><polygon class="cls-47" points="128.52 462.38 132.37 467.51 124.96 467.51 128.52 462.38"/><polygon class="cls-48" points="132.37 467.51 127.21 464.27 124.96 467.51 132.37 467.51"/><rect class="cls-49" x="105.13" y="479.28" width="18.2" height="6.61"/><rect class="cls-50" x="123.27" y="479.28" width="9.98" height="6.61"/><path class="cls-19" d="M211.78,416.45c.21-.22,7.74-7.83,11.29-8.31l-.3-1.26a89,89,0,0,0-11.45,9.55Z"/><path class="cls-51" d="M211.38,416s5.38-5.78,8-7.69l.35.39s-7.68,6.8-8.57,7.82Z"/><path class="cls-52" d="M212.33,415.9c-4.09,3.91-6.21,10.19-10.64,13.4s-9.17-.55-3.19-6.07c4.7-4.35,4.88-1.36,13.06-7.46Z"/><path class="cls-53" d="M196,426.43c-1.54,3.59,2.14,5.4,5.65,2.87,4.43-3.21,6.55-9.49,10.64-13.4l-.36-.06h0a54.29,54.29,0,0,0-8.36,10.05C201.41,429.27,196.08,431.64,196,426.43Z"/><path class="cls-54" d="M151.84,479.49s-15.46-7.05-18.26-10.93c0,0,.07,8.3,4.23,11.92a17,17,0,0,0-4.23,10.2s9.5-6.1,16.08-5.93S151.84,479.49,151.84,479.49Z"/><path class="cls-54" d="M218.64,466.4l-14.26-11.77s-19.36,7-24.65,10.58,21.19,2.28,21.19,2.28Z"/><path class="cls-54" d="M173.29,467.34s-4.18-2.35-5.79-2.68l2.89,4.1Z"/><polygon class="cls-54" points="163.99 471.66 160.86 468.76 161.04 472.54 163.91 472.54 163.99 471.66"/><polygon class="cls-54" points="158.52 485.88 156.15 489.5 160.86 487.69 158.52 485.88"/><polygon class="cls-54" points="169.18 487.69 166.99 491.81 172.47 489.5 169.18 487.69"/><path class="cls-55" d="M149.92,478.45c25.5-14.78,51-21.15,67.08-12.92,13.7,7,17,14.51,17,14.51l-3.47,1,2.47,1.66s-11.06,11.92-37.26,10.36a193,193,0,0,1-46.06-8.35Z"/><circle class="cls-46" cx="219.16" cy="472.95" r="2.08"/><path class="cls-56" d="M220,473a.88.88,0,1,1-.88-.88A.87.87,0,0,1,220,473Z"/><path class="cls-54" d="M211.62,467c-6.42,7.41-3.44,16.81,0,20.73,0,0-6.09-3-5.6-11.35S211.62,467,211.62,467Z"/><path class="cls-54" d="M192.53,492.88s-5.1,5.51-10.61,5.51l3.46-6.58Z"/><path class="cls-54" d="M195.33,475s-6.91,4.41-11.19,4.59c0,0,6.75,2.81,10.2,2Z"/><path class="cls-57" d="M231.55,476.46c-14.07-14-31.33-12.49-45.21-10.9s-20.67,6.8-36.41,12.89c25.49-14.78,51-21.14,67.07-12.92C224.77,469.51,229.18,473.63,231.55,476.46Z"/><ellipse class="cls-57" cx="197.84" cy="466.18" rx="7.06" ry="2.95"/><path class="cls-23" d="M152,497.53c-8.69.68-16.75.28-22.29-5.16-5.06-5-6.62-10.05-5.35-19.9,1.16-9.08,3.43-14.63,3.68-21.32s3.57-12.26,9.14-11.79S152,497.53,152,497.53Z"/><path class="cls-58" d="M150.55,448.75c-5.92-6.71-9.92-10.1-15.57-9-3.77.74-5.34,4.36-5.46,11.55-.14,8.41,1.17,11.15.28,14.7-1.42,5.69-1.35,9.69.84,16.77s13.26,18.09,24.58,14.46,13.11-15.75,10.22-23.14S157.42,456.54,150.55,448.75Z"/><path class="cls-59" d="M152.71,448.34c-5.92-6.71-9.92-10.1-15.57-9-3.77.75-5.34,4.37-5.46,11.55-.14,8.41,1.17,11.16.28,14.71-1.43,5.68-1.35,9.68.84,16.77s13.26,18.08,24.57,14.45,13.12-15.75,10.23-23.14S159.58,456.14,152.71,448.34Z"/><path class="cls-60" d="M152.3,450.17c-5.37-6.09-9-9.17-14.13-8.15-3.41.68-4.84,4-4.95,10.48-.13,7.63,1.06,10.12.25,13.34-1.29,5.15-1.22,8.78.77,15.21s12,16.4,22.29,13.11,11.89-14.29,9.27-21S158.53,457.24,152.3,450.17Z"/><path class="cls-59" d="M159.78,476.23c-3.23-10.26-9.36-15.59-12.84-14.73s-6.31,6.33-5.21,14.48,6.5,12.93,12.39,11.18S160.92,479.84,159.78,476.23Z"/><path class="cls-61" d="M161.31,474.46c-3.23-10.27-9.36-15.6-12.84-14.73s-6.31,6.33-5.21,14.48,6.5,12.92,12.39,11.17S162.44,478.06,161.31,474.46Z"/><path class="cls-62" d="M157,469.49c-1.57-2.19-4-.7-2.51,2.64s1.91,5.4,1.29,7.88,1.88,3.29,3.09-.58A10.75,10.75,0,0,0,157,469.49Z"/><path class="cls-12" d="M110.31,354.46s0,0,0,0a0,0,0,0,1,0,0,0,0,0,0,1,0,0A0,0,0,0,1,110.31,354.46Z"/><path class="cls-17" d="M159.34,432.19c-11.85,8.43-22.49,3-26.93-.74s-5.77-11.77-3.08-15.12,3.88-3.55,5.66-7.43,1.42-7.07,5.62-10.83c5.68-5.08,14.47-1.32,18.49,2.73,7.65,7.72,8.17,14.79,6.92,20.4S162.17,430.19,159.34,432.19Z"/><path class="cls-7" d="M136.51,411.31c-3.2,1.83-5.07,5.35-4.5,5.68s2.5-4.07,3.5-4-.75,2.11-.32,2.16,3.08-3.48,3.79-5.52-.81-4.44-.16-5.3-.81-.46-1.06.77.87,2.49.25,3.82-.32-1.56-.91-1.6.19,2.87-.56,3.36S136.51,411.31,136.51,411.31Z"/><path class="cls-63" d="M129.63,398c-3.4,7,4.63,12.31,6.87,13.62a.65.65,0,0,0,.88-.24l.12-.22a.63.63,0,0,0-.27-.89c-2.3-1.12-9.8-5.57-4.18-14Z"/><path class="cls-64" d="M140.1,401.09c2.53-3.87,8.41-7.68,18.4,1.81A15.88,15.88,0,0,0,148,399C141.92,399.26,140.1,401.09,140.1,401.09Z"/><path class="cls-7" d="M166.54,417a20.89,20.89,0,0,1-.52,4.2c-1.24,5.62-3.85,9-6.68,11-11.85,8.43-22.49,3-26.93-.74a10.32,10.32,0,0,1-2-2.19c13.37,8.45,11.94.87,18.93-1.2S160.62,432.7,166.54,417Z"/><path class="cls-19" d="M220.39,389.25a1.29,1.29,0,1,1-.57-1.73A1.29,1.29,0,0,1,220.39,389.25Z"/><path class="cls-19" d="M225,388.83a1.29,1.29,0,1,1-.56-1.74A1.29,1.29,0,0,1,225,388.83Z"/><path class="cls-19" d="M225,393a1.29,1.29,0,1,1-.57-1.74A1.29,1.29,0,0,1,225,393Z"/><rect class="cls-19" x="216.05" y="392.09" width="8.56" height="0.12" transform="translate(-214.57 277.32) rotate(-45.88)"/><path class="cls-19" d="M220.65,391.83v0c-1-2.27-1-2.31-.94-2.34l0,0h0v.06h.05c0,.11.58,1.42.94,2.23l2.2.48,0,.12Zm-.91-2.34v0Z"/><path class="cls-19" d="M162,338.46a1.29,1.29,0,1,1-1.27,1.31A1.3,1.3,0,0,1,162,338.46Z"/><path class="cls-19" d="M159.52,334.55a1.29,1.29,0,1,1-1.28,1.31A1.29,1.29,0,0,1,159.52,334.55Z"/><path class="cls-19" d="M163.26,332.65a1.3,1.3,0,0,1,1.31,1.28,1.29,1.29,0,0,1-2.58,0A1.29,1.29,0,0,1,163.26,332.65Z"/><rect class="cls-19" x="164.58" y="332.89" width="0.12" height="8.56" transform="translate(-205.42 399.19) rotate(-73.49)"/><path class="cls-19" d="M164.2,337l0,0c-1.55,1.93-1.59,1.93-1.64,1.92h0v0l.05,0h0l0-.05c.09-.06,1-1.17,1.54-1.86l-.6-2.18.12,0Zm-1.64,1.89.05,0Z"/><path class="cls-25" d="M168.1,358.5c-7.23,4.69-3.64,17.1,5.72,16.32s10.47-8,9.45-11.57C181.84,358.26,176.75,352.88,168.1,358.5Z"/><path class="cls-65" d="M183.23,368.17c-.94,3.11-3.69,6.39-9.85,6.78-7.34.46-10.22-5.9-9-11.26h0C163.83,371.67,176.48,377.82,183.23,368.17Z"/><path class="cls-65" d="M170.46,358c-1,.42-.94.76.75.31s2.23-.46,2.88-.93S173,356.91,170.46,358Z"/><path class="cls-19" d="M171.64,357.69c-3.29-3.31-5.91-3-5.91-3l1.74-1.86s2.09.83,4.21,4.71Z"/><path class="cls-51" d="M171.81,358s-1.31-3.83.53-5.33l1.09.18a4.39,4.39,0,0,0-1.24,5.09Z"/><path class="cls-66" d="M183.45,364h0c-1.46-4-5.33-7.28-8-7.93h0c4.27.22,6.9,3.77,7.87,7.14C183.34,363.5,183.4,363.76,183.45,364Z"/><path class="cls-66" d="M178.68,357.48s-1.25-.42-1.24.91,4.26,3,3.63,1.65A8.17,8.17,0,0,0,178.68,357.48Z"/><path class="cls-67" d="M226.08,300.26c9.36,10.34,14.7,11.52,33.32,15.56l3.12-3.95L233,293.42Z"/><path class="cls-68" d="M240,300.67a4.67,4.67,0,0,0-.2-3l-4.06-2.15s-5.06-.42-5.18.36-.63,4.3.31,4.8,19.16,14,19.16,14l4.81,0S239.63,302.76,240,300.67Z"/><path class="cls-69" d="M285.13,337.62c-2.17-.39-1.09,1.2-1.09,1.2l2,2.46s5.73-4.11,5.75-6.61C291.79,334.67,287.31,338,285.13,337.62Z"/><path class="cls-67" d="M261.86,311.45,259.07,315s6.33,8.37,8.77,10.07,15.81,13.74,15.81,13.74l1.48-1.19L264.31,312.8Z"/><path class="cls-67" d="M224.23,306c.83,12,16.34,13.5,35.34,19.16l3-4.06L233,300.47Z"/><path class="cls-68" d="M234.86,301.44,224.23,306s-.08,2.7.94,3.84c2.37,2.64,17.58-.72,14.74-4.66Z"/><path class="cls-69" d="M256,357.34c-1-2-1.61-.18-1.61-.18l-.8,3.06s6.69,2.21,8.72.75C262.32,361,257,359.33,256,357.34Z"/><path class="cls-67" d="M263.37,321.74l-.8-.57L258.92,323s-3,10-3,13-1.78,20.89-1.78,20.89l1.83.49,8.45-32.58A2.85,2.85,0,0,0,263.37,321.74Z"/><path class="cls-41" d="M237.27,271.39c1.49-3.16-5.44-6.62-5.44-6.62a12.5,12.5,0,0,1-4.12,9.16c-2.23,1.79-10.74,4.55-10.72,9.24,0,10.05,11.43,12.32,18.46,5.69S235.77,274.55,237.27,271.39Z"/><path class="cls-41" d="M230.18,267.76c-1.14,1.45-2.31,2.95-1.84,4.8l.13,0c-.46-1.79.7-3.26,1.82-4.68a8.5,8.5,0,0,0,1.84-3.17l-.13,0A8.23,8.23,0,0,1,230.18,267.76Z"/><path class="cls-14" d="M243.77,279.15,235,271.33l-2-.29-3,.82-6.09,7.33,3.88,14.43s-5.55,11.22-4.35,13.44c0,0,5.86,1.49,16-.1l1-5.59,2.28,4.62a17.74,17.74,0,0,0,6.49-2.08l-6.21-12.5Z"/><path class="cls-70" d="M254.14,252.72c-.11-.07-.19-.27-.41-.21s-.35-.78-.35-.78,0-.58-.26-.42-.24,2.16-.24,2.16a2.46,2.46,0,0,0-.86-.24c-.35,0-.25.29.33.6s.73,1.56.73,1.56l1.31,1.21,0-1.05c1.05-.42.5-2.16.16-2.44C254.35,253,254.43,252.89,254.14,252.72Z"/><path class="cls-14" d="M242.55,273.16c-2.93-.66-8.92-.12-8.92-.12l2.42,4.86,5.43,2.91,10.2,2c4-.65,4.12-3.61,4.33-5.75l-.84-2S246.35,274,242.55,273.16Z"/><polygon class="cls-71" points="232.75 272.35 230.88 273.58 233.02 276.27 235.02 274.39 236.3 276.05 237.31 273.84 235.64 272.38 232.75 272.35"/><path class="cls-70" d="M234,265.24l-1,6.67a2.53,2.53,0,0,0,1.16,1.36,1.8,1.8,0,0,0,1.7-.22l.48-3.37-1.68-4.9Z"/><path class="cls-72" d="M233.49,268.56c.55,3.16,2.56,2.87,2.56,2.87l.33-1.69-2.63-3.53Z"/><path class="cls-70" d="M236.05,261.52c-.37,0-2.92,1.31-2.7,5,.23,3.87,2.86,4.54,2.86,4.54,3.27.78,5.16-3.85,5-8.12C241.17,262.91,236.42,261.48,236.05,261.52Z"/><path class="cls-41" d="M237.68,260.2c-2-.37-4.58-.17-5.6,3.09a5.1,5.1,0,0,0,.29,3.49c.64,1.55,1,2.53,1,2.53l.82-3.2.83-1.36a9.15,9.15,0,0,0,5.06-1c1.23.14,1.41.34,1.44-.07C240.71,261.09,239.39,260.51,237.68,260.2Z"/><path class="cls-41" d="M236.76,263.33c-.12.15-2.78,1.12-2.78,1.12l.17,2.3.71-1.24s3.18,1.14,5.24-1.22A23.09,23.09,0,0,0,236.76,263.33Z"/><path class="cls-70" d="M233.09,265.08c-.2.78,0,2.49.83,2s.39-1.79.39-1.79C234,264.2,233.3,264.3,233.09,265.08Z"/><path class="cls-41" d="M238.54,262.46c-.09.07-1.87.86-1.87.86l2.48,1h.95s.24,1.5.94,1.88c0,0,1-1.53.48-2.65S238.64,262.39,238.54,262.46Z"/><path class="cls-41" d="M236.82,266.51a2.53,2.53,0,0,1-2.21-.83l-.1.08a2.37,2.37,0,0,0,1.18.77,2.86,2.86,0,0,0,1.14.11,4.29,4.29,0,0,0,3.28-2.29l-.12-.06A4.15,4.15,0,0,1,236.82,266.51Z"/><path class="cls-71" d="M252.84,255l.11.72,2.1,2.32,0-2.5A3.84,3.84,0,0,0,252.84,255Z"/><path class="cls-14" d="M249.21,270.49l-.55,6.09h0c1.86.64,5.75,3,7.22,1.72l.15-4.53-.89-18.13-2.32-.16Z"/><path class="cls-14" d="M230.42,271.73l-10-5.38-5,4s5.94,7.83,10.64,10.1c2.27,1.09,3.38-.72,4.29-3.55C231.63,272.83,230.42,271.73,230.42,271.73Z"/><path class="cls-70" d="M222,251.15a2.29,2.29,0,0,0-.83,0s.42-1.82.22-2-.31.32-.31.32.12-.67-.07-.77-.3.51-.3.51,0-.37-.12-.4-.24.26-.28.55a.24.24,0,0,1,0,.07s0,0,0-.07,0-.24-.14-.27-.19.28-.28.58c-.25.81-.76,1.66-.35,2.56l-.38,1.47,1.44-.83s.4-1.11,1-1.27S222.33,251.24,222,251.15Z"/><path class="cls-70" d="M220.33,249.39s0,.05,0,.07A.24.24,0,0,0,220.33,249.39Z"/><path class="cls-73" d="M218.76,252.61l-.48,2.28,2.39-1.68.25-.63A3.68,3.68,0,0,0,218.76,252.61Z"/><path class="cls-14" d="M220.81,253l-2.15-.33-3.86,13.94a5.14,5.14,0,0,0,.79,4.36h0a5.09,5.09,0,0,0,4.69,2.06h0l.74-5.65Z"/><path class="cls-74" d="M90.58,451.77l-3.89,2.65c-15-10.88-18.92-12.56-24.35-24.38l8.53-.84Z"/><path class="cls-75" d="M73.47,431.78l3.19,4.06c-1.42,1.9-5.08,5.59-5.08,5.59l5,5.71L69.42,442l-.94-3.87a39,39,0,0,1-.08-5C68.62,433,73.47,431.78,73.47,431.78Z"/><path class="cls-69" d="M88.89,487.08c1.11,1.73,6.25,2.67,6.25,2.67C93.42,491.33,87,490,87,490l.41-2.93S87.78,485.34,88.89,487.08Z"/><path class="cls-74" d="M90.78,451.72l.94,1.6a4.39,4.39,0,0,1,.58,2.7l-3.41,31.06-1.75-.25s-.27-16.79-.66-19.54-.25-14.47-.25-14.47Z"/><path class="cls-14" d="M67.43,430.09,63.36,461l-4.65-.69c-3.65-18.13-5-22-1-34.39Z"/><path class="cls-74" d="M66.11,440.17C61,441.4,55.26,439,55.26,439v-1H66.49Z"/><path class="cls-69" d="M53.07,493.78c.69,2,5.49,4,5.49,4-2,1.15-8-1.57-8-1.57l1.05-2.77S52.37,491.84,53.07,493.78Z"/><path class="cls-14" d="M58.74,460.27h4.65l0,2.61-10.37,30.9-1.65-.63s3.51-16.43,3.75-19.19S58.74,460.27,58.74,460.27Z"/><path class="cls-76" d="M52.83,406.74l8.55-6,2.28-.69,2.47.52,7.66,7.84L74.18,422l3,14.8A16.66,16.66,0,0,1,71,438.34L69.2,433.9,67.94,439a37.36,37.36,0,0,1-16.29-2c-1-2.14,1.73-15.05,1.73-15.05Z"/><path class="cls-70" d="M91,403a.1.1,0,0,1,0,.05Z"/><path class="cls-70" d="M88.59,403.19a2.15,2.15,0,0,1,.6.58s.89-1.64,1.16-1.66,0,.45,0,.45.36-.58.56-.53-.1.58-.1.58.24-.28.35-.22,0,.35-.16.6l0,.05a.1.1,0,0,0,0-.05c.06-.08.16-.18.29-.12s0,.33-.17.63c-.34.77-.52,1.75-1.43,2.15L89,407l-.53-1.57s.42-1.11.09-1.61S88.3,403.05,88.59,403.19Z"/><path class="cls-76" d="M82.08,415.68l-6.64,5.15-6-10.59-3.32-4.68V400.5a74,74,0,0,1,8,4.89C76.93,407.68,82.08,415.68,82.08,415.68Z"/><path class="cls-76" d="M63.27,402.19a30.41,30.41,0,0,1,6.16,7.36l-5-.16-4.18,9.45L49,400.4l5-6.75S60.43,399.93,63.27,402.19Z"/><path class="cls-77" d="M66.13,400.56l.11-.27a21,21,0,0,0,2.47,1.65l-3,5.78-5.21-7.91,3.57-.22Z"/><path class="cls-70" d="M66.32,395.27l.6,3.81-.86,2.44s-.68.81-1.27.4a3.23,3.23,0,0,1-1-1.62l1.88-4.78Z"/><path class="cls-72" d="M67.05,399.15l-.65,1.42a3.51,3.51,0,0,1-1.47-3.2l.45-1.16Z"/><path class="cls-70" d="M68.88,393c.3.06,3.75,2.14,3.75,2.14.05,3.6-2.79,7.15-6.24,4.61,0,0-2-1.11-.86-3.7S68.57,392.91,68.88,393Z"/><path class="cls-17" d="M70,391.87c-.15-1.12,2.13-1.42,3.3-.46s1.32,3.2-.15,3.71-4.62-1.42-4.62-1.42l-2.08,1.62-.1-.69L65.53,396l-.61,1.57s-.84-3.22.63-4.85S70,391.87,70,391.87Z"/><path class="cls-70" d="M66.45,395s0,1.33-.85,1.54-.6-1.43-.2-2.09S66.47,393.85,66.45,395Z"/><path class="cls-73" d="M90.08,406.44l-1.14,2-.69-2.84.23-.63A3.58,3.58,0,0,1,90.08,406.44Z"/><path class="cls-76" d="M88.26,405.42l1.83,1.16-5,14.36a4,4,0,0,1-3.55,2.67l-2.2.12a2.63,2.63,0,0,1-2.07-.86l-1.87-2,3.16-4.75Z"/><polygon class="cls-78" points="75.41 420.84 74.01 418.42 73.75 414.85 77.2 422.88 75.41 420.84"/><path class="cls-70" d="M43.94,374.65c.14,0,.21.1.25.18a.14.14,0,0,1,0,.07.17.17,0,0,0,0-.07c-.1-.27-.11-.59,0-.62s.29.3.29.3-.18-.59,0-.59.42.65.42.65-.14-.52.13-.43.75,1.88.75,1.88a2.17,2.17,0,0,1,.71-.42c.32-.07.29.2-.15.61s-.28,1.59-.28,1.59l-.88,1.41-.35-1.48c-.79-.6-.73-1.6-.89-2.43C43.9,375,43.83,374.67,43.94,374.65Z"/><path class="cls-70" d="M44.19,374.83a.17.17,0,0,1,0,.07A.14.14,0,0,0,44.19,374.83Z"/><path class="cls-73" d="M46.2,377.38l.08.67L45,380.65l-.64-2.24A3.61,3.61,0,0,1,46.2,377.38Z"/><path class="cls-76" d="M55.22,395.8,49,400.38l-2-2.7a6.2,6.2,0,0,1-1.14-3l-1.6-16.13,2.05-.71Z"/><path class="cls-69" d="M66.18,410.2a.49.49,0,1,1-.49.49A.49.49,0,0,1,66.18,410.2Z"/><path class="cls-69" d="M68.38,431a.49.49,0,1,1-.49.49A.49.49,0,0,1,68.38,431Z"/><path class="cls-69" d="M67.4,425.15a.5.5,0,1,1-.49.5A.49.49,0,0,1,67.4,425.15Z"/><path class="cls-69" d="M66.18,417.43a.49.49,0,1,1-.49.49A.49.49,0,0,1,66.18,417.43Z"/><path class="cls-70" d="M245.25,404.67s-.6-1-.34-1.55.17-.8-.09-.62a2.18,2.18,0,0,0-.52.66s-1.15-1.47-1.43-1.45,0,.45,0,.45-.44-.52-.64-.44.2.55.2.55-.29-.24-.39-.17.07.4.29.62c0,0-.18-.24-.35-.13s.09.32.27.59c.46.7.8,1.63,1.77,1.88l.9,1.22Z"/><path class="cls-73" d="M245.54,404.83l-.33-.59a3.6,3.6,0,0,0-1.39,1.65l1.46,1.81Z"/><path class="cls-79" d="M256.9,413.56l-11.41-8.94L243.82,406l7.24,13.24a4.1,4.1,0,0,0,4,2.07l2.23-.22a2.74,2.74,0,0,0,2-1.14l1.57-2.28Z"/><path class="cls-24" d="M268.66,427.1c1,12.78-1.74,16.12-9.77,32.62l-4.78-.44,8.08-33.07Z"/><path class="cls-80" d="M260.32,433.48a37.84,37.84,0,0,0,6,1.86s.09,10.34-2.15,13.68c0,0,7.84-11,8.48-19.65s-5.38-5.73-5.38-5.73l-4.71,1.2Z"/><path class="cls-69" d="M258.18,492.3l.35,2.89s-6.61,1.15-8.33-.45c0,0,5.27-.8,6.44-2.49S258.18,492.3,258.18,492.3Z"/><path class="cls-24" d="M259,458.37s1.07,11.75.61,14.44-1.13,19.24-1.13,19.24l-1.8.2-2.86-32.1.7-2.48Z"/><path class="cls-24" d="M279.72,423.5c4.46,12.08,3.18,15.95,0,33.91l-4.72.81-5.84-34.53Z"/><path class="cls-24" d="M277,455.63s11.31,2.75,13.85,3.95,18.75,6.6,18.75,6.6l-.31,1.72-29.93-6.42a6.71,6.71,0,0,1-4-2.64l-.4-.55Z"/><path class="cls-79" d="M267.06,396.51a75.41,75.41,0,0,0-7.3,6c-2.48,2.65-6.44,11.22-6.44,11.22l7.51,4,4.39-11.2,2.63-5.07Z"/><path class="cls-79" d="M284,417.42l1.14,8.35a42.38,42.38,0,0,1-14.82,2.15l-1.13-4.23-1.4,4.24a23.69,23.69,0,0,1-5.87-.56l-.6-13.21,3.23-9.54,8.15-5.22,7,4.84Z"/><path class="cls-81" d="M271.05,419.13S275,424,284.6,422.08c0,0,.06-4.92-1.42-7.08S271.05,419.13,271.05,419.13Z"/><path class="cls-79" d="M271.15,395.94s7.41.08,9.92,3.8c5.37,8,1.59,20.27,1.59,20.27l-7.82,2.67,1.43-17.83-4.08-4.06Z"/><polygon class="cls-79" points="267.38 425.77 275.72 424.53 272.14 396.25 271.88 396.02 269.48 395.69 267.07 396.57 263.19 399.45 267.38 425.77"/><path class="cls-79" d="M264.68,398.3l3.9,5.18,3.49-7.39-.13,0-.06-.05-2.91-.7-1.9,1.25-.15-.25A22.49,22.49,0,0,1,264.68,398.3Z"/><path class="cls-70" d="M266.6,395.09l.51,2.5s.57.9,1.23.58a3.24,3.24,0,0,0,1.21-1.45l-1.2-4.92-.57-.33Z"/><path class="cls-72" d="M268.86,393.71a3.46,3.46,0,0,1-1.95,2.91l-.45-1.47,2.13-2.64Z"/><path class="cls-70" d="M261.42,390.4c-.58,3.5,1.77,7.37,5.63,5.39a2.69,2.69,0,0,0,1.41-3.49c-.74-2.69-2.62-3.45-2.93-3.45S261.42,390.4,261.42,390.4Z"/><path class="cls-17" d="M265.8,389.62s-1.83,1.39-3.4,1.17c-2.46-.35-3.48-1.86-2.35-2.87,2-1.75,4.85-1.36,4.53-.29,0,0,3.09-.33,4.34,1.47s-.07,4.82-.07,4.82l-.39-1.62-.6-1.46-.19.66Z"/><path class="cls-70" d="M267.69,391.14c.14-1.08.82-1.08,1.14-.38s.33,2.33-.51,2S267.69,391.14,267.69,391.14Z"/><polygon class="cls-81" points="259.37 419.97 261.59 411.63 261.89 415.14 260.85 417.71 259.37 419.97"/><circle class="cls-55" cx="245.6" cy="402.96" r="17.54"/><path class="cls-70" d="M260.16,410.07s-.93-.74-.9-1.34-.12-.8-.31-.54a2,2,0,0,0-.24.78s-1.62-1-1.87-.86.21.4.21.4-.61-.33-.77-.18.39.44.39.44-.36-.12-.43,0,.22.35.5.47c0,0-.26-.16-.37,0s.21.27.47.45c.69.5,1.34,1.25,2.35,1.16l1.29.83Z"/><path class="cls-73" d="M260.48,410.11l-.53-.43a3.5,3.5,0,0,0-.69,2l2,1.18Z"/><path class="cls-79" d="M260.52,410.15l-.73,2,14.71,9.09a2.93,2.93,0,0,0,1.44.44h0a4.24,4.24,0,0,0,4.48-4l.13-3.48Z"/><path class="cls-81" d="M278.68,409.87c-2.17,3-11,1.41-11,1.41l10.15,2.39Z"/><path class="cls-81" d="M275.36,421.7c3.27.82,6.77-.2,8.14-5.53l.47,1.25s-1.57,6.1-8.59,4.34Z"/><path class="cls-46" d="M247.43,404.65h-4.58l-.78,2.23H240.2l3.91-10.94h2.08l3.91,10.94h-1.89Zm-2.28-6.54-1.79,5.08h3.57Z"/><circle class="cls-82" cx="239.17" cy="225.42" r="31.53" transform="translate(-6.05 444.23) rotate(-85.05)"/><path class="cls-46" d="M239.42,234.59h-7.86V215h7.49c4.16,0,6.36,2.29,6.36,5.06a4.6,4.6,0,0,1-3.33,4.49,4.89,4.89,0,0,1,3.79,4.81C245.87,232.31,243.43,234.59,239.42,234.59Zm-.65-17h-4v5.62h4c2.09,0,3.36-1,3.36-2.8S240.86,217.58,238.77,217.58Zm.25,8.25h-4.24V232h4.36c2.17,0,3.5-1.11,3.5-3S241.17,225.83,239,225.83Z"/><circle class="cls-24" cx="115.27" cy="287.85" r="22.38" transform="translate(-190.9 336.92) rotate(-77.28)"/><path class="cls-46" d="M123,288.6c0,4.3-2.92,6.92-7.4,6.92H111V281.58h4.55C120.05,281.58,123,284.29,123,288.6Zm-7.4,5.06c3.29,0,5.06-1.89,5.06-5.06s-1.77-5.15-5.06-5.15H113.3v10.21Z"/><path class="cls-83" d="M70.81,265.92a6.8,6.8,0,0,0-1-4.71,6.6,6.6,0,0,0-1.67-1.78,11.42,11.42,0,0,0-2.31-1.2c-.84-.35-1.75-.69-2.65-1.16a9.7,9.7,0,0,1-1.32-.83l-.33-.26c-.11-.1-.22-.2-.31-.3a5,5,0,0,1-.54-.67,6,6,0,0,1-.75-1.49,5.53,5.53,0,0,1-.28-1.68A4,4,0,0,1,60,250a3.24,3.24,0,0,1,1.43-1.36l.82,1.71a1.3,1.3,0,0,0-.57.54,2,2,0,0,0-.2.92,3.76,3.76,0,0,0,.69,2.1,3.47,3.47,0,0,0,.35.43l.19.18.22.18a7.92,7.92,0,0,0,1.06.66c.76.4,1.62.72,2.51,1.09a13.22,13.22,0,0,1,2.67,1.41,8.26,8.26,0,0,1,2.16,2.29,8.72,8.72,0,0,1,1.33,6Z"/><path class="cls-83" d="M25,258.1a38.41,38.41,0,0,0,8.78,6.35l-.89,1.68a40,40,0,0,1-9.2-6.67Z"/><rect class="cls-83" x="298.86" y="279.38" width="7.66" height="1.9" transform="translate(-109.57 296.14) rotate(-45)"/><path class="cls-83" d="M165.81,242a7.12,7.12,0,0,1-3.81-1.72,6,6,0,0,1-1.34-1.69,4.94,4.94,0,0,1-.58-2.17,3.77,3.77,0,0,1,.15-1.2,4.49,4.49,0,0,1,.48-1.07,5,5,0,0,1,1.61-1.57,4.45,4.45,0,0,1,2.21-.67,3.27,3.27,0,0,1,1.23.2,3.21,3.21,0,0,1,1.1.65l.62.56L167,234a4,4,0,0,1-1.07,1.06,4.4,4.4,0,0,1-1.37.6,5.55,5.55,0,0,1-2.78-.08,6.76,6.76,0,0,1-2.4-1.23,5.81,5.81,0,0,1-1.71-2.15,8.2,8.2,0,0,1-.68-2.53,11.43,11.43,0,0,1,0-2.55,23.36,23.36,0,0,1,1.17-4.71l1.8.61a20.24,20.24,0,0,0-1.08,4.32,7.61,7.61,0,0,0,.5,4.07,4.46,4.46,0,0,0,2.88,2.34,3.81,3.81,0,0,0,1.83.07,2.25,2.25,0,0,0,1.34-.9l.14,1.24a1.48,1.48,0,0,0-1-.37,2.66,2.66,0,0,0-1.25.4,3,3,0,0,0-1,1,2.1,2.1,0,0,0-.35,1.21,3.52,3.52,0,0,0,1.29,2.49,5.24,5.24,0,0,0,2.77,1.25Z"/><path class="cls-83" d="M118.12,245.27a9.31,9.31,0,0,1-4.54-5.26l1.8-.6a7.4,7.4,0,0,0,3.6,4.17Z"/></g></svg>