<svg xmlns="http://www.w3.org/2000/svg" viewBox="0 0 300 500"><defs><style>.cls-1{isolation:isolate;}.cls-2,.cls-27{fill:#e9eff4;}.cls-3{fill:#3a8ec1;}.cls-4{fill:#7e508e;}.cls-5{fill:#c4acd1;}.cls-6{fill:#f4af5d;}.cls-7{fill:#b55462;}.cls-8{fill:#f2785f;}.cls-9{fill:#e5bcb1;}.cls-10{fill:#d6aca1;}.cls-11{fill:#d1e9f2;}.cls-12{fill:#e2c39b;}.cls-13{fill:#f1e1cd;}.cls-14{fill:#f07a7a;}.cls-15{fill:#c99147;}.cls-16{fill:#f9f3f2;}.cls-17{fill:#ff7d7d;}.cls-18,.cls-26{fill:#fff;}.cls-19{fill:#ebebeb;}.cls-20{fill:#dad4e6;}.cls-21{fill:#ccc;}.cls-22{fill:#c1b7d4;}.cls-23{fill:#3ac1bd;}.cls-24{fill:#604691;}.cls-25{opacity:0.1;}.cls-25,.cls-27{mix-blend-mode:multiply;}.cls-26{opacity:0.5;}.cls-28{fill:#876070;}.cls-29{fill:#7b6758;}.cls-30{fill:#756151;}.cls-31{fill:#57323d;}.cls-32{fill:#826f61;}.cls-33{fill:#a390f8;}.cls-34{fill:#f8e8cf;}.cls-35{fill:#9c88f7;}.cls-36{fill:#ffcebf;}.cls-37{fill:#fcf3f2;}.cls-38{fill:#e5a495;}.cls-39{fill:#4e2649;}.cls-40{fill:#684c5a;}.cls-41{fill:#5b5959;}.cls-42{fill:#d15656;}.cls-43{fill:#e8fdff;}.cls-44{fill:#b0cfd1;}.cls-45{fill:#eff6f2;}.cls-46{fill:#84b0b3;}.cls-47,.cls-51{fill:#774b5c;}.cls-48{fill:#6b4152;}.cls-49{fill:#4f2f5b;}.cls-50{fill:#f2beb1;}.cls-51{opacity:0.53;}.cls-52{fill:#5f3c6b;}.cls-53{fill:#f7c289;}</style></defs><title>assets</title><g class="cls-1"><g id="Layer_2" data-name="Layer 2"><polygon class="cls-2" points="75.47 497.58 75.47 413.73 47.98 413.73 47.98 404.81 10.2 404.81 10.2 413.73 -6.07 413.73 -6.07 497.58 75.47 497.58"/><rect class="cls-2" x="-0.4" y="377.42" width="3.78" height="38.72"/><rect class="cls-2" x="17.33" y="396.73" width="25.92" height="14.06"/><rect class="cls-2" x="212" y="416.25" width="35.16" height="81.33"/><rect class="cls-2" x="220.51" y="389.28" width="22.25" height="31.48"/><rect class="cls-2" x="235.93" y="367.56" width="4.41" height="23.3"/><polygon class="cls-2" points="193.28 497.58 193.28 409.62 178.09 394.43 178.09 370.71 161.24 370.71 161.24 357.87 161.24 335.24 153.36 335.24 153.36 497.58 193.28 497.58"/><polygon class="cls-2" points="174.85 423.21 193.53 423.21 193.53 418.77 205.92 418.77 205.92 435.01 213.58 435.01 213.58 497.58 167.08 497.58 174.85 423.21"/><polygon class="cls-2" points="162 497.58 140.89 497.58 140.89 366.26 161.24 366.26 162 497.58"/><rect class="cls-2" x="60.49" y="408.49" width="15.01" height="5.25"/><rect class="cls-2" x="72.98" y="422.13" width="21.93" height="75.45"/><rect class="cls-2" x="94.18" y="378.37" width="32.53" height="119.22"/><rect class="cls-2" x="122.1" y="395.68" width="21.83" height="101.9"/><rect class="cls-2" x="101.11" y="372.38" width="18.79" height="6.82"/><rect class="cls-2" x="95.65" y="355.38" width="1.57" height="23.82"/><polygon class="cls-2" points="134.62 422.91 134.62 339.06 107.12 339.06 107.12 330.14 69.34 330.14 69.34 339.06 53.07 339.06 53.07 422.91 134.62 422.91"/><rect class="cls-2" x="58.74" y="302.75" width="3.78" height="38.72"/><rect class="cls-2" x="76.48" y="322.06" width="25.92" height="14.06"/><rect class="cls-2" x="30.96" y="354.7" width="26.03" height="68.21"/><rect class="cls-2" x="119.64" y="333.81" width="15.01" height="5.25"/><rect class="cls-2" x="132.13" y="347.46" width="21.93" height="75.45"/><rect class="cls-2" x="153.32" y="303.69" width="32.53" height="119.22"/><rect class="cls-2" x="181.24" y="321.01" width="21.83" height="101.9"/><rect class="cls-2" x="160.25" y="297.71" width="18.79" height="6.82"/><rect class="cls-2" x="154.79" y="280.71" width="1.57" height="23.82"/><polygon class="cls-2" points="156.55 497.58 156.55 413.73 129.06 413.73 129.06 404.81 91.28 404.81 91.28 413.73 75.01 413.73 75.01 497.58 156.55 497.58"/><rect class="cls-2" x="80.68" y="377.42" width="3.78" height="38.72"/><rect class="cls-2" x="98.41" y="396.73" width="25.92" height="14.06"/><rect class="cls-2" x="293.08" y="416.25" width="35.16" height="81.33"/><rect class="cls-2" x="52.9" y="429.37" width="26.03" height="68.21"/><polygon class="cls-2" points="274.36 497.58 274.36 409.62 259.17 394.43 259.17 370.71 242.32 370.71 242.32 357.87 242.32 335.24 234.44 335.24 234.44 497.58 274.36 497.58"/><polygon class="cls-2" points="255.94 423.21 274.62 423.21 274.62 418.77 287 418.77 287 435.01 294.66 435.01 294.66 497.58 248.16 497.58 255.94 423.21"/><polygon class="cls-2" points="243.08 497.58 221.97 497.58 221.97 366.26 242.32 366.26 243.08 497.58"/><rect class="cls-2" x="141.57" y="408.49" width="15.01" height="5.25"/><rect class="cls-2" x="154.06" y="422.13" width="21.93" height="75.45"/><rect class="cls-2" x="175.26" y="378.37" width="32.53" height="119.22"/><rect class="cls-2" x="203.18" y="395.68" width="21.83" height="101.9"/><rect class="cls-2" x="182.19" y="372.38" width="18.79" height="6.82"/><rect class="cls-2" x="176.73" y="355.38" width="1.57" height="23.82"/><path class="cls-3" d="M269.54,289a10.65,10.65,0,0,1-2.45,3.68,12.38,12.38,0,0,1-7.92,3.47,10.7,10.7,0,0,1-4.37-.69l.41-1a9.56,9.56,0,0,0,3.9.61,11.08,11.08,0,0,0,3.88-.93,10.94,10.94,0,0,0,3.31-2.22,9.43,9.43,0,0,0,2.2-3.28Z"/><rect class="cls-3" x="185.81" y="265.07" width="5.39" height="1.12" transform="translate(-137.1 257.05) rotate(-53.13)"/><rect class="cls-3" x="67.19" y="296.15" width="1.12" height="9.94" transform="translate(-177.62 113.88) rotate(-39.97)"/><rect class="cls-3" x="296.96" y="349.53" width="4.35" height="1.12" transform="translate(-133.82 193.26) rotate(-29.58)"/><path class="cls-3" d="M133.36,260.11a2.86,2.86,0,0,0-1,1.32,6.33,6.33,0,0,0-.39,1.85,9.34,9.34,0,0,0,0,1.92,1.64,1.64,0,0,0,.27.66,2.34,2.34,0,0,0,.56.58,8,8,0,0,0,.8.54c.29.18.58.33.88.48a10.44,10.44,0,0,0,1.86.7,10.91,10.91,0,0,0,2,.36l.48,0a1.29,1.29,0,0,0,.36,0,.42.42,0,0,0,.17,0s0,0,0-.06a.6.6,0,0,0,0-.42,1.07,1.07,0,0,0-.34-.47,1.7,1.7,0,0,0-1.32-.31,2,2,0,0,0-.32.11,2,2,0,0,0-.31.19,2.19,2.19,0,0,0-.53.56,2.88,2.88,0,0,0-.49,1.57,6.58,6.58,0,0,0,1.19,3.55,11.14,11.14,0,0,0,2.66,2.94l-1,1.36a12.94,12.94,0,0,1-3.07-3.4,11.23,11.23,0,0,1-1-2.08,6.48,6.48,0,0,1-.41-2.42,4.68,4.68,0,0,1,.78-2.47,3.61,3.61,0,0,1,2.24-1.58,3.44,3.44,0,0,1,1.43,0,3.25,3.25,0,0,1,1.31.63,2.72,2.72,0,0,1,.88,1.26,2.45,2.45,0,0,1,.13.81,2.36,2.36,0,0,1-.19.87,1.84,1.84,0,0,1-.64.75,2.12,2.12,0,0,1-.83.33,3.48,3.48,0,0,1-.7,0c-.22,0-.4,0-.59,0a13.35,13.35,0,0,1-2.27-.42,12.66,12.66,0,0,1-2.15-.81c-.34-.17-.68-.35-1-.55a11.22,11.22,0,0,1-1-.66,4.69,4.69,0,0,1-.92-1,3.4,3.4,0,0,1-.53-1.32,6.56,6.56,0,0,1-.09-1.22c0-.38,0-.76,0-1.14a8.22,8.22,0,0,1,.49-2.34,4.59,4.59,0,0,1,1.56-2.09Z"/><circle class="cls-2" cx="7.03" cy="329.6" r="9.98" transform="translate(-321.67 304.12) rotate(-84.35)"/><circle class="cls-2" cx="18.2" cy="337.19" r="4.79"/><path class="cls-2" d="M-6.74,342H18.2S9.82,330.6,9.42,330.4s-16.16,9.18-16.16,9.18Z"/><circle class="cls-2" cx="90.53" cy="271.09" r="5.36"/><circle class="cls-2" cx="101.4" cy="267.22" r="7.44" transform="translate(-180.75 312.82) rotate(-78.4)"/><circle class="cls-2" cx="109.74" cy="272.87" r="3.57"/><path class="cls-2" d="M91.13,276.45h18.61s-6.26-8.49-6.55-8.64-12.06,6.85-12.06,6.85Z"/><path class="cls-4" d="M2.88,480.42l-2.34,0,2.23,1.13a43.23,43.23,0,0,1-2,9.24l-1.59-.88L.21,492.3a35.68,35.68,0,0,1-1.92,4.15l-1.1-.23.3.34h-9.71a27.16,27.16,0,0,1,.93-5.68l2,.09L-11,490a17.26,17.26,0,0,1,5.75-8.3l3.45,1.54-2-2.61c.59-.4,1.18-.78,1.77-1.12a22.75,22.75,0,0,0,2.3-1.54l1.31.39-.69-.9c1.92-1.65,2.06-2.71,2.06-2.71A35.53,35.53,0,0,1,2.88,480.42Z"/><path class="cls-5" d="M86.63,445.64a7.19,7.19,0,0,1,2.2,2.34,10.3,10.3,0,0,1,.5,1l.17.4-.38-.06c-.23-.05-.57-.12-1-.24a10.41,10.41,0,0,1-1.31-.52,8.41,8.41,0,0,1-1.45-.85,13.66,13.66,0,0,1-2.2-2l-.34-.4-.25-.3-.2-.26.38,0a8.09,8.09,0,0,1,2.34.3A6.19,6.19,0,0,1,86.63,445.64Z"/><path class="cls-5" d="M86.56,452.55a10.89,10.89,0,0,1,2.2,2.88c.24.44.41.82.53,1.08s.18.43.18.43a7.15,7.15,0,0,1-1.47-.33,8.86,8.86,0,0,1-1.45-.62,7.64,7.64,0,0,1-.78-.49,7.09,7.09,0,0,1-.77-.61,11.33,11.33,0,0,1-2.2-2.9,6.61,6.61,0,0,1-.3-.59c-.09-.17-.16-.33-.22-.46l-.17-.4a3.73,3.73,0,0,1,.41.06,9.53,9.53,0,0,1,2.49.88A8.14,8.14,0,0,1,86.56,452.55Z"/><path class="cls-5" d="M86.41,460a5.37,5.37,0,0,1,.44.37c.15.12.29.25.42.37l.39.38.37.38c.24.26.47.5.68.74l.58.67.48.58c.14.17.25.32.36.44s.3.4.3.4a4.33,4.33,0,0,1-.45.05,7.65,7.65,0,0,1-1.2,0c-.25,0-.52-.05-.81-.1a7.24,7.24,0,0,1-2.85-1.21,8.34,8.34,0,0,1-.92-.77,9.1,9.1,0,0,1-.78-.88,11.65,11.65,0,0,1-1.17-1.76c-.14-.27-.28-.53-.38-.76s-.2-.43-.27-.6-.12-.31-.15-.4l0-.14a3.59,3.59,0,0,1,.45.07,9,9,0,0,1,1.17.32,11.2,11.2,0,0,1,1.6.68A11.78,11.78,0,0,1,86.41,460Z"/><path class="cls-5" d="M88.1,468c.41.15.81.32,1.19.49s.75.32,1.1.48l1,.46.88.41c.55.25,1,.47,1.29.62l.48.26s-.14.1-.42.26a8.69,8.69,0,0,1-1.18.54,7.76,7.76,0,0,1-1.83.46,7,7,0,0,1-1.14.06,7.32,7.32,0,0,1-1.25-.17l-.33-.08-.33-.1-.64-.25a8.64,8.64,0,0,1-1.23-.67,10.94,10.94,0,0,1-2-1.72,13.21,13.21,0,0,1-1.25-1.55L82.1,467l-.1-.18s.18,0,.5,0a9.13,9.13,0,0,1,1.35.08c.28,0,.58.08.91.14l.49.1.54.12c.36.09.73.2,1.12.32S87.7,467.8,88.1,468Z"/><path class="cls-5" d="M92.69,474.74a16.5,16.5,0,0,1,4.66.58,15.22,15.22,0,0,1,1.47.5l.4.18.15.07s-.16.12-.44.3a12.43,12.43,0,0,1-1.23.7,13.31,13.31,0,0,1-1.85.76,11.4,11.4,0,0,1-1.12.3l-.6.12-.64.07-.64,0-.64,0-.63,0L91,478.2l-.6-.13-.59-.16c-.2-.06-.38-.11-.56-.18l-.54-.21-.49-.21-.45-.22-.4-.21-.34-.2c-.41-.26-.64-.43-.64-.43a5,5,0,0,1,.48-.25,10.68,10.68,0,0,1,1.34-.5A16.62,16.62,0,0,1,92.69,474.74Z"/><path class="cls-5" d="M93.3,446.85a7.11,7.11,0,0,1-2.51,2,9.23,9.23,0,0,1-.93.38l-.36.11a4.26,4.26,0,0,1,.11-.42c.08-.26.2-.62.37-1.05a15.31,15.31,0,0,1,1.59-3.06,7.38,7.38,0,0,1,.57-.75c.19-.24.38-.46.57-.67l.57-.56c.19-.17.36-.33.53-.46a8.72,8.72,0,0,1,.83-.62,3.47,3.47,0,0,1,.33-.2s0,.2,0,.54c0,.17,0,.37,0,.6s-.07.47-.13.74a9.72,9.72,0,0,1-.51,1.72c-.06.15-.13.3-.2.44l-.23.43c-.08.14-.16.28-.25.42S93.4,446.72,93.3,446.85Z"/><path class="cls-5" d="M93.7,454.55a9.77,9.77,0,0,1-2.82,1.89,9.16,9.16,0,0,1-1.41.5,9.89,9.89,0,0,1,.56-1.55,10.7,10.7,0,0,1,2-3,9.9,9.9,0,0,1,1.47-1.21c.24-.16.48-.31.71-.44s.45-.24.66-.34a7.9,7.9,0,0,1,1.41-.53s0,.18-.13.48a12,12,0,0,1-.44,1.18A9.84,9.84,0,0,1,93.7,454.55Z"/><path class="cls-5" d="M94.39,461.06A16.84,16.84,0,0,1,93,462.39c-.44.39-.89.74-1.27,1s-.72.51-1,.67l-.39.23s0-.18,0-.49a4.35,4.35,0,0,1,.06-.55c0-.1,0-.21,0-.33s0-.23.08-.36.06-.25.1-.38l.13-.4.16-.42.2-.42c.07-.14.14-.28.22-.42s.17-.28.27-.42a6.49,6.49,0,0,1,.63-.8,6.72,6.72,0,0,1,.73-.69,3.57,3.57,0,0,1,.38-.3l.38-.26c.26-.17.51-.31.75-.44s.49-.24.71-.33a9.5,9.5,0,0,1,1.09-.39c.27-.08.43-.11.43-.11l0,.11c0,.07,0,.17-.1.3s-.23.62-.43,1c-.1.21-.21.43-.34.65a6.48,6.48,0,0,1-.42.7A10.74,10.74,0,0,1,94.39,461.06Z"/><path class="cls-5" d="M96.49,465.76l-.1.24-.09.23-.18.47-.39.91c-.13.29-.26.58-.39.84l-.38.75c-.24.45-.47.83-.63,1.08s-.28.4-.28.4-.08-.18-.2-.49a8,8,0,0,1-.38-1.29c0-.27-.09-.56-.11-.87a7.37,7.37,0,0,1,0-.94,6.5,6.5,0,0,1,.18-1,4,4,0,0,1,.16-.49,2.81,2.81,0,0,1,.21-.47c.08-.16.16-.31.25-.46s.19-.28.29-.41a7.46,7.46,0,0,1,.64-.72,8.44,8.44,0,0,1,.68-.58c.22-.17.44-.32.66-.46a8,8,0,0,1,1.06-.58c.27-.13.43-.19.43-.19s0,.11-.07.31-.06.22-.11.36,0,.14-.07.22,0,.16-.08.25l-.21.56-.12.32c0,.11-.09.23-.13.35l-.08.18-.07.18-.15.4-.09.21-.08.22C96.61,465.46,96.55,465.61,96.49,465.76Z"/><path class="cls-5" d="M100.88,470.14a9.75,9.75,0,0,1,0,1.22c0,.39-.08.78-.14,1.13s-.15.7-.24,1a7.43,7.43,0,0,1-.28.87,10,10,0,0,1-.56,1.25c-.15.28-.25.44-.25.44l-.08-.13c-.05-.09-.11-.22-.19-.39s-.39-.8-.62-1.37a10.75,10.75,0,0,1-.87-4.34,7,7,0,0,1,.14-1.15,4.72,4.72,0,0,1,.13-.54c.05-.17.11-.34.16-.5a7.92,7.92,0,0,1,.83-1.65,7.14,7.14,0,0,1,.41-.61c.13-.18.26-.33.36-.45s.34-.37.34-.37a.66.66,0,0,1,0,.09s0,.07,0,.12l0,.16c0,.13.06.28.09.46s.09.4.14.64a3.39,3.39,0,0,0,.08.39c0,.13.06.27.08.42l0,.11,0,.12,0,.24.09.5c.06.35.12.72.15,1.11A11.66,11.66,0,0,1,100.88,470.14Z"/><path class="cls-5" d="M106.46,489.66l-.1-.39a27.52,27.52,0,0,0-5-10.13A27.22,27.22,0,0,0,99.56,477c-.57-.6-1.2-1.24-2-2l-.47-.46L95.54,473c-.75-.76-1.38-1.43-1.93-2.07a20.94,20.94,0,0,1-1.71-2.26l-.21-.33a2.61,2.61,0,0,1-.17-.28l-.34-.6L91,467a2.26,2.26,0,0,0-.11-.22c-.07-.14-.13-.29-.19-.42l-.09-.23a19.47,19.47,0,0,1-1.37-5.48A45.85,45.85,0,0,1,89,455c0-.67,0-1.35,0-2,0-1.2,0-2.44,0-3.66V449l1,0v.41c0,1.23,0,2.48,0,3.68,0,.67,0,1.34,0,2a45.58,45.58,0,0,0,.24,5.54,18.84,18.84,0,0,0,1.29,5.21l.1.22c.06.14.11.26.17.38l.11.23c.06.12.12.25.19.37l.33.59c0,.08.09.15.14.23l.21.33a19.8,19.8,0,0,0,1.63,2.14c.53.63,1.15,1.29,1.88,2l1.55,1.53.47.45c.8.78,1.44,1.43,2,2a29.11,29.11,0,0,1,1.91,2.23,27.89,27.89,0,0,1,3.1,5,28.42,28.42,0,0,1,2,5.51l.09.39Z"/><path class="cls-5" d="M233.42,463.54a8.85,8.85,0,0,0-2.06,0,11.46,11.46,0,0,0-1.76.34,11.34,11.34,0,0,0-1.68.61,7.8,7.8,0,0,0,1.37.84,9.92,9.92,0,0,0,5.52,1.06,13.69,13.69,0,0,0,1.71-.27c.5-.11.91-.22,1.19-.31l.44-.15a8.7,8.7,0,0,0-1.3-.93,10.55,10.55,0,0,0-1.5-.72A8.26,8.26,0,0,0,233.42,463.54Z"/><path class="cls-5" d="M227.68,469.62a11.64,11.64,0,0,0-4.21.59,12.87,12.87,0,0,0-1.83.73,8.94,8.94,0,0,0,1.53.89,10.66,10.66,0,0,0,3.92,1,12,12,0,0,0,2.27-.12,15.19,15.19,0,0,0,1.91-.43c.55-.16,1-.33,1.31-.45s.49-.21.49-.21a9.38,9.38,0,0,0-1.51-.93A10.31,10.31,0,0,0,227.68,469.62Z"/><path class="cls-5" d="M222.05,476a13.8,13.8,0,0,0-4.63.67,15.24,15.24,0,0,0-1.47.52l-.55.24a9.91,9.91,0,0,0,1.66,1,11.07,11.07,0,0,0,4.3,1.12,11.53,11.53,0,0,0,2.52-.17,16.32,16.32,0,0,0,2.14-.53,14.82,14.82,0,0,0,2-.81A11.63,11.63,0,0,0,222.05,476Z"/><path class="cls-5" d="M216.23,482.31a13.85,13.85,0,0,0-2.75.08,20.17,20.17,0,0,0-2.34.43c-.68.17-1.24.34-1.63.47s-.61.22-.61.22a10,10,0,0,0,1.72,1.21,11.12,11.12,0,0,0,4.62,1.47,11.62,11.62,0,0,0,1.44,0c.47,0,.93-.07,1.37-.13s.87-.15,1.27-.25.78-.2,1.13-.3l.94-.32.72-.29c.4-.17.62-.28.62-.28a10.49,10.49,0,0,0-1.82-1.08,13.14,13.14,0,0,0-2-.79A12.19,12.19,0,0,0,216.23,482.31Z"/><path class="cls-5" d="M209.92,488.43a13.59,13.59,0,0,0-1.53-.14l-.74,0h-.73c-.47,0-.93,0-1.36.08l-.62.07-.59.07c-.75.1-1.36.23-1.8.31s-.69.16-.69.16a5.53,5.53,0,0,0,.44.45,10.85,10.85,0,0,0,1.26,1.06,12.06,12.06,0,0,0,2.05,1.22,11.29,11.29,0,0,0,2.79.87,12.9,12.9,0,0,0,3.09.12c.5,0,1-.1,1.43-.18.23,0,.45-.08.67-.12l.61-.14a18.31,18.31,0,0,0,1.91-.59c.46-.17.72-.29.72-.29s-.18-.15-.5-.38a11.73,11.73,0,0,0-1.41-.88,15.1,15.1,0,0,0-2.18-1c-.43-.15-.87-.29-1.34-.41A12.93,12.93,0,0,0,209.92,488.43Z"/><path class="cls-5" d="M226.68,459.35a8,8,0,0,0,.12,2,10.44,10.44,0,0,0,.43,1.64,8.54,8.54,0,0,0,.69,1.46,14,14,0,0,0,1.75-5.47,9.68,9.68,0,0,0,0-1.07c0-.35,0-.68-.07-1a10.89,10.89,0,0,0-.34-1.67,8.46,8.46,0,0,0-.58-1.53,15,15,0,0,0-.95,1.68A11,11,0,0,0,226.68,459.35Z"/><path class="cls-5" d="M220.05,465.41a10.43,10.43,0,0,0,.79,4,8.87,8.87,0,0,0,.8,1.57,13.64,13.64,0,0,0,.79-1.8,13.25,13.25,0,0,0,.82-4.19,10.45,10.45,0,0,0-.2-2.23,12.08,12.08,0,0,0-.5-1.78,8.9,8.9,0,0,0-.74-1.6s-.11.18-.28.5a14.29,14.29,0,0,0-.6,1.33A12.1,12.1,0,0,0,220.05,465.41Z"/><path class="cls-5" d="M213.72,471.41a12.16,12.16,0,0,0,.84,4.26,10.19,10.19,0,0,0,.84,1.71s.11-.18.27-.52a13.67,13.67,0,0,0,1.46-5.91,11.53,11.53,0,0,0-.87-4.27,10.22,10.22,0,0,0-.86-1.7s-.11.19-.27.53-.37.83-.58,1.42A13.16,13.16,0,0,0,213.72,471.41Z"/><path class="cls-5" d="M207.44,477a12.67,12.67,0,0,0,.18,2.52,16.41,16.41,0,0,0,.5,2.06,11.72,11.72,0,0,0,.78,1.89s.13-.19.33-.54a13.7,13.7,0,0,0,.74-1.46c.13-.31.26-.64.39-1s.24-.74.34-1.15a11.33,11.33,0,0,0,.36-2.6,11.63,11.63,0,0,0-.87-4.56,10.27,10.27,0,0,0-.63-1.34c-.17-.31-.28-.48-.28-.48l-.08.14c0,.09-.12.22-.2.4a13.85,13.85,0,0,0-.61,1.45,16.41,16.41,0,0,0-.63,2.12c-.09.39-.16.81-.22,1.23S207.45,476.59,207.44,477Z"/><path class="cls-5" d="M201,482c0,.24,0,.47-.05.7s0,.46,0,.68c0,.45,0,.88,0,1.3s.08.81.13,1.19.12.72.18,1c.13.65.28,1.17.39,1.54s.2.57.2.57.17-.19.42-.53a12,12,0,0,0,.95-1.46,12.41,12.41,0,0,0,1.59-4.91,11.76,11.76,0,0,0-.65-4.87,13.57,13.57,0,0,0-.6-1.46c-.17-.34-.28-.53-.28-.53s-.12.19-.31.54c-.09.17-.2.38-.31.63s-.25.51-.38.81-.26.64-.39,1-.26.74-.37,1.14A15.56,15.56,0,0,0,201,482Z"/><path class="cls-5" d="M185.87,496.55l.26-.05a39,39,0,0,0,6.34-2,50,50,0,0,0,6-2.94,61,61,0,0,0,5.58-3.67c1.71-1.26,3.46-2.66,5.21-4.18,1.47-1.28,3-2.73,4.9-4.56,1.39-1.36,2.88-2.87,4.7-4.76.83-.86,1.66-1.72,2.48-2.59,2.23-2.33,4.53-4.73,6.86-7l.18-.18-.51-.53-.19.19c-2.34,2.31-4.64,4.72-6.86,7.05l-2.49,2.59c-1.81,1.88-3.3,3.39-4.69,4.75-1.86,1.81-3.4,3.25-4.87,4.52-1.73,1.51-3.47,2.9-5.16,4.14a57.52,57.52,0,0,1-5.5,3.63,50.06,50.06,0,0,1-5.89,2.9,38.9,38.9,0,0,1-6.23,2l-.26.05Z"/><path class="cls-6" d="M149,489.81c0,6.62,10.83,8.86,24.19,8.86s24.18-2.24,24.18-8.86a5.17,5.17,0,0,0,0-.68c-2.42.94-5.5,2-4.43,1.24s3-2.44,3.93-3.23a11.3,11.3,0,0,0-1.25-2.33l-2.38,2.9,1.42-4.15a19.88,19.88,0,0,0-1.43-1.5c-1.56,2.44-4,6.23-3.9,6s1.34-4.32,2.27-7.37c-.61-.47-1.26-.93-1.94-1.36l-1.11,2.53.62-2.83c-.41-.25-.83-.49-1.27-.72l-3,6.37,1.18-7.26a32.57,32.57,0,0,0-4.07-1.49l-.93,6.93-1.36-7.5a30.38,30.38,0,0,0-4.45-.6v6.85l-2-6.92h-.08a31.7,31.7,0,0,0-3.81.23c.18,2,.36,4.31.29,4.19S169,477,168.45,475a33.67,33.67,0,0,0-3.57.75l1.86,10-3.53-9.48c-.94.31-1.84.65-2.7,1l2.45,5.16-3.63-4.61c-.8.4-1.57.82-2.3,1.27l.77,1.74-1.36-1.37c-.5.33-1,.66-1.43,1,1.14,2.48,2.85,6.23,2.7,6.17s-2.75-3.14-4.24-4.9a19.54,19.54,0,0,0-1.57,1.59l3.12,3.31L151,484.56A9.25,9.25,0,0,0,149,489.81Z"/><path class="cls-7" d="M184,493.21c0,4.08,6.66,5.46,14.89,5.46s14.89-1.38,14.89-5.46c0-.13,0-.27,0-.41-1.5.57-3.39,1.24-2.74.76s1.88-1.51,2.43-2a7.15,7.15,0,0,0-.77-1.43l-1.47,1.78.88-2.55a12.74,12.74,0,0,0-.89-.93c-1,1.51-2.45,3.84-2.39,3.69s.82-2.66,1.39-4.54a13.37,13.37,0,0,0-1.2-.83l-.68,1.55.39-1.74c-.26-.15-.52-.3-.79-.44l-1.84,3.92.72-4.47a19.89,19.89,0,0,0-2.5-.92l-.57,4.27-.84-4.62a20.24,20.24,0,0,0-2.75-.37v4.22L199,483.9h-.05a19.88,19.88,0,0,0-2.34.14c.1,1.26.22,2.65.17,2.58s-.39-1.29-.74-2.5a18.86,18.86,0,0,0-2.19.46l1.14,6.14-2.18-5.83c-.57.19-1.12.4-1.66.64l1.51,3.17-2.23-2.84c-.5.25-1,.51-1.42.79l.47,1.07-.83-.85c-.31.2-.6.41-.88.62.7,1.53,1.75,3.83,1.66,3.79s-1.7-1.93-2.61-3a12.76,12.76,0,0,0-1,1l1.92,2-2.5-1.3A5.67,5.67,0,0,0,184,493.21Z"/><path class="cls-7" d="M150.53,493.08c0,2.39,3.92,3.2,8.75,3.2s8.74-.81,8.74-3.2a2.09,2.09,0,0,0,0-.25c-.88.34-2,.73-1.6.45s1.09-.88,1.42-1.17a4.3,4.3,0,0,0-.45-.84l-.86,1.05.51-1.5a5.29,5.29,0,0,0-.52-.54c-.56.88-1.44,2.25-1.41,2.16s.49-1.56.82-2.67c-.22-.17-.45-.33-.7-.49l-.4.92.22-1a5,5,0,0,0-.46-.26l-1.08,2.3.43-2.63a13.44,13.44,0,0,0-1.47-.53l-.34,2.5-.49-2.71a12,12,0,0,0-1.61-.22v2.48l-.71-2.5h0a10.44,10.44,0,0,0-1.38.08c.07.74.13,1.56.11,1.51s-.23-.75-.44-1.47a11,11,0,0,0-1.29.28l.67,3.61-1.27-3.43a9.47,9.47,0,0,0-1,.37l.89,1.87-1.31-1.67a9.57,9.57,0,0,0-.84.46l.28.63-.49-.5-.52.37c.42.89,1,2.25,1,2.22s-1-1.13-1.53-1.77a6.21,6.21,0,0,0-.57.58l1.13,1.19-1.48-.76A3.37,3.37,0,0,0,150.53,493.08Z"/><path class="cls-8" d="M110.23,494.34H77c-.61-.74-1.22-1.51-1.6-2a14.85,14.85,0,0,1,.92-2.5l1.73,3.1-1-4.43a16.32,16.32,0,0,1,1-1.61c1.14,2.61,2.91,6.66,2.84,6.41s-1-4.63-1.65-7.89A19.3,19.3,0,0,1,80.66,484l.81,2.71-.45-3c.3-.27.61-.52.93-.77l2.18,6.81-.86-7.77a18.78,18.78,0,0,1,3-1.59l.67,7.42,1-8a16.56,16.56,0,0,1,3.25-.65v7.34L92.58,479h.06a15.77,15.77,0,0,1,2.77.25c-.13,2.18-.26,4.61-.2,4.48s.46-2.24.87-4.35a17.78,17.78,0,0,1,2.6.8l-1.35,10.68,2.58-10.14a19,19,0,0,1,2,1.11l-1.79,5.51,2.65-4.92a20.24,20.24,0,0,1,1.68,1.35l-.56,1.87,1-1.47c.36.35.71.71,1,1.07-.83,2.66-2.08,6.66-2,6.6s2-3.36,3.09-5.24a18.79,18.79,0,0,1,1.15,1.7l-2.28,3.54,3-2.27A13.48,13.48,0,0,1,110.23,494.34Z"/><path class="cls-9" d="M324.53,494.49c1.59-1.23,1.76-3.53,1.76-5.55a11.82,11.82,0,0,0-.51-4.11c-1.11-3-4.27-4.6-6.41-6.95a11.85,11.85,0,0,1-.73-15.05,1.05,1.05,0,0,0-1.07-1.65c-3.85.85-10.09,2.39-13.35,4.12-2.54,1.35-5.06,3.2-6,5.93-.36,1.06-.45,2.21-.88,3.25-1.67,4-7.58,4.74-9.46,8.66-1.69,3.5.66,7.53.95,11.4Z"/><path class="cls-10" d="M296.5,493.35c-1.29-4.94,9.52-4.58,9.05-11.51a12,12,0,0,1,4.93-10.46s-3.7,4.8-1.76,10.34-3.41,8.57-2.12,11.63S296.5,493.35,296.5,493.35Z"/><path class="cls-7" d="M303.13,471c5.26,2.93,12.14.62,12.14.62s-1.65-7.07-6.9-10-12.13-.62-12.13-.62S297.88,468,303.13,471Z"/><path class="cls-11" d="M352.26,494.51c2.16,0,3.9,1.23,3.9,2.74h0c0,1.52-1.74,2.75-3.9,2.75H-61.1c-2.15,0-3.9-1.23-3.9-2.75h0c0-1.51,1.75-2.74,3.9-2.74Z"/><path class="cls-12" d="M50.1,365.84h159a4.88,4.88,0,0,1,4.88,4.88V495a0,0,0,0,1,0,0H43.7a0,0,0,0,1,0,0V372.24A6.4,6.4,0,0,1,50.1,365.84Z"/><polygon class="cls-13" points="199.37 494.98 31.47 494.98 43.2 370.83 213.47 371.33 199.37 494.98"/><path class="cls-14" d="M214,388.53H41.5l1.66-17.6a5.61,5.61,0,0,1,5.58-5.09H208.36a5.61,5.61,0,0,1,5.61,5.61Z"/><polygon class="cls-15" points="64.2 401.24 49.06 401.24 49.51 396.51 64.66 396.51 64.2 401.24"/><polygon class="cls-15" points="86.55 401.24 71.4 401.24 71.87 396.51 87.02 396.51 86.55 401.24"/><polygon class="cls-15" points="108.9 401.24 93.75 401.24 94.23 396.51 109.38 396.51 108.9 401.24"/><polygon class="cls-15" points="131.25 401.24 116.1 401.24 116.59 396.51 131.74 396.51 131.25 401.24"/><polygon class="cls-15" points="153.6 401.24 138.45 401.24 138.95 396.51 154.1 396.51 153.6 401.24"/><polygon class="cls-15" points="175.95 401.24 160.8 401.24 161.31 396.51 176.46 396.51 175.95 401.24"/><polygon class="cls-15" points="198.3 401.24 183.15 401.24 183.67 396.51 198.82 396.51 198.3 401.24"/><polygon class="cls-16" points="61.55 424.8 47.68 424.8 49.01 410.84 62.9 410.84 61.55 424.8"/><polygon class="cls-16" points="83.59 424.8 69.72 424.8 71.09 410.84 84.98 410.84 83.59 424.8"/><polygon class="cls-16" points="105.64 424.8 91.77 424.8 93.16 410.84 107.06 410.84 105.64 424.8"/><polygon class="cls-16" points="127.68 424.8 113.81 424.8 115.24 410.84 129.13 410.84 127.68 424.8"/><polygon class="cls-16" points="149.72 424.8 135.85 424.8 137.32 410.84 151.21 410.84 149.72 424.8"/><polygon class="cls-16" points="171.76 424.8 157.89 424.8 159.4 410.84 173.29 410.84 171.76 424.8"/><polygon class="cls-16" points="193.81 424.8 179.94 424.8 181.47 410.84 195.36 410.84 193.81 424.8"/><polygon class="cls-16" points="59.64 444.5 45.8 444.5 47.13 430.54 60.99 430.54 59.64 444.5"/><polygon class="cls-16" points="81.64 444.5 67.8 444.5 69.16 430.54 83.02 430.54 81.64 444.5"/><polygon class="cls-16" points="103.63 444.5 89.79 444.5 91.19 430.54 105.05 430.54 103.63 444.5"/><polygon class="cls-16" points="125.63 444.5 111.79 444.5 113.22 430.54 127.08 430.54 125.63 444.5"/><polygon class="cls-16" points="147.62 444.5 133.78 444.5 135.25 430.54 149.11 430.54 147.62 444.5"/><polygon class="cls-16" points="169.61 444.5 155.78 444.5 157.28 430.54 171.14 430.54 169.61 444.5"/><polygon class="cls-16" points="191.61 444.5 177.77 444.5 179.31 430.54 193.16 430.54 191.61 444.5"/><polygon class="cls-16" points="57.74 464.19 43.93 464.19 45.26 450.23 59.09 450.23 57.74 464.19"/><polygon class="cls-16" points="79.68 464.19 65.87 464.19 67.24 450.23 81.07 450.23 79.68 464.19"/><polygon class="cls-16" points="101.63 464.19 87.82 464.19 89.22 450.23 103.05 450.23 101.63 464.19"/><polygon class="cls-16" points="123.57 464.19 109.77 464.19 111.2 450.23 125.03 450.23 123.57 464.19"/><polygon class="cls-16" points="145.52 464.19 131.71 464.19 133.18 450.23 147.01 450.23 145.52 464.19"/><polygon class="cls-16" points="167.47 464.19 153.66 464.19 155.16 450.23 168.99 450.23 167.47 464.19"/><polygon class="cls-16" points="189.41 464.19 175.6 464.19 177.14 450.23 190.97 450.23 189.41 464.19"/><polygon class="cls-16" points="55.83 483.88 42.05 483.88 43.38 469.93 57.18 469.93 55.83 483.88"/><polygon class="cls-16" points="77.73 483.88 63.95 483.88 65.31 469.93 79.11 469.93 77.73 483.88"/><polygon class="cls-16" points="99.62 483.88 85.85 483.88 87.24 469.93 101.04 469.93 99.62 483.88"/><polygon class="cls-16" points="121.52 483.88 107.74 483.88 109.18 469.93 122.98 469.93 121.52 483.88"/><polygon class="cls-16" points="143.42 483.88 129.64 483.88 131.11 469.93 144.91 469.93 143.42 483.88"/><polygon class="cls-16" points="165.32 483.88 151.54 483.88 153.04 469.93 166.84 469.93 165.32 483.88"/><polygon class="cls-16" points="187.21 483.88 173.44 483.88 174.97 469.93 188.77 469.93 187.21 483.88"/><path class="cls-17" d="M120.58,449.72c-4.25.87-9.08,2-11.78,6a6.37,6.37,0,0,0-1.15,5.2c.54,1.65,2.13,2.22,3.79,2.21,3.85,0,8.52-1.15,11.15-4.52a14.19,14.19,0,0,0,2.52-5.5c.34-1.44.94-3.77-.53-4.6-1.64-.92-4,.72-5.52,1.54q-4.26,2.34-8.45,4.83c-.43.26-.12.9.31.65q3.35-2,6.75-3.89c1.35-.75,5.92-4.06,7-1.95.45.93-.07,2.67-.33,3.69a15.17,15.17,0,0,1-1.06,2.86,9.65,9.65,0,0,1-4.9,4.77,19.76,19.76,0,0,1-6.47,1.36,3.63,3.63,0,0,1-3.1-1c-.83-1-.63-2.62-.13-3.88,1.93-4.89,7.67-6.21,12.06-7.12a.36.36,0,1,0-.12-.72Z"/><path class="cls-17" d="M80.14,411.57c-4.26.88-9.12,2-11.8,6a6.28,6.28,0,0,0-1.12,5.2c.54,1.64,2.14,2.22,3.81,2.21,3.87,0,8.55-1.16,11.17-4.52a14,14,0,0,0,2.5-5.5c.34-1.44.93-3.77-.56-4.6-1.64-.92-4,.72-5.53,1.54q-4.26,2.34-8.46,4.83c-.43.25-.12.9.32.64,2.23-1.32,4.48-2.62,6.75-3.88,1.35-.76,5.93-4.06,7-1.95.46.93,0,2.67-.31,3.69a15.09,15.09,0,0,1-1,2.86,9.63,9.63,0,0,1-4.9,4.76,19.58,19.58,0,0,1-6.49,1.37,3.64,3.64,0,0,1-3.12-1c-.84-1-.65-2.62-.16-3.87,1.92-4.89,7.67-6.22,12.09-7.12a.37.37,0,0,0-.13-.73Z"/><path class="cls-17" d="M191.36,428.53c-4.27.87-9.13,2-11.86,6a6.35,6.35,0,0,0-1.19,5.2c.52,1.65,2.11,2.22,3.78,2.21,3.86,0,8.55-1.15,11.21-4.52a14.29,14.29,0,0,0,2.57-5.5c.35-1.44,1-3.77-.5-4.6-1.64-.92-4,.72-5.54,1.54q-4.29,2.34-8.51,4.83c-.43.26-.13.9.31.65,2.24-1.33,4.51-2.63,6.79-3.89,1.36-.75,6-4.06,7-2,.45.93-.08,2.67-.36,3.69a14.59,14.59,0,0,1-1.08,2.86,9.81,9.81,0,0,1-4.94,4.77,20,20,0,0,1-6.5,1.36,3.61,3.61,0,0,1-3.1-1c-.83-1-.61-2.62-.11-3.88,2-4.89,7.74-6.21,12.15-7.12.48-.1.36-.82-.11-.72Z"/><path class="cls-18" d="M69.54,356.62a10.72,10.72,0,0,0-1.63,21.26,1.67,1.67,0,0,0,2-1.64v-.16a1.67,1.67,0,0,0-1.39-1.64,7.23,7.23,0,1,1,8.46-8.6h3.54A10.72,10.72,0,0,0,69.54,356.62Z"/><path class="cls-18" d="M98.21,356.62a10.72,10.72,0,0,0-1.63,21.26,1.67,1.67,0,0,0,2-1.64v-.16a1.67,1.67,0,0,0-1.39-1.64,7.23,7.23,0,1,1,8.46-8.6h3.54A10.72,10.72,0,0,0,98.21,356.62Z"/><path class="cls-18" d="M126.88,356.62a10.72,10.72,0,0,0-1.63,21.26,1.66,1.66,0,0,0,2-1.64v-.16a1.66,1.66,0,0,0-1.38-1.64,7.23,7.23,0,1,1,8.46-8.6h3.54A10.72,10.72,0,0,0,126.88,356.62Z"/><path class="cls-18" d="M155.54,356.62a10.72,10.72,0,0,0-1.63,21.26,1.67,1.67,0,0,0,2-1.64v-.16a1.67,1.67,0,0,0-1.38-1.64,7.23,7.23,0,1,1,8.46-8.6h3.54A10.72,10.72,0,0,0,155.54,356.62Z"/><path class="cls-18" d="M184.21,356.62a10.72,10.72,0,0,0-1.63,21.26,1.67,1.67,0,0,0,2-1.64v-.16a1.67,1.67,0,0,0-1.38-1.64,7.23,7.23,0,1,1,8.46-8.6h3.54A10.72,10.72,0,0,0,184.21,356.62Z"/><rect class="cls-19" x="177.36" y="372.19" width="31.28" height="87.75" transform="translate(29.94 844.76) rotate(-134.29)"/><rect class="cls-19" x="149.28" y="406.13" width="19.98" height="85.69" transform="translate(-50.89 876.49) rotate(-134.29)"/><rect class="cls-19" x="104.92" y="478.06" width="42.79" height="6.12" transform="translate(-129.88 907.51) rotate(-134.29)"/><rect class="cls-20" x="155.33" y="406.13" width="7.88" height="85.69" transform="translate(-50.89 876.49) rotate(-134.29)"/><rect class="cls-19" x="140.98" y="442.88" width="42.79" height="6.12" transform="translate(-43.45 873.57) rotate(-134.29)"/><path class="cls-19" d="M227.32,382.59h0a1.62,1.62,0,0,0,2.27,0l34.69-33.85a1.45,1.45,0,0,0,0-2.06l-.2-.2a1.47,1.47,0,0,0-2.07,0l-34.69,33.84A1.62,1.62,0,0,0,227.32,382.59Z"/><polygon class="cls-21" points="235.45 377.31 234.44 376.28 261.99 351 235.45 377.31"/><rect class="cls-4" x="220.34" y="373.97" width="17.8" height="13.5" transform="translate(116.79 810.66) rotate(-134.29)"/><rect class="cls-22" x="175.5" y="416.21" width="31.28" height="3.35" transform="translate(25.48 846.51) rotate(-134.29)"/><rect class="cls-23" x="193.9" y="382.28" width="26.18" height="40.67" transform="translate(63.33 831.92) rotate(-134.29)"/><path class="cls-24" d="M213.89,393.56,225,405a.09.09,0,0,0,.1,0l1-1a.09.09,0,0,0,0-.1L215,392.46a.07.07,0,0,0-.1,0l-1,1A.07.07,0,0,0,213.89,393.56Z"/><path class="cls-24" d="M213.19,404.22l6.12,6.27a.07.07,0,0,0,.1,0l1-1a.07.07,0,0,0,0-.1l-6.11-6.27a.11.11,0,0,0-.11,0l-1,1A.07.07,0,0,0,213.19,404.22Z"/><path class="cls-24" d="M207.51,409.77l6.11,6.27a.07.07,0,0,0,.1,0l1-1a.09.09,0,0,0,0-.1l-6.12-6.27a.07.07,0,0,0-.1,0l-1,1A.07.07,0,0,0,207.51,409.77Z"/><path class="cls-24" d="M196.83,410.2l11.11,11.38a.07.07,0,0,0,.1,0l1-1a.07.07,0,0,0,0-.1L198,409.1a.08.08,0,0,0-.11,0l-1,1A.07.07,0,0,0,196.83,410.2Z"/><path class="cls-24" d="M196.14,420.86l6.11,6.27a.07.07,0,0,0,.1,0l1-1a.09.09,0,0,0,0-.1l-6.12-6.27a.07.07,0,0,0-.1,0l-1,1A.07.07,0,0,0,196.14,420.86Z"/><path class="cls-24" d="M190.45,426.4l6.12,6.27a.08.08,0,0,0,.1,0l1-1a.07.07,0,0,0,0-.1l-6.12-6.27a.07.07,0,0,0-.1,0l-1,1A.07.07,0,0,0,190.45,426.4Z"/><path class="cls-24" d="M179.78,426.83l11.1,11.39a.07.07,0,0,0,.1,0l1-1a.09.09,0,0,0,0-.1L180.9,425.74a.07.07,0,0,0-.1,0l-1,1A.07.07,0,0,0,179.78,426.83Z"/><path class="cls-24" d="M179.08,437.5l6.12,6.27a.08.08,0,0,0,.1,0l1-1a.07.07,0,0,0,0-.1l-6.12-6.27a.07.07,0,0,0-.1,0l-1,1A.07.07,0,0,0,179.08,437.5Z"/><path class="cls-24" d="M173.4,443l6.11,6.27a.07.07,0,0,0,.1,0l1-1a.09.09,0,0,0,0-.1l-6.12-6.28a.09.09,0,0,0-.1,0l-1,1A.07.07,0,0,0,173.4,443Z"/><rect class="cls-25" x="149.04" y="447.6" width="19.99" height="3.23" transform="translate(-51.47 876.73) rotate(-134.29)"/><rect class="cls-25" x="119.77" y="476.15" width="19.99" height="3.23" transform="translate(-121.62 904.27) rotate(-134.29)"/><rect class="cls-26" x="148.4" y="403.6" width="77.91" height="8.02" rx="0.36" transform="translate(-231.39 246.67) rotate(-44.29)"/><path class="cls-2" d="M258,435.25h0a2.51,2.51,0,0,1-2.51-2.51v-7.47H220.4v7.47a2.51,2.51,0,0,1-2.51,2.51h0a6.62,6.62,0,0,0-6.62,6.62v49.36a6.61,6.61,0,0,0,6.62,6.61H258a6.61,6.61,0,0,0,6.62-6.61V441.87A6.62,6.62,0,0,0,258,435.25Z"/><path class="cls-23" d="M216.56,449.05h42.76a0,0,0,0,1,0,0v34.27a8.49,8.49,0,0,1-8.49,8.49H225a8.49,8.49,0,0,1-8.49-8.49V449.05A0,0,0,0,1,216.56,449.05Z"/><path class="cls-27" d="M258,435.25a2.51,2.51,0,0,1-2.51-2.51V430.9H220.4v1.73h25.95v.11a2.51,2.51,0,0,0,2.51,2.51h0a6.61,6.61,0,0,1,6.61,6.62v49.36a6.61,6.61,0,0,1-6.61,6.61H258a6.61,6.61,0,0,0,6.62-6.61V441.87A6.62,6.62,0,0,0,258,435.25Z"/><rect class="cls-28" x="213.98" y="417.86" width="47.9" height="13.04"/><path class="cls-29" d="M26.15,415.09c1.71,15.26,4.07,24.54,16.8,42.26l.63-.18a4.75,4.75,0,0,0,3.22-6L36,417.32Z"/><path class="cls-30" d="M33.26,429.7l1.25,14.46s-7.76-13.55-8.44-19.73S35.32,420,35.32,420Z"/><path class="cls-31" d="M38.3,491.1l.16,3.49s7.77.11,9.41-2.1c0,0-6.15,0-7.82-1.73S38.3,491.1,38.3,491.1Z"/><path class="cls-29" d="M41.48,450.74S39,464,39.19,467.31s-1.1,23-1.1,23l2,.47,7.3-37.88-.07-.42a2.15,2.15,0,0,0-2.16-1.81Z"/><path class="cls-32" d="M22.19,413.66c-10.58,4.22-5.55,20.26,2.95,40.35l5.54-.31,3.76-37.51Z"/><path class="cls-31" d="M5.39,483.91l-2.23,2.68s5.65,5.33,8.36,4.81c0,0-4.57-4.13-4.61-6.56S5.39,483.91,5.39,483.91Z"/><path class="cls-32" d="M26,449.59s-7.89,10.92-9.21,13.91-11.49,20-11.49,20l1.59,1.34,23.36-30.55.74-3.82Z"/><path class="cls-33" d="M31.22,385.92s6.72,1,9.09,3.28c3.08,3,7,16.07,7,16.07l-7.16,1.59-6-9.15-2.54-6.45Z"/><path class="cls-34" d="M21.88,427.52s15.51,1.34,19.84-3.23l-6.28-32.51-1.5-5.27L27,385.46Z"/><path class="cls-33" d="M40.37,413.05l-.29-7.56-.39-9.93-4.85-8-.75-.15,1.35,4.36,5.48,37.79c3.55-.28,7.87-6.63,7.87-6.63Z"/><path class="cls-33" d="M28.14,431.31c-11.34,0-17.63-3.82-17.64-3.86-.93-2.61,3.56-17.52,3.56-17.52l.06-12,8.24-12.31,2.86-.45,3.16.6,1.43,26.76Z"/><polygon class="cls-35" points="12.86 411.63 17.4 398.85 23.39 417.19 12.86 411.63"/><path class="cls-36" d="M63,403.49s1.25-.6,1.38-1.31.38-.9.51-.54a2.39,2.39,0,0,1,0,1s2.1-.69,2.35-.48-.35.41-.35.41.78-.22.91,0-.56.41-.56.41.44,0,.48.09-.33.35-.69.41c0,0,.33-.11.42.11s-.31.26-.66.4c-.92.39-1.87,1.08-3,.69l-1.68.62Z"/><path class="cls-33" d="M25.22,385.16s-7-.68-13.54,7.07C6,399,1.76,412.38,1.76,412.38l12.63-1.2,6.43-17.59,5.75-4.22Z"/><path class="cls-37" d="M62.61,403.45l.72-.36a4.27,4.27,0,0,1,.19,2.54l-2.62.82Z"/><path class="cls-33" d="M45.87,404.58l16.93-1.3.63,2.48L47.53,414a4.68,4.68,0,0,1-5.21-.59l-2-1.68a3.08,3.08,0,0,1-1.09-2.41l.05-3.28Z"/><path class="cls-36" d="M28.63,420.2s1.36.31,1.9-.16.85-.48.74-.12a2.52,2.52,0,0,1-.58.8s2.07.76,2.14,1.08-.53.1-.53.1.75.32.72.56-.7,0-.7,0,.38.24.33.37-.48.06-.8-.11c0,0,.33.12.26.34s-.4,0-.77-.09c-.95-.27-2.13-.31-2.75-1.3l-1.7-.56Z"/><path class="cls-37" d="M28.36,419.94l.78.16a4.17,4.17,0,0,1-1.42,2.11l-2.56-1Z"/><path class="cls-33" d="M29.07,419.92,28,422.26l-23.25-4.4A4.15,4.15,0,0,1,2,411.6H2l6.89-4.05Z"/><path class="cls-35" d="M40.35,411.77c-.23-2.19-.62-15.38-.62-15.38l3.64,17.74A12.07,12.07,0,0,1,40.35,411.77Z"/><path class="cls-36" d="M32,383.7l.4,3s-.28,1.23-1.12,1.11a3.82,3.82,0,0,1-1.9-1.2l-.58-6,.5-.6Z"/><path class="cls-38" d="M28.93,383a4.18,4.18,0,0,0,3.28,2.6l-.08-1.85-3.35-2.21Z"/><path class="cls-36" d="M35.85,376.41c2,3.78-.09,9.14-3.9,8.57a3.88,3.88,0,0,1-3.12-3.78c-.22-3.33,1.55-4.91,1.9-5S35.85,376.41,35.85,376.41Z"/><path class="cls-39" d="M30.38,377.31s4.42-.14,5.5-1.64c.16-.22.42-1.08-1.23-1.79-1.11-.47-3.09-.69-3.57.42,0,0-3.86.45-4.24,4-.28,2.59,2.56,5.21,2.56,5.21l-.43-2-.12-1.88.55.62Z"/><path class="cls-36" d="M29.19,379.9c-.71-1.11-1.43-.77-1.4.15s.86,2.7,1.57,1.93S29.19,379.9,29.19,379.9Z"/><path class="cls-39" d="M31.86,377.18c1-.23,2.42.66,3.19.12s1.31-1.45.94-2.15-3.45,0-3.45,0Z"/><path class="cls-40" d="M122.73,348.82c9.63,12.2,15.74,15.26,36.13,21.16l3.51-5.51L131,341.74Z"/><path class="cls-41" d="M174.31,401.83l1.08,3.37s7.62-1.95,8.65-4.54c0,0-6,1.67-8.11.38S174.31,401.83,174.31,401.83Z"/><path class="cls-36" d="M158,367s3.18,11.24,5,14,10.87,20.68,10.87,20.68l2-.64-11.58-34.2-2-2.39Z"/><path class="cls-36" d="M120,348.61c-2.39,15.84,11.88,17.54,31.07,28.5l4.27-3.65-26.88-29.94Z"/><path class="cls-41" d="M118.37,391.55,115.14,393s2.77,7.36,5.46,8.1c0,0-2.31-5.79-1.26-8S118.37,391.55,118.37,391.55Z"/><path class="cls-36" d="M151.21,371.55s-10.83,4.39-13.36,6.53-19.37,13.06-19.37,13.06l.86,1.93,34.18-15.44a3.16,3.16,0,0,0,1.85-3.06l-.06-1.09Z"/><path class="cls-3" d="M119.87,349.58s-2.48,10.91,8.13,16.2,14.32,8.52,14.32,8.52,13-1.17,23.69-4.94l-1-1a10,10,0,0,0-4.59-6l-8.82-7.61-8.47-5.17Z"/><path class="cls-42" d="M134.61,320.92c1.32-1.71.52-2.78-.5-4.14a9.45,9.45,0,0,1-1.59-2.79l-.16.05a9.32,9.32,0,0,0,1.62,2.84c1,1.35,1.74,2.33.5,3.93Z"/><path class="cls-43" d="M118.85,326.5,121,337.64s-4.36,12.59-3.2,15.15c0,0,3.41-1.62,14.86-2.6l3.45,0c3.61,0,7.93.51,7.93.51l-5.95-14.38-.43-19.9-6.85-3-2.25-.47-3.42.68Z"/><path class="cls-44" d="M135.3,327.27l-.75,4.82,8,18.49,4.7,1.49s-3.53-6.51-4.44-10.33S135.3,327.27,135.3,327.27Z"/><path class="cls-44" d="M134.11,314.52l.44,17.57,15.78,1-8.52-13.79a5.71,5.71,0,0,0-2.31-2.1Z"/><polygon class="cls-18" points="144.23 327.74 149.09 322.57 153.33 330.44 144.23 334.4 144.23 327.74"/><polygon class="cls-6" points="140.28 323.68 153.33 330.44 142.37 345.12 129.74 341.59 140.28 323.68"/><path class="cls-44" d="M125.1,313.62s-6.42,2-9.86,6.11c-2.77,3.33-6.72,16.24-6.72,16.24l7.57,1.94L121.73,325l4-5.6Z"/><polygon class="cls-45" points="128.27 314.38 126.09 315.61 128.26 318.76 130.63 316.82 131.93 318.77 133.22 316.39 131.48 314.64 128.27 314.38"/><path class="cls-44" d="M125.1,313.62l6.19,19.25L126,344.42s3.8,18.59.06,26.06l-13.84-4.68,8.85-28.11L119,327.08l-1.76-9.27A17.55,17.55,0,0,1,125.1,313.62Z"/><path class="cls-46" d="M119.37,328.71l2.2-2.23s.6,9.7.45,11.36-3.54,11.74-5.63,15l3.23-10.33s.73-4.17,1.35-4.77Z"/><path class="cls-36" d="M132.34,333.6s1.36-.37,1.61-1.05.53-.84.6-.46a2.41,2.41,0,0,1-.13,1s2.22-.32,2.43-.07-.42.34-.42.34.81-.07.91.16-.63.31-.63.31.45,0,.46.18-.39.28-.76.28c0,0,.35,0,.39.19s-.35.2-.72.28c-1,.22-2.05.75-3.08.17l-1.79.31Z"/><polygon class="cls-46" points="120.83 329.3 129.74 333.56 121.48 334.4 120.83 329.3"/><polygon class="cls-46" points="120.14 342.94 131.97 336.19 122.04 336.73 120.14 342.94"/><path class="cls-45" d="M132,333.5l.78-.23a4.3,4.3,0,0,1-.25,2.57l-2.76.35Z"/><path class="cls-44" d="M132.19,333.36l.19,2.59-20.47,4.2-1,.15c-5.26-2.39,0-9.5,0-9.5Z"/><path class="cls-36" d="M131.94,312.47l-.31,3.78s-.87,1-1.76.61a3.42,3.42,0,0,1-1.49-1.68l.68-7.47.68-.55Z"/><path class="cls-38" d="M128.76,311.43c.83,3.46,3,3,3,3l.24-1.9-3.15-3.74Z"/><path class="cls-39" d="M135.71,307.74l-.88,7.34-2.33-1s.08-6.12,2.35-7.74S135.71,307.74,135.71,307.74Z"/><path class="cls-36" d="M136.89,304.63c.51,4.73-1.26,10-4.95,9.35,0,0-3-.56-3.47-4.83-.5-4,2.25-5.63,2.66-5.7S136.89,304.63,136.89,304.63Z"/><path class="cls-39" d="M137.33,305.29c0,.46.58,1.39-.82,1.32-2.16,1.44-5.68.38-6.46.36l-.85,1.59-.55,3.8s-.61-1.2-1.44-2.91a5.74,5.74,0,0,1-.57-3.93,5.36,5.36,0,0,1,6.26-4.25C134.86,301.5,137.09,303.28,137.33,305.29Z"/><path class="cls-36" d="M129.45,307.77c-.43-1.21-1.18-1.06-1.36-.18s.19,2.76,1,2.19S129.45,307.77,129.45,307.77Z"/><path class="cls-39" d="M126.69,327.27l.59.89,2.12-1.68-.87-14.35-2-6c-.27,1.76-2.56,24.63-2.56,24.63l2.61-2.08Z"/><path class="cls-47" d="M275.47,422.11c3.3,14.09,1.15,19.34-6.39,37.61l-5.22.33L265.54,424Z"/><path class="cls-48" d="M270.77,455.12s-1.16-20-3.16-20.92a4.78,4.78,0,0,1-2.43-1.93l.55-4.73s2.63-4.57,3.37-4.22,4,2,3.91,3.11,4.15,13.26,4.15,13.26Z"/><path class="cls-49" d="M263.78,494.7l-.06,3.29s-7.31.31-8.93-1.72c0,0,5.81-.13,7.33-1.85S263.78,494.7,263.78,494.7Z"/><path class="cls-50" d="M268.93,459.27s.19,10.88-.72,13.83-4.12,21.35-4.12,21.35l-2,0,1-31.2a12.93,12.93,0,0,1,1-4.6l.2-.47Z"/><path class="cls-28" d="M282.25,423.1c4.45,13.77,2.93,20.9-1.13,41.07l-6.47-3.44-3.24-33Z"/><path class="cls-49" d="M289.29,492.94l1.22,3.05s-6.61,3.14-8.89,1.89c0,0,5.3-2.38,6-4.55S289.29,492.94,289.29,492.94Z"/><path class="cls-36" d="M280.24,458.3s4.4,9.94,4.72,13,4.52,21.27,4.52,21.27l-1.82.74-12.73-31.86a3.89,3.89,0,0,1,3.26-5.31l.37,0Z"/><path class="cls-28" d="M263.86,430.33l-2.19,35.13s9.48,5.09,23.28,1.89L283,461.84s6.22-23.6,2.34-32.45-16.57-10.38-16.93-9S263.86,430.33,263.86,430.33Z"/><path class="cls-51" d="M263.73,433s8.19,3.08,22.59,0c0,0-.79-5.35-1-5.39s-18.1-5.77-18.24-5.19-3.25,6.42-3.25,6.42Z"/><path class="cls-41" d="M277.69,385.6c.66,1.67.47,3.55,1.13,4.49s3.49,1.79,2.92,4.34,4.21,2.88,3.49,8.19c-.76,5.56-4.05,7.91-8,7.91-2.35,0-7.06.1-10.45-3.39s-1.13-6.21-.29-7.82-1.13-3.76.19-5.93c1.06-1.74,2.07-2.35,2.07-4.14s.1-4.81,3.4-4.71A16.53,16.53,0,0,1,277.69,385.6Z"/><path class="cls-6" d="M284,407.06l-2,10.38s6.55,11.21,5.46,13.6c0,0-5.95,2-16.61,1l-1.41-5.72-2,4.95a18.51,18.51,0,0,1-6.87-1.68l5.53-13.39-1.74-12.64,8.52-8.72,2.1-.45,3.18.63Z"/><path class="cls-6" d="M277.27,394.81s6,1.89,8.42,3.9c3.09,2.6,6.6,10.82,6.6,10.82l-2.22,3.86c-1.21,1.88-3-.73-4.77-2.1l-4.76-4.24-3.61-5.27Z"/><path class="cls-6" d="M264,401.85l-6,17.78,6.26,2,9-16.5-1-9.61-1.6.35A9,9,0,0,0,264,401.85Z"/><polygon class="cls-45" points="275.25 395.78 277.29 396.92 275.26 399.86 273.06 398.05 271.85 399.86 270.65 397.65 272.27 396.02 275.25 395.78"/><path class="cls-36" d="M272.38,393.11l-.15,3.81s.4,1.46,1.34,1.15a5,5,0,0,0,2-1.83l.22-7.54-.61-.64Z"/><path class="cls-38" d="M275.68,392.45c-1.25,3.35-3.39,2.64-3.39,2.64l0-1.93,3.6-3.35Z"/><path class="cls-36" d="M268.37,384.69c-1.08,4.65.07,10.12,3.82,9.92,0,0,3-.2,4.05-4.41,1-4-1.57-5.89-2-6S268.37,384.69,268.37,384.69Z"/><path class="cls-41" d="M267.86,385.46c-.06.45.18.28,1.57.37a10.14,10.14,0,0,0,5.34,2.12l.65,1.66.26,3.69s.57-1,1.58-2.58a5.69,5.69,0,0,0,1-3.78c-.46-3.79-3.23-4.52-5.53-4.52C270.81,382.42,269.24,382.79,267.86,385.46Z"/><path class="cls-41" d="M269.27,386.42c1.79,3,5.51,2.4,5.51,2.4l.53,1.5.65-2.49s-2.73-1.6-2.83-1.79A25.37,25.37,0,0,0,269.27,386.42Z"/><path class="cls-36" d="M275.43,388.71c.57-1.16,1.3-.92,1.38,0s-.52,2.74-1.31,2.06S275.43,388.71,275.43,388.71Z"/><path class="cls-41" d="M269.27,386.42s-.56,1.6-1.41,1.88c0,0-.76-1.88,0-3s3.39-.66,3.48-.57,1.89,1.32,1.89,1.32l-2.92.57Z"/><path class="cls-36" d="M251.38,408.61s-.84-1-.67-1.67,0-.92-.22-.67a2.43,2.43,0,0,0-.42.82s-1.52-1.42-1.82-1.34.14.48.14.48-.58-.49-.78-.37.32.58.32.58-.36-.22-.45-.11.15.43.43.62c0,0-.24-.23-.4-.07s.16.34.4.61c.63.69,1.16,1.66,2.26,1.77l1.2,1.19Z"/><path class="cls-45" d="M252,409l-.44-.61a4,4,0,0,0-1.27,2l1.85,1.82Z"/><path class="cls-6" d="M252,408.85l-1.57,1.84,6.85,9.6a5.36,5.36,0,0,0,3,1.68l.63.21a3.19,3.19,0,0,0,3.69-1.3l1.77-2.75Z"/><path class="cls-4" d="M285.67,414.42c-.2-1.38-1.45-2.34-2.67-3-3.77-2.18-8-2.56-12-4.41-1.79-.85-3.29-.76-5.15-1.45-1.22-.46-2.75-2.59-4-2.84-3-.6-4.9-1.64-7.91-.89a5.76,5.76,0,0,0-4.57,4.86,6.4,6.4,0,0,0,1.74,4.32,14.59,14.59,0,0,0,3.78,2.87,45.66,45.66,0,0,0,14.81,5.45c.81.15,1.61.27,2.42.35a25.41,25.41,0,0,0,9.1-.84,8.22,8.22,0,0,0,3.1-1.39A3.4,3.4,0,0,0,285.67,414.42Z"/><path class="cls-36" d="M271.71,418.53s-1.31.11-1.75-.41-.73-.56-.67-.21a2.28,2.28,0,0,0,.42.83s-2,.42-2.14.71.48.17.48.17-.74.19-.75.42.65.07.65.07-.38.17-.35.31.44.12.76,0c0,0-.32.07-.29.29s.38.06.73,0c.93-.12,2,0,2.75-.84l1.66-.29Z"/><path class="cls-45" d="M272,418.33l-.75,0a4,4,0,0,0,1,2.17l2.52-.57Z"/><path class="cls-6" d="M286.21,411.37l-14.45,6.91.66,2.32,15.89-2.54a5.69,5.69,0,0,0,4.05-2.82h0a5.71,5.71,0,0,0-.07-5.71l0,0Z"/><path class="cls-52" d="M254.28,402.7c-.08.08-.74,2.83,2.59,3.7a63,63,0,0,0,9.45,1.19s-2.46-4-4.95-4.64S256,401,254.28,402.7Z"/><path class="cls-52" d="M261.84,407.67a37,37,0,0,1,4.48-.08c.08.19,7.65,8.81,7.65,8.81S265.46,407.65,261.84,407.67Z"/><path class="cls-36" d="M254.25,404.07a4.24,4.24,0,0,1,2.33-.64,5.06,5.06,0,0,1,3.44,1.74,22,22,0,0,1,1.38,2S254.74,407.28,254.25,404.07Z"/><path class="cls-41" d="M254.25,403.42a5.16,5.16,0,0,1,1.93-.2c.4.21.37.85.37.85l-1.07.12-.08,1.6A2.44,2.44,0,0,1,254.25,403.42Z"/><circle class="cls-53" cx="257.82" cy="337.19" r="5.36"/><circle class="cls-53" cx="261.99" cy="354.75" r="3.5"/><path class="cls-26" d="M222.61,484.25h0a3.6,3.6,0,0,1-3.6-3.59V441.57a3.59,3.59,0,0,1,3.6-3.59h0a3.59,3.59,0,0,1,3.59,3.59v39.09A3.59,3.59,0,0,1,222.61,484.25Z"/></g></g></svg>